<svg width="19" height="18" viewBox="0 0 19 18" fill="none" xmlns="http://www.w3.org/2000/svg">
<path fill-rule="evenodd" clip-rule="evenodd" d="M9.53568 1.62295C11.9407 1.62295 12.2247 1.63395 13.1707 1.67595C14.0497 1.71495 14.5247 1.86195 14.8407 1.98495C15.2587 2.14695 15.5617 2.34395 15.8747 2.65595C16.1907 2.97195 16.3847 3.27095 16.5497 3.68995C16.6727 4.00595 16.8207 4.48495 16.8587 5.35995C16.9007 6.30895 16.9117 6.59395 16.9117 8.99495C16.9117 11.396 16.9007 11.684 16.8587 12.63C16.8197 13.509 16.6727 13.984 16.5497 14.3C16.4055 14.6902 16.1763 15.0434 15.8787 15.334C15.5627 15.65 15.2637 15.844 14.8447 16.009C14.5287 16.132 14.0497 16.28 13.1747 16.318C12.2257 16.36 11.9407 16.371 9.53967 16.371C7.13867 16.371 6.85068 16.36 5.90468 16.318C5.02567 16.279 4.55067 16.132 4.23467 16.009C3.84447 15.8648 3.49126 15.6356 3.20068 15.338C2.90192 15.0475 2.67138 14.6943 2.52568 14.304C2.40268 13.988 2.25468 13.509 2.21668 12.634C2.17467 11.685 2.16368 11.4 2.16368 8.99895C2.16368 6.59795 2.17467 6.30995 2.21668 5.36395C2.25568 4.48495 2.40268 4.00995 2.52568 3.69395C2.68767 3.27595 2.88468 2.97295 3.19668 2.65995C3.51268 2.34395 3.81168 2.14995 4.23067 1.98495C4.54668 1.86195 5.02567 1.71395 5.90067 1.67595C6.84667 1.63395 7.13068 1.62295 9.53568 1.62295ZM9.53568 0.00195312C7.09268 0.00195312 6.78667 0.0129531 5.82667 0.0549531C4.87068 0.0969531 4.21268 0.251953 3.64368 0.472953C3.04186 0.698888 2.49702 1.05426 2.04768 1.51395C1.58873 1.96274 1.23343 2.50643 1.00668 3.10695C0.785675 3.67995 0.630675 4.33395 0.588675 5.28995C0.546675 6.25295 0.535675 6.55895 0.535675 9.00195C0.535675 11.445 0.546675 11.751 0.588675 12.711C0.630675 13.667 0.785675 14.325 1.00668 14.894C1.23261 15.4958 1.58798 16.0406 2.04768 16.49C2.49661 16.9478 3.04034 17.3017 3.64068 17.527C4.21368 17.748 4.86768 17.903 5.82368 17.945C6.78368 17.987 7.08967 17.998 9.53267 17.998C11.9757 17.998 12.2817 17.987 13.2417 17.945C14.1977 17.903 14.8557 17.748 15.4247 17.527C16.0247 17.3011 16.5683 16.9472 17.0177 16.49C17.5177 15.991 17.8267 15.488 18.0547 14.897C18.2757 14.324 18.4307 13.67 18.4727 12.714C18.5147 11.754 18.5257 11.448 18.5257 9.00495C18.5257 6.56195 18.5147 6.25595 18.4727 5.29595C18.4307 4.33995 18.2757 3.68195 18.0547 3.11295C17.8379 2.508 17.4856 1.96069 17.0247 1.51295C16.5757 1.05515 16.032 0.701194 15.4317 0.475953C14.8587 0.254953 14.2047 0.0999531 13.2487 0.0579531C12.2857 0.0119531 11.9797 0.00195312 9.53568 0.00195312ZM9.53568 4.37895C8.30974 4.37948 7.13417 4.86672 6.26731 5.73358C5.40044 6.60045 4.91321 7.77602 4.91267 9.00195C4.91321 10.2279 5.40044 11.4035 6.26731 12.2703C7.13417 13.1372 8.30974 13.6244 9.53568 13.625C10.7616 13.6244 11.9372 13.1372 12.804 12.2703C13.6709 11.4035 14.1581 10.2279 14.1587 9.00195C14.1581 7.77602 13.6709 6.60045 12.804 5.73358C11.9372 4.86672 10.7616 4.37948 9.53568 4.37895ZM9.53568 12.001C9.13717 12.0082 8.7412 11.936 8.37091 11.7886C8.00062 11.6411 7.66343 11.4213 7.37904 11.142C7.09464 10.8628 6.86874 10.5297 6.71454 10.1621C6.56033 9.79461 6.48091 9.40003 6.48091 9.00145C6.48091 8.60288 6.56033 8.2083 6.71454 7.84076C6.86874 7.47323 7.09464 7.14011 7.37904 6.86086C7.66343 6.58161 8.00062 6.36183 8.37091 6.21435C8.7412 6.06688 9.13717 5.99468 9.53568 6.00195C10.3313 6.00195 11.0944 6.31802 11.657 6.88063C12.2196 7.44324 12.5357 8.2063 12.5357 9.00195C12.5357 9.7976 12.2196 10.5607 11.657 11.1233C11.0944 11.6859 10.3313 12.002 9.53568 12.002V12.001ZM14.3417 5.27495C14.6278 5.27495 14.9023 5.16127 15.1046 4.95892C15.307 4.75657 15.4207 4.48212 15.4207 4.19595C15.4207 3.90978 15.307 3.63534 15.1046 3.43298C14.9023 3.23063 14.6278 3.11695 14.3417 3.11695C14.0555 3.11695 13.7811 3.23063 13.5787 3.43298C13.3764 3.63534 13.2627 3.90978 13.2627 4.19595C13.2627 4.48212 13.3764 4.75657 13.5787 4.95892C13.7811 5.16127 14.0555 5.27495 14.3417 5.27495Z" fill="#C2BCD5"/>
</svg>
