<svg width="190" height="193" viewBox="0 0 190 193" fill="none" xmlns="http://www.w3.org/2000/svg">
<g filter="url(#filter0_d_715_37)">
<path d="M125.523 75.2839C140.807 94.0046 151.062 113.565 155.426 129.894C159.922 146.717 157.732 158.04 151.574 163.068C145.416 168.096 133.883 167.975 118.3 160.204C103.175 152.661 86.0621 138.698 70.7784 119.978C55.4947 101.257 45.2392 81.6963 40.8753 65.3674C36.3795 48.5444 38.5689 37.2211 44.7273 32.1934C50.8856 27.1657 62.4181 27.2864 78.0011 35.0577C93.1265 42.6009 110.239 56.5632 125.523 75.2839Z" stroke="black" stroke-width="10"/>
<path d="M125.108 107.594C116.203 130.153 104.688 148.97 93.4446 161.18C87.811 167.297 82.4294 171.555 77.6752 173.882C72.9238 176.208 69.3056 176.386 66.6262 175.328C63.9468 174.271 61.4252 171.67 59.5434 166.726C57.6606 161.778 56.638 154.993 56.7015 146.677C56.8284 130.079 61.2699 108.47 70.1743 85.9109C79.0787 63.3516 90.594 44.5344 101.837 32.325C107.471 26.2074 112.853 21.9495 117.607 19.6221C122.358 17.2961 125.976 17.1187 128.656 18.1763C131.335 19.2339 133.857 21.8348 135.739 26.779C137.621 31.7261 138.644 38.5117 138.58 46.8279C138.454 63.4251 134.012 85.0344 125.108 107.594Z" stroke="black" stroke-width="10"/>
<path d="M96.6149 125.184C72.374 123.784 50.8536 118.946 35.691 112.415C28.0897 109.141 22.3449 105.552 18.6405 101.972C14.9211 98.3788 13.7253 95.2853 13.869 92.7973C14.0127 90.3093 15.5566 87.374 19.6649 84.2324C23.7566 81.1035 29.8764 78.1994 37.8041 75.822C53.6176 71.0798 75.5519 68.7504 99.7929 70.1502C124.034 71.55 145.554 76.3886 160.717 82.9196C168.318 86.1937 174.063 89.7829 177.767 93.362C181.487 96.9556 182.682 100.049 182.539 102.537C182.395 105.025 180.851 107.96 176.743 111.102C172.651 114.231 166.531 117.135 158.604 119.512C142.79 124.255 120.856 126.584 96.6149 125.184Z" stroke="black" stroke-width="10"/>
<path d="M110.974 110.972C90.2855 123.996 70.4729 133.772 55.2378 139.092C47.5814 141.765 41.3459 143.218 36.8558 143.506C34.6076 143.651 33.0632 143.483 32.0964 143.204C31.5135 143.035 31.2739 142.869 31.1966 142.802C31.169 142.703 31.123 142.415 31.223 141.816C31.3889 140.824 31.9056 139.359 33.0078 137.394C35.2089 133.47 39.2151 128.475 44.9359 122.727C56.3195 111.29 73.7012 97.6516 94.3894 84.6279C115.078 71.6041 134.89 61.8276 150.125 56.508C157.782 53.8347 164.017 52.3817 168.507 52.0935C170.756 51.9492 172.3 52.1166 173.267 52.3962C173.85 52.5648 174.089 52.7307 174.167 52.7984C174.194 52.8973 174.24 53.1852 174.14 53.7837C173.974 54.7764 173.458 56.2413 172.355 58.2061C170.154 62.1303 166.148 67.1246 160.427 72.8726C149.044 84.3101 131.662 97.9484 110.974 110.972ZM31.1659 142.77C31.1665 142.77 31.1721 142.775 31.1808 142.787C31.1697 142.776 31.1653 142.77 31.1659 142.77ZM31.2029 142.822C31.21 142.835 31.2125 142.843 31.212 142.843C31.2114 142.843 31.2079 142.837 31.2029 142.822ZM174.197 52.8302C174.197 52.8305 174.191 52.8251 174.182 52.8129C174.193 52.8238 174.198 52.8299 174.197 52.8302ZM174.16 52.7779C174.153 52.7648 174.151 52.7574 174.151 52.757C174.152 52.7566 174.155 52.7632 174.16 52.7779Z" stroke="black" stroke-width="10"/>
</g>
<defs>
<filter id="filter0_d_715_37" x="0.657178" y="12.554" width="189.093" height="179.597" filterUnits="userSpaceOnUse" color-interpolation-filters="sRGB">
<feFlood flood-opacity="0" result="BackgroundImageFix"/>
<feColorMatrix in="SourceAlpha" type="matrix" values="0 0 0 0 0 0 0 0 0 0 0 0 0 0 0 0 0 0 127 0" result="hardAlpha"/>
<feOffset dx="-3" dy="6"/>
<feGaussianBlur stdDeviation="2.6"/>
<feComposite in2="hardAlpha" operator="out"/>
<feColorMatrix type="matrix" values="0 0 0 0 0 0 0 0 0 0 0 0 0 0 0 0 0 0 0.25 0"/>
<feBlend mode="normal" in2="BackgroundImageFix" result="effect1_dropShadow_715_37"/>
<feBlend mode="normal" in="SourceGraphic" in2="effect1_dropShadow_715_37" result="shape"/>
</filter>
</defs>
</svg>
