<svg width="20" height="18" viewBox="0 0 20 18" fill="none" xmlns="http://www.w3.org/2000/svg">
<path fill-rule="evenodd" clip-rule="evenodd" d="M2.15814 4.15379C3.30458 4.15379 4.23503 3.22334 4.23503 2.0769C4.23503 0.93045 3.30458 0 2.15814 0C1.01169 0 0.0812378 0.93045 0.0812378 2.0769C0.0812378 3.22334 1.01169 4.15379 2.15814 4.15379ZM0.0812378 18V5.53857H4.23503V18H0.0812378ZM7.00495 5.53857H10.8361V7.50193H10.8915C11.4245 6.54518 12.7288 5.53857 14.6742 5.53857C18.7186 5.53857 19.4663 8.05577 19.4663 11.3303V18H15.4717V12.0877C15.4717 10.6782 15.4426 8.86299 13.3948 8.86299C11.3152 8.86299 10.9967 10.3985 10.9967 11.9853V18H7.00495V5.53857Z" fill="#C2BCD5"/>
</svg>
