<svg width="21" height="20" viewBox="0 0 21 20" fill="none" xmlns="http://www.w3.org/2000/svg">
<path d="M9.58529 0.0250893C6.45632 0.349957 3.71457 2.05257 2.0484 4.7063C-0.313967 8.4638 0.127999 13.4307 3.11225 16.7029C4.76669 18.5151 6.8318 19.5993 9.3115 19.9516C9.77302 20.0181 11.3101 20.0142 11.7951 19.9516C14.0597 19.6384 16.0857 18.6325 17.6267 17.0591C18.1352 16.5424 18.2408 16.4211 18.5771 15.9749C19.5784 14.6402 20.2316 13.0119 20.4858 11.2349C20.5523 10.7731 20.5523 9.23095 20.4858 8.76909C20.3176 7.58313 20.0086 6.57331 19.5197 5.58305C18.9956 4.53408 18.4637 3.7865 17.6306 2.94497C16.0857 1.37935 14.1536 0.404753 11.932 0.0759716C11.4509 0.00551796 10.0625 -0.0257931 9.58529 0.0250893ZM12.6751 4.47146C12.7612 5.14076 12.9724 5.6535 13.34 6.0997C13.8172 6.67899 14.529 7.05082 15.3035 7.1291L15.5499 7.1565V8.08022V9.00393L15.1822 8.98045C14.9788 8.96479 14.7129 8.92957 14.5916 8.90608C14.0597 8.79649 13.3792 8.50685 12.9215 8.19764C12.8003 8.11153 12.6908 8.04499 12.679 8.04499C12.6712 8.04499 12.6634 9.0783 12.6673 10.3425C12.6751 12.6205 12.6751 12.6479 12.5852 12.9963C12.2605 14.2723 11.2827 15.2664 10.0155 15.603C9.54617 15.7244 8.86563 15.7439 8.39237 15.6461C6.98043 15.3565 5.88529 14.2762 5.59586 12.8945C5.51764 12.5344 5.52155 11.8377 5.59977 11.458C5.66626 11.1254 5.85009 10.6635 6.05347 10.3269C6.22556 10.0412 6.70273 9.52842 6.99998 9.31706C7.68053 8.83563 8.60749 8.57339 9.37017 8.65167L9.64395 8.67907V9.63018V10.5813L9.49924 10.5422C9.4171 10.5187 9.19417 10.5108 8.99861 10.5187C8.55273 10.5382 8.21637 10.687 7.91129 11.0001C6.9374 11.9904 7.48888 13.6343 8.86954 13.8495C9.76911 13.9904 10.6452 13.329 10.7782 12.4092C10.8017 12.2448 10.8173 10.5891 10.8173 8.20938V4.2875H11.7325H12.6517L12.6751 4.47146Z" fill="#C2BCD5"/>
</svg>
