<svg width="21" height="16" viewBox="0 0 21 16" fill="none" xmlns="http://www.w3.org/2000/svg">
<path d="M20.0812 1.89155C19.3627 2.21522 18.5881 2.43059 17.7791 2.52658C18.6076 2.02692 19.2418 1.23436 19.5436 0.29167C18.7689 0.753172 17.9087 1.09161 16.9971 1.27252C16.264 0.487348 15.2217 0 14.0682 0C11.8529 0 10.0591 1.80786 10.0591 4.03784C10.0591 4.3529 10.0933 4.66057 10.1617 4.95716C6.82832 4.78732 3.8725 3.18006 1.89422 0.734713C1.55086 1.33036 1.35169 2.02692 1.35169 2.76532C1.35169 4.16583 2.05796 5.40389 3.13446 6.1263C2.47708 6.1066 1.85878 5.92201 1.31625 5.62295V5.67341C1.31625 7.63141 2.69824 9.26578 4.53478 9.63493C4.19876 9.72729 3.84318 9.77769 3.4766 9.77769C3.21756 9.77769 2.96829 9.75067 2.72023 9.70507C3.23222 11.3087 4.71318 12.4778 6.46663 12.5123C5.09198 13.5965 3.36541 14.2426 1.48366 14.2426C1.15863 14.2426 0.842149 14.2229 0.525673 14.1848C2.30478 15.3342 4.41259 16 6.6768 16C14.0535 16 18.0907 9.84293 18.0907 4.50427C18.0907 4.32705 18.0871 4.15476 18.0797 3.98124C18.863 3.41636 19.5424 2.7038 20.08 1.89277L20.0812 1.89155Z" fill="#C2BCD5"/>
</svg>
