<svg width="262" height="99" viewBox="0 0 262 99" fill="none" xmlns="http://www.w3.org/2000/svg">
<path d="M80.6591 90.2C76.4191 90.2 72.6191 89.4 69.2591 87.8C65.9791 86.12 63.3791 83.88 61.4591 81.08C59.6191 78.28 58.6991 75.12 58.6991 71.6C58.6991 67.28 59.8191 63.88 62.0591 61.4C64.2991 58.84 67.9391 57 72.9791 55.88C78.0191 54.76 84.7791 54.2 93.2591 54.2H99.2591V62.84H93.3791C88.4191 62.84 84.4591 63.08 81.4991 63.56C78.5391 64.04 76.4191 64.88 75.1391 66.08C73.9391 67.2 73.3391 68.8 73.3391 70.88C73.3391 73.52 74.2591 75.68 76.0991 77.36C77.9391 79.04 80.4991 79.88 83.7791 79.88C86.4191 79.88 88.7391 79.28 90.7391 78.08C92.8191 76.8 94.4591 75.08 95.6591 72.92C96.8591 70.76 97.4591 68.28 97.4591 65.48V51.68C97.4591 47.68 96.5791 44.8 94.8191 43.04C93.0591 41.28 90.0991 40.4 85.9391 40.4C83.6191 40.4 81.0991 40.68 78.3791 41.24C75.7391 41.8 72.9391 42.76 69.9791 44.12C68.4591 44.84 67.0991 45.04 65.8991 44.72C64.7791 44.4 63.8991 43.76 63.2591 42.8C62.6191 41.76 62.2991 40.64 62.2991 39.44C62.2991 38.24 62.6191 37.08 63.2591 35.96C63.8991 34.76 64.9791 33.88 66.4991 33.32C70.1791 31.8 73.6991 30.72 77.0591 30.08C80.4991 29.44 83.6191 29.12 86.4191 29.12C92.1791 29.12 96.8991 30 100.579 31.76C104.339 33.52 107.139 36.2 108.979 39.8C110.819 43.32 111.739 47.88 111.739 53.48V82.28C111.739 84.76 111.139 86.68 109.939 88.04C108.739 89.32 107.019 89.96 104.779 89.96C102.539 89.96 100.779 89.32 99.4991 88.04C98.2991 86.68 97.6991 84.76 97.6991 82.28V76.52H98.6591C98.0991 79.32 96.9791 81.76 95.2991 83.84C93.6991 85.84 91.6591 87.4 89.1791 88.52C86.6991 89.64 83.8591 90.2 80.6591 90.2ZM129.244 89.96C127.324 89.96 125.764 89.52 124.564 88.64C123.444 87.76 122.764 86.6 122.524 85.16C122.284 83.64 122.564 81.96 123.364 80.12L155.044 9.92C156.084 7.6 157.324 5.96 158.764 4.99999C160.284 3.95999 162.004 3.43999 163.924 3.43999C165.764 3.43999 167.404 3.95999 168.844 4.99999C170.364 5.96 171.644 7.6 172.684 9.92L204.484 80.12C205.364 81.96 205.684 83.64 205.444 85.16C205.204 86.68 204.524 87.88 203.404 88.76C202.284 89.56 200.804 89.96 198.964 89.96C196.724 89.96 194.964 89.44 193.684 88.4C192.484 87.28 191.404 85.6 190.444 83.36L182.644 65.24L189.124 69.44H138.484L144.964 65.24L137.284 83.36C136.244 85.68 135.164 87.36 134.044 88.4C132.924 89.44 131.324 89.96 129.244 89.96ZM163.684 21.08L146.884 61.04L143.764 57.2H183.844L180.844 61.04L163.924 21.08H163.684Z" fill="black"/>
</svg>
