<svg width="117" height="132" viewBox="0 0 117 132" fill="none" xmlns="http://www.w3.org/2000/svg">
<path d="M13.5 36.5L20.2908 113.321C20.9752 121.063 27.4601 127 35.2325 127H81.2675C89.0399 127 95.5248 121.063 96.2092 113.321L103 36.5M13.5 36.5H12.75C8.46979 36.5 5 33.0302 5 28.75C5 24.4698 8.46979 21 12.75 21H37.5M13.5 36.5H103M37.5 21V15C37.5 9.47715 41.9772 5 47.5 5H69C74.5228 5 79 9.47715 79 15V21M37.5 21H79M35.5 52L40 111.5M103 36.5H103.75C108.03 36.5 111.5 33.0302 111.5 28.75C111.5 24.4698 108.03 21 103.75 21H79M81 52L76.5 111.5M58.5 52V111.5" stroke="black" stroke-width="10" stroke-linecap="round"/>
</svg>
