<svg width="24" height="24" viewBox="0 0 24 24" fill="none" xmlns="http://www.w3.org/2000/svg">
<path fill-rule="evenodd" clip-rule="evenodd" d="M12 24C18.6274 24 24 18.6274 24 12C24 5.37256 18.6274 -2.14565e-05 12 -2.14565e-05C5.37258 -2.14565e-05 0 5.37256 0 12C0 18.6274 5.37258 24 12 24ZM7.42907 5.66129C6.94092 5.17314 6.14946 5.17314 5.66131 5.66129C5.17315 6.14945 5.17315 6.9409 5.66131 7.42906L10.2322 12L5.66131 16.5709C5.17315 17.0591 5.17315 17.8506 5.66131 18.3387C6.14946 18.8269 6.94092 18.8269 7.42907 18.3387L12 13.7678L16.571 18.3387C17.0591 18.8269 17.8506 18.8269 18.3387 18.3387C18.8269 17.8506 18.8269 17.0591 18.3387 16.5709L13.7678 12L18.3387 7.42906C18.8269 6.9409 18.8269 6.14945 18.3387 5.66129C17.8506 5.17314 17.0591 5.17314 16.571 5.66129L12 10.2322L7.42907 5.66129Z" fill="#000000"/>
</svg>
