<svg width="80" height="123" viewBox="0 0 80 123" fill="none" xmlns="http://www.w3.org/2000/svg">
<path d="M13.5 96C20.9558 96 27 102.044 27 109.5C27 116.956 20.9558 123 13.5 123C6.04416 123 0 116.956 0 109.5C0 102.044 6.04416 96 13.5 96Z" fill="black"/>
<path d="M13.5 48C20.9558 48 27 54.0442 27 61.5C27 68.9558 20.9558 75 13.5 75C6.04416 75 0 68.9558 0 61.5C0 54.0442 6.04416 48 13.5 48Z" fill="black"/>
<path d="M13.5 0C20.9558 0 27 6.04416 27 13.5C27 20.9558 20.9558 27 13.5 27C6.04416 27 0 20.9558 0 13.5C0 6.04416 6.04416 0 13.5 0Z" fill="black"/>
<path d="M66.5 96C73.9558 96 80 102.044 80 109.5C80 116.956 73.9558 123 66.5 123C59.0442 123 53 116.956 53 109.5C53 102.044 59.0442 96 66.5 96Z" fill="black"/>
<path d="M66.5 48C73.9558 48 80 54.0442 80 61.5C80 68.9558 73.9558 75 66.5 75C59.0442 75 53 68.9558 53 61.5C53 54.0442 59.0442 48 66.5 48Z" fill="black"/>
<path d="M66.5 0C73.9558 0 80 6.04416 80 13.5C80 20.9558 73.9558 27 66.5 27C59.0442 27 53 20.9558 53 13.5C53 6.04416 59.0442 0 66.5 0Z" fill="black"/>
</svg>
