<svg width="13" height="13" viewBox="0 0 13 13" fill="none" xmlns="http://www.w3.org/2000/svg">
<path fill-rule="evenodd" clip-rule="evenodd" d="M13 6.5C13 10.0899 10.0899 13 6.5 13C2.91015 13 0 10.0899 0 6.5C0 2.91015 2.91015 0 6.5 0C10.0899 0 13 2.91015 13 6.5ZM7.197 10.337C7.197 10.7216 6.88519 11.0334 6.50057 11.0334C6.11594 11.0334 5.80414 10.7216 5.80414 10.337C5.80414 9.95234 6.11594 9.64053 6.50057 9.64053C6.88519 9.64053 7.197 9.95234 7.197 10.337ZM7.195 2.66168C7.195 2.27784 6.88384 1.96668 6.5 1.96668C6.11616 1.96668 5.805 2.27784 5.805 2.66168L5.805 8.24484C5.805 8.62868 6.11616 8.93984 6.5 8.93984C6.88384 8.93984 7.195 8.62868 7.195 8.24484L7.195 2.66168Z" fill="#CF0016"/>
</svg>
