<svg width="136" height="118" viewBox="0 0 136 118" fill="none" xmlns="http://www.w3.org/2000/svg">
<path d="M5 101.5V18C5 10.8203 10.8203 5 18 5H45.8914C48.9905 5 51.9877 6.10717 54.3426 8.12192L61.6063 14.3364C63.9612 16.3512 66.9584 17.4583 70.0576 17.4583H110C117.18 17.4583 123 23.2786 123 30.4583V43M20.5815 52.7948L5.88169 95.7948C2.99786 104.231 9.26763 113 18.1828 113H105.467C111.345 113 116.492 109.055 118.02 103.378L129.592 60.3784C131.815 52.1185 125.593 44 117.039 44H32.8825C27.3235 44 22.3797 47.5347 20.5815 52.7948Z" stroke="black" stroke-width="10" stroke-linecap="round" stroke-linejoin="round"/>
</svg>
