<svg width="379" height="512" viewBox="0 0 379 512" fill="none" xmlns="http://www.w3.org/2000/svg">
<path d="M0 37C0 16.5655 16.5654 0 37 0H259.5C272.948 0.824097 279.116 2.77972 287.5 10L367.206 90C374.776 99.9181 377.016 106.125 378.5 118V481.097C375.593 498.631 360.358 512 342 512H37C16.5654 512 0 495.435 0 475V37Z" fill="url(#paint0_linear_753_84)"/>
<path d="M378.5 448V481.097C375.593 498.631 360.358 512 342 512H37C16.5654 512 0 495.435 0 475V448H378.5Z" fill="url(#paint1_linear_753_84)"/>
<path d="M378.5 215.88V118C377.016 106.125 374.776 99.9181 367.206 90L325.522 48.162L268.152 105.532L378.5 215.88Z" fill="url(#paint2_linear_753_84)"/>
<path d="M377.172 110H278C270.82 110 265 104.18 265 97V0.451111C274.813 1.51459 280.351 3.84344 287.5 10L367.206 90C372.881 97.4351 375.561 102.785 377.172 110Z" fill="url(#paint3_linear_753_84)"/>
<path d="M77 212C77 207.029 81.0294 203 86 203H292C296.971 203 301 207.029 301 212V224C301 228.971 296.971 233 292 233H86C81.0294 233 77 228.971 77 224V212Z" fill="#BBBBB3"/>
<path d="M77 273C77 268.029 81.0294 264 86 264H292C296.971 264 301 268.029 301 273V285C301 289.971 296.971 294 292 294H86C81.0294 294 77 289.971 77 285V273Z" fill="#BBBBB3"/>
<path d="M77 334C77 329.029 81.0294 325 86 325H185C189.971 325 194 329.029 194 334V346C194 350.971 189.971 355 185 355H86C81.0294 355 77 350.971 77 346V334Z" fill="#BBBBB3"/>
<defs>
<linearGradient id="paint0_linear_753_84" x1="152.5" y1="239" x2="361.5" y2="490" gradientUnits="userSpaceOnUse">
<stop offset="0.00748302" stop-color="white"/>
<stop offset="1" stop-color="#DFDFD7"/>
</linearGradient>
<linearGradient id="paint1_linear_753_84" x1="112" y1="480" x2="297.5" y2="480" gradientUnits="userSpaceOnUse">
<stop stop-color="#FEFEFD"/>
<stop offset="1" stop-color="#ECECE7"/>
</linearGradient>
<linearGradient id="paint2_linear_753_84" x1="268" y1="77.5" x2="407.5" y2="201.5" gradientUnits="userSpaceOnUse">
<stop stop-color="white"/>
<stop offset="1" stop-color="#D0D0C7"/>
</linearGradient>
<linearGradient id="paint3_linear_753_84" x1="276.5" y1="20" x2="353" y2="102.5" gradientUnits="userSpaceOnUse">
<stop stop-color="#E9E9E2"/>
<stop offset="1" stop-color="white"/>
</linearGradient>
</defs>
</svg>
