<svg width="119" height="141" viewBox="0 0 119 141" fill="none" xmlns="http://www.w3.org/2000/svg">
<path d="M31.8662 24.3924V24.3924C32.3031 13.9347 41.0257 5.74809 51.4901 5.97443L93.6384 6.88606C104.681 7.12492 113.44 16.2708 113.201 27.3139L111.961 84.6509L111.63 99.9589C111.413 109.987 102.938 117.844 92.9221 117.303V117.303" stroke="black" stroke-width="10" stroke-linecap="round" stroke-linejoin="round"/>
<path d="M34.0991 108.775L70.9047 104.987" stroke="black" stroke-width="10" stroke-linecap="round" stroke-linejoin="round"/>
<path d="M31 84.7881L67.8056 81" stroke="black" stroke-width="10" stroke-linecap="round" stroke-linejoin="round"/>
<path d="M63.9074 20.7571L23.1476 25.1888C12.1666 26.3827 4.23262 36.2524 5.42654 47.2334L11.6255 104.248L13.1009 117.817C14.2948 128.798 24.1645 136.732 35.1455 135.538L75.9053 131.107C86.8863 129.913 94.8203 120.043 93.6263 109.062L92.151 95.4925L85.952 38.4782C84.7581 27.4972 74.8883 19.5632 63.9074 20.7571Z" stroke="black" stroke-width="10" stroke-linecap="round" stroke-linejoin="round"/>
</svg>
