<svg width="116" height="117" viewBox="0 0 116 117" fill="none" xmlns="http://www.w3.org/2000/svg">
<path d="M16 5H39C45.0751 5 50 9.92487 50 16V39C50 45.0751 45.0751 50 39 50H16C9.92487 50 5 45.0751 5 39V16C5 9.92487 9.92487 5 16 5ZM16 67H39C45.0751 67 50 71.9249 50 78V101C50 107.075 45.0751 112 39 112H16C9.92487 112 5 107.075 5 101V78C5 71.9249 9.92487 67 16 67ZM77 5H100C106.075 5 111 9.92487 111 16V39C111 45.0751 106.075 50 100 50H77C70.9249 50 66 45.0751 66 39V16C66 9.92487 70.9249 5 77 5ZM77 67H100C106.075 67 111 71.9249 111 78V101C111 107.075 106.075 112 100 112H77C70.9249 112 66 107.075 66 101V78C66 71.9249 70.9249 67 77 67Z" stroke="black" stroke-width="10"/>
</svg>
