<svg width="127" height="101" viewBox="0 0 127 101" fill="none" xmlns="http://www.w3.org/2000/svg">
<path d="M102 5L121.029 16.4174C121.631 16.7788 122 17.4299 122 18.1324L122 82.8676C122 83.5701 121.631 84.2212 121.029 84.5826L102 96M25 5L5.97101 16.4174C5.3686 16.7788 5 17.4299 5 18.1324L5.00006 82.8676C5.00006 83.5701 5.36866 84.2212 5.97107 84.5826L25.0001 96" stroke="black" stroke-width="10" stroke-linecap="round"/>
<path d="M30 31.5L63.5 52.2208M30 31.5L61.3861 11.3567C62.6785 10.5272 64.3317 10.5109 65.6403 11.3147L98.5 31.5M30 31.5V69.2294C30 70.6376 30.7405 71.9421 31.9496 72.6639L63.5 91.5M63.5 52.2208V91.5M63.5 52.2208L98.5 31.5M63.5 91.5L96.663 70.1809C97.8079 69.4449 98.5 68.1773 98.5 66.8162V31.5" stroke="black" stroke-width="7" stroke-linecap="round" stroke-linejoin="round"/>
</svg>
