<svg width="38" height="26" viewBox="0 0 38 26" fill="none" xmlns="http://www.w3.org/2000/svg">
<path d="M3 12.696L2.15593 11.579C1.8058 11.8436 1.6 12.2571 1.6 12.696C1.6 13.1348 1.8058 13.5483 2.15593 13.8129L3 12.696ZM12.4815 5.53082L11.7248 4.35293L11.6799 4.38174L11.6374 4.41388L12.4815 5.53082ZM12.4815 19.8611L11.6374 20.978L11.6799 21.0102L11.7248 21.039L12.4815 19.8611ZM35 12.696L35.837 13.8182C36.1913 13.554 36.4 13.1379 36.4 12.696C36.4 12.254 36.1913 11.8379 35.837 11.5737L35 12.696ZM25.3928 5.53082L26.2298 4.40856L26.1906 4.37934L26.1495 4.35293L25.3928 5.53082ZM25.3928 19.8611L26.1495 21.039L26.1906 21.0126L26.2298 20.9834L25.3928 19.8611ZM7.0499 22.5682C6.50316 23.1149 6.50316 24.0013 7.0499 24.5481C7.59663 25.0948 8.48306 25.0948 9.02979 24.5481L7.0499 22.5682ZM30.9501 2.62777C31.4968 2.08103 31.4968 1.1946 30.9501 0.647868C30.4034 0.101134 29.5169 0.101134 28.9702 0.647868L30.9501 2.62777ZM3.84407 13.8129L13.3255 6.64775L11.6374 4.41388L2.15593 11.579L3.84407 13.8129ZM13.3255 18.7442L3.84407 11.579L2.15593 13.8129L11.6374 20.978L13.3255 18.7442ZM35.837 11.5737L26.2298 4.40856L24.5558 6.65307L34.163 13.8182L35.837 11.5737ZM26.2298 20.9834L35.837 13.8182L34.163 11.5737L24.5558 18.7389L26.2298 20.9834ZM18.9371 5.09596C21.1021 5.09596 23.0754 5.70609 24.6361 6.70871L26.1495 4.35293C24.1258 3.05292 21.6249 2.29596 18.9371 2.29596V5.09596ZM24.6361 18.6832C23.0754 19.6858 21.1021 20.296 18.9371 20.296V23.096C21.6249 23.096 24.1258 22.339 26.1495 21.039L24.6361 18.6832ZM13.2382 6.70871C14.7989 5.70609 16.7722 5.09596 18.9371 5.09596V2.29596C16.2494 2.29596 13.7484 3.05292 11.7248 4.35293L13.2382 6.70871ZM18.9371 20.296C16.7722 20.296 14.7989 19.6858 13.2382 18.6832L11.7248 21.039C13.7484 22.339 16.2494 23.096 18.9371 23.096V20.296ZM23.5259 12.696C23.5259 15.2529 21.4832 17.296 19 17.296V20.096C23.0623 20.096 26.3259 16.7664 26.3259 12.696H23.5259ZM19 17.296C16.5167 17.296 14.474 15.2529 14.474 12.696H11.674C11.674 16.7664 14.9376 20.096 19 20.096V17.296ZM14.474 12.696C14.474 10.139 16.5167 8.09596 19 8.09596V5.29596C14.9376 5.29596 11.674 8.6255 11.674 12.696H14.474ZM19 8.09596C21.4832 8.09596 23.5259 10.139 23.5259 12.696H26.3259C26.3259 8.6255 23.0623 5.29596 19 5.29596V8.09596ZM19.3778 12.7559C19.3778 13.0264 19.1658 13.2159 18.9408 13.2159V16.0159C20.7449 16.0159 22.1778 14.5399 22.1778 12.7559H19.3778ZM18.9408 13.2159C18.7158 13.2159 18.5038 13.0264 18.5038 12.7559H15.7038C15.7038 14.5399 17.1367 16.0159 18.9408 16.0159V13.2159ZM18.5038 12.7559C18.5038 12.4855 18.7158 12.2959 18.9408 12.2959V9.49595C17.1367 9.49595 15.7038 10.9719 15.7038 12.7559H18.5038ZM18.9408 12.2959C19.1658 12.2959 19.3778 12.4855 19.3778 12.7559H22.1778C22.1778 10.9719 20.7449 9.49595 18.9408 9.49595V12.2959ZM9.02979 24.5481L30.9501 2.62777L28.9702 0.647868L7.0499 22.5682L9.02979 24.5481Z" fill="#000000"/>
</svg>
