<svg width="134" height="128" viewBox="0 0 134 128" fill="none" xmlns="http://www.w3.org/2000/svg">
<path d="M7.06429 59.5502L57.4221 9.19239C62.499 4.11557 70.7301 4.11557 75.8069 9.19239L126.165 59.5502C130.575 63.96 127.451 71.5 121.215 71.5H115.615C115.062 71.5 114.615 71.9477 114.615 72.5V109.5C114.615 116.68 108.794 122.5 101.615 122.5H84.6145C82.9577 122.5 81.6145 121.157 81.6145 119.5V91.5C81.6145 86.5294 77.5851 82.5 72.6145 82.5H66.6145H60.6145C55.644 82.5 51.6145 86.5294 51.6145 91.5V119.5C51.6145 121.157 50.2714 122.5 48.6145 122.5H31.6145C24.4348 122.5 18.6145 116.68 18.6145 109.5V72.5C18.6145 71.9477 18.1668 71.5 17.6145 71.5H12.014C5.77769 71.5 2.65453 63.96 7.06429 59.5502Z" stroke="black" stroke-width="10" stroke-linecap="round" stroke-linejoin="round"/>
</svg>
