<svg width="123" height="27" viewBox="0 0 123 27" fill="none" xmlns="http://www.w3.org/2000/svg">
<path d="M27 13.5C27 20.9558 20.9558 27 13.5 27C6.04416 27 0 20.9558 0 13.5C0 6.04416 6.04416 0 13.5 0C20.9558 0 27 6.04416 27 13.5Z" fill="black"/>
<path d="M75 13.5C75 20.9558 68.9558 27 61.5 27C54.0442 27 48 20.9558 48 13.5C48 6.04416 54.0442 0 61.5 0C68.9558 0 75 6.04416 75 13.5Z" fill="black"/>
<path d="M123 13.5C123 20.9558 116.956 27 109.5 27C102.044 27 96 20.9558 96 13.5C96 6.04416 102.044 0 109.5 0C116.956 0 123 6.04416 123 13.5Z" fill="black"/>
</svg>
