<svg width="158" height="139" viewBox="0 0 158 139" fill="none" xmlns="http://www.w3.org/2000/svg">
<path d="M97.2688 62.5C92.5732 57.8627 86.1209 55 79 55C75.8362 55 72.8044 55.5651 70 56.5998M97.2688 62.5C102.042 67.2139 105 73.7615 105 81C105 85.3285 103.942 89.41 102.071 93M97.2688 62.5L118 43.2708M118 43.2708C121.026 46.7792 125.504 49 130.5 49C139.613 49 147 41.6127 147 32.5C147 23.3873 139.613 16 130.5 16C121.387 16 114 23.3873 114 32.5C114 36.6162 115.507 40.3804 118 43.2708ZM102.071 93C97.7351 101.32 89.0309 107 79 107C71.2345 107 64.2641 103.596 59.5 98.1979M102.071 93L132.779 107M132.779 107C131.654 108.726 131 110.786 131 113C131 119.075 135.925 124 142 124C148.075 124 153 119.075 153 113C153 106.925 148.075 102 142 102C138.138 102 134.742 103.99 132.779 107ZM59.5 98.1979C55.4546 93.6145 53 87.5939 53 81C53 78.1158 53.4696 75.3413 54.3366 72.7488M59.5 98.1979L49 110.908M49 110.908C46.5607 108.492 43.2046 107 39.5 107C32.0442 107 26 113.044 26 120.5C26 127.956 32.0442 134 39.5 134C46.9558 134 53 127.956 53 120.5C53 116.749 51.47 113.355 49 110.908ZM26.7147 62.5C26.9013 61.6969 27 60.8599 27 60C27 53.9249 22.0751 49 16 49C9.92487 49 5 53.9249 5 60C5 66.0751 9.92487 71 16 71C21.2152 71 25.5827 67.3707 26.7147 62.5ZM26.7147 62.5L54.3366 72.7488M54.3366 72.7488C56.8349 65.2779 62.6327 59.3182 70 56.5998M62.5 31.6655C68.512 30.3013 73 24.9248 73 18.5C73 11.0442 66.9558 5 59.5 5C52.0442 5 46 11.0442 46 18.5C46 25.9558 52.0442 32 59.5 32C60.5311 32 61.5352 31.8844 62.5 31.6655ZM62.5 31.6655L70 56.5998" stroke="black" stroke-width="10"/>
</svg>
