<svg width="124" height="131" viewBox="0 0 124 131" fill="none" xmlns="http://www.w3.org/2000/svg">
<path d="M81.4011 65.4228L81.7239 65.2922C83.5431 64.5558 85.1389 63.3576 86.3535 61.816L116.469 23.5925C120.364 18.6484 119.554 11.49 114.653 7.54142C109.632 3.49731 102.268 4.37658 98.3404 9.48891L68.4528 48.3969C67.2967 49.9019 66.5464 51.6786 66.2738 53.5568M81.4011 65.4228C73.4687 68.6336 65.0447 62.0257 66.2738 53.5568M81.4011 65.4228L65 70.6685M66.2738 53.5568L64 70.6685M91 19.0447L109.318 32.6685" stroke="black" stroke-width="10" stroke-linecap="round" stroke-linejoin="round"/>
<path d="M51.6301 20H25C13.9543 20 5 28.9543 5 40V106C5 117.046 13.9543 126 25 126H96C107.046 126 116 117.046 116 106V77.0381" stroke="black" stroke-width="10" stroke-linecap="round" stroke-linejoin="round"/>
</svg>
