<svg width="115" height="130" viewBox="0 0 115 130" fill="none" xmlns="http://www.w3.org/2000/svg">
<path d="M78.2353 104.556C78.2353 115.847 69.1493 125 57.9412 125C46.733 125 37.6471 115.847 37.6471 104.556M6.81959 104.556C6.54928 104.556 6.30202 104.393 6.19945 104.142C4.27059 99.4326 4.92913 95.1955 6.34261 91.4629C8.32008 86.2411 13.4742 82.7452 16.3046 77.9333C18.0944 74.8905 19.0866 71.1873 19.8453 67.344C20.2023 65.536 20.2958 63.6737 20.2563 61.8312C19.4271 23.1457 38.7541 5.56332 57.5 5C76.2459 5 95.5729 23.1457 94.7437 61.8312C94.7042 63.6737 94.7977 65.536 95.1546 67.344C95.9134 71.1873 96.9056 74.8905 98.6954 77.9333C101.526 82.7452 106.68 86.2411 108.657 91.4629C110.071 95.1955 110.729 99.4326 108.801 104.142C108.698 104.393 108.451 104.556 108.18 104.556H6.81959Z" stroke="black" stroke-width="10"/>
</svg>
