<svg width="106" height="106" viewBox="0 0 106 106" fill="none" xmlns="http://www.w3.org/2000/svg">
<path d="M88.5069 84.9692L84.7765 81.64L84.7765 81.64L88.5069 84.9692ZM8.08289 36L3.10743 36.4948C3.2673 38.1024 4.19401 39.5336 5.59538 40.3373C6.99676 41.141 8.70009 41.2181 10.1683 40.5443L8.08289 36ZM12.7608 68.1976C11.7857 65.614 8.90092 64.3101 6.31737 65.2852C3.73383 66.2602 2.4299 69.1451 3.40496 71.7286L12.7608 68.1976ZM39.5855 27.0443C42.0952 25.8926 43.1961 22.9243 42.0443 20.4145C40.8926 17.9048 37.9243 16.8039 35.4145 17.9557L39.5855 27.0443ZM9.97546 4.5052C9.70219 1.75733 7.25307 -0.248727 4.5052 0.0245428C1.75733 0.297813 -0.248727 2.74693 0.0245428 5.4948L9.97546 4.5052ZM52.8449 10C76.494 10 95.6897 29.23 95.6897 52.9815H105.69C105.69 23.7341 82.0437 0 52.8449 0V10ZM95.6897 52.9815C95.6897 63.9974 91.5654 74.0331 84.7765 81.64L92.2373 88.2985C100.6 78.9277 105.69 66.5436 105.69 52.9815H95.6897ZM84.7765 81.64C76.9225 90.4402 65.5284 95.9631 52.8449 95.9631V105.963C68.5014 105.963 82.5698 99.1307 92.2373 88.2985L84.7765 81.64ZM12.7608 37.7655C18.891 21.5229 34.5378 10 52.8449 10V0C30.2279 0 10.9509 14.2407 3.40496 34.2345L12.7608 37.7655ZM52.8449 95.9631C34.5378 95.9631 18.891 84.4402 12.7608 68.1976L3.40496 71.7286C10.9509 91.7224 30.2279 105.963 52.8449 105.963V95.9631ZM10.1683 40.5443L39.5855 27.0443L35.4145 17.9557L5.99742 31.4557L10.1683 40.5443ZM13.0583 35.5052L9.97546 4.5052L0.0245428 5.4948L3.10743 36.4948L13.0583 35.5052Z" fill="black"/>
</svg>
