<svg width="143" height="133" viewBox="0 0 143 133" fill="none" xmlns="http://www.w3.org/2000/svg">
<path d="M135.5 103.916L140.221 99.4479C142.593 101.954 142.593 105.877 140.221 108.384L135.5 103.916ZM119.008 130.799C116.54 133.407 112.426 133.52 109.819 131.053C107.212 128.585 107.098 124.471 109.566 121.864L119.008 130.799ZM110.15 86.5861C107.683 83.9787 107.796 79.8647 110.403 77.3972C113.011 74.9296 117.125 75.043 119.592 77.6503L110.15 86.5861ZM6.91558 35.4151C3.32603 35.3685 0.453924 32.4208 0.500548 28.8313C0.547173 25.2417 3.49487 22.3696 7.08442 22.4162L6.91558 35.4151ZM140.221 108.384L119.008 130.799L109.566 121.864L130.779 99.448L140.221 108.384ZM130.779 108.384L110.15 86.5861L119.592 77.6503L140.221 99.4479L130.779 108.384ZM7 28.9157C7.08442 22.4162 7.08826 22.4163 7.09224 22.4163C7.09377 22.4164 7.09791 22.4164 7.10096 22.4165C7.10707 22.4166 7.11378 22.4167 7.12109 22.4168C7.1357 22.4171 7.15269 22.4174 7.17202 22.4178C7.2107 22.4187 7.2588 22.4199 7.31609 22.4217C7.43067 22.4254 7.5821 22.4312 7.76868 22.4407C8.14175 22.4597 8.65585 22.4934 9.2972 22.5528C10.5792 22.6717 12.3742 22.8941 14.571 23.3109C18.9601 24.1436 24.9868 25.7586 31.739 28.896C45.3359 35.2138 61.6249 47.5992 73.3395 71.5609L61.6605 77.2706C51.3751 56.2323 37.4141 45.8678 26.261 40.6855C20.6382 38.0728 15.6649 36.7503 12.1478 36.083C10.3914 35.7498 9.00674 35.5816 8.09733 35.4973C7.64298 35.4552 7.30845 35.4341 7.10681 35.4239C7.00603 35.4187 6.9386 35.4163 6.90614 35.4153C6.88992 35.4148 6.88245 35.4146 6.88395 35.4146C6.8847 35.4146 6.8877 35.4147 6.89296 35.4148C6.89559 35.4149 6.89879 35.4149 6.90256 35.415C6.90444 35.415 6.9077 35.415 6.90864 35.4151C6.91204 35.4151 6.91558 35.4151 7 28.9157ZM73.3395 71.5609C83.219 91.769 98.1004 98.0613 110.542 99.5892C116.904 100.371 122.705 99.8986 126.935 99.2172C129.039 98.8783 130.723 98.4927 131.855 98.2004C132.42 98.0545 132.845 97.9325 133.113 97.8523C133.246 97.8122 133.341 97.7826 133.394 97.7658C133.42 97.7574 133.436 97.7522 133.441 97.7505C133.444 97.7496 133.444 97.7496 133.441 97.7506C133.439 97.751 133.437 97.7517 133.435 97.7526C133.433 97.7531 133.431 97.7539 133.43 97.7542C133.427 97.7551 133.424 97.7561 135.5 103.916C137.576 110.075 137.572 110.077 137.569 110.078C137.567 110.078 137.564 110.079 137.561 110.08C137.556 110.082 137.549 110.084 137.542 110.087C137.528 110.091 137.512 110.097 137.492 110.103C137.453 110.116 137.403 110.132 137.341 110.152C137.219 110.191 137.052 110.243 136.843 110.305C136.427 110.43 135.842 110.597 135.106 110.787C133.636 111.167 131.555 111.641 129.002 112.052C123.92 112.87 116.846 113.461 108.958 112.492C92.8996 110.52 73.781 102.063 61.6605 77.2706L73.3395 71.5609Z" fill="black"/>
<path d="M136 29.4158L140.721 33.8837C143.093 31.3773 143.093 27.4543 140.721 24.948L136 29.4158ZM119.508 2.53218C117.04 -0.0752056 112.926 -0.188607 110.319 2.27889C107.712 4.74639 107.598 8.8604 110.066 11.4678L119.508 2.53218ZM110.65 46.7455C108.183 49.3528 108.296 53.4668 110.903 55.9344C113.511 58.4019 117.625 58.2886 120.092 55.6812L110.65 46.7455ZM7.41558 97.9164C3.82603 97.963 0.953924 100.911 1.00055 104.5C1.04717 108.09 3.99487 110.962 7.58442 110.915L7.41558 97.9164ZM140.721 24.948L119.508 2.53218L110.066 11.4678L131.279 33.8836L140.721 24.948ZM131.279 24.9479L110.65 46.7455L120.092 55.6812L140.721 33.8837L131.279 24.9479ZM7.5 104.416C7.58442 110.915 7.58826 110.915 7.59224 110.915C7.59377 110.915 7.59791 110.915 7.60096 110.915C7.60707 110.915 7.61378 110.915 7.62109 110.915C7.6357 110.914 7.65269 110.914 7.67202 110.914C7.7107 110.913 7.7588 110.912 7.81609 110.91C7.93067 110.906 8.0821 110.9 8.26868 110.891C8.64175 110.872 9.15585 110.838 9.7972 110.779C11.0792 110.66 12.8742 110.437 15.071 110.021C19.4601 109.188 25.4868 107.573 32.239 104.436C45.8359 98.1178 62.1249 85.7323 73.8395 61.7706L62.1605 56.0609C51.8751 77.0992 37.9141 87.4638 26.761 92.6461C21.1382 95.2587 16.1649 96.5812 12.6478 97.2485C10.8914 97.5817 9.50674 97.7499 8.59733 97.8342C8.14298 97.8763 7.80845 97.8974 7.60681 97.9077C7.50603 97.9128 7.4386 97.9152 7.40614 97.9163C7.38992 97.9168 7.38245 97.9169 7.38395 97.9169C7.3847 97.9169 7.3877 97.9168 7.39296 97.9167C7.39559 97.9167 7.39879 97.9166 7.40256 97.9166C7.40444 97.9166 7.4077 97.9165 7.40864 97.9165C7.41204 97.9164 7.41558 97.9164 7.5 104.416ZM73.8395 61.7706C83.719 41.5625 98.6004 35.2703 111.042 33.7423C117.404 32.961 123.205 33.433 127.435 34.1143C129.539 34.4532 131.223 34.8388 132.355 35.1312C132.92 35.2771 133.345 35.3991 133.613 35.4793C133.746 35.5194 133.841 35.5489 133.894 35.5657C133.92 35.5741 133.936 35.5793 133.941 35.5811C133.944 35.5819 133.944 35.5819 133.941 35.581C133.939 35.5805 133.937 35.5798 133.935 35.5789C133.933 35.5785 133.931 35.5776 133.93 35.5774C133.927 35.5765 133.924 35.5755 136 29.4158C138.076 23.2561 138.072 23.255 138.069 23.2538C138.067 23.2533 138.064 23.2521 138.061 23.2512C138.056 23.2493 138.049 23.2473 138.042 23.2449C138.028 23.2403 138.012 23.2348 137.992 23.2284C137.953 23.2155 137.903 23.1992 137.841 23.1796C137.719 23.1405 137.552 23.0885 137.343 23.0261C136.927 22.9012 136.342 22.7341 135.606 22.5441C134.136 22.1646 132.055 21.6908 129.502 21.2797C124.42 20.4611 117.346 19.8705 109.458 20.8392C93.3996 22.8113 74.281 31.269 62.1605 56.0609L73.8395 61.7706Z" fill="black"/>
</svg>
