<svg width="131" height="95" viewBox="0 0 131 95" fill="none" xmlns="http://www.w3.org/2000/svg">
<path d="M5 6.5H6.49937M6.49937 6.5H6.50078M6.49937 6.5V6.50308M6.49937 6.5V6.49838M6.49937 6.5L5.03233 6.19062M6.50078 6.5H6.50204M6.50078 6.5L6.49937 6.49838M6.50078 6.5L7.29712 7.76681M6.50078 6.5L6.49946 6.49647M6.50078 6.5L6.50173 6.49505M6.50078 6.5L6.27036 7.97679M6.50078 6.5L7.01833 7.90449M6.50078 6.5L6.50271 6.49589M6.50078 6.5L5.97034 7.89792M6.50204 6.5H8M6.50204 6.5L7.48479 7.63197M6.50204 6.5L7.48633 5.36771M6.50204 6.5L6.49937 6.50308M6.50204 6.5L7.96767 6.81014M6.50204 6.5L7.2298 7.81131M6.50204 6.5L7.69889 5.59617M6.49937 8V6.50308M6.49937 6.50308L5.51815 7.63184M6.49937 6.50308L6.18962 7.96791M6.49937 6.50308L5.30558 7.40506M6.49937 6.49838V5M6.49937 6.49838L5.51661 5.36784M6.49937 6.49838L6.80914 5.03258M6.49937 6.49838L5.77161 5.18955M5.22967 7.29379L6.49946 6.49647M6.49946 6.49647L6.50066 6.49572M6.49946 6.49647L6.4986 6.4951M6.49946 6.49647L5.09312 7.01472M6.49946 6.49647L6.50153 6.49633M6.49946 6.49647L6.49964 6.49529M6.50066 6.49572L6.50173 6.49505M6.50066 6.49572L6.4986 6.4951M6.50173 6.49505L7.77033 5.69848M6.50173 6.49505L7.93595 6.93111M6.50173 6.49505L6.73319 5.01271M6.4986 6.4951L5.70181 5.22614M6.4986 6.4951L5.06513 6.06026M6.50153 6.49633L6.50271 6.49589M6.50153 6.49633L6.49964 6.49529M6.50271 6.49589L7.90847 5.97847M6.50271 6.49589L7.81597 7.21873M6.50271 6.49589L7.0353 5.0933M6.49964 6.49529L5.98208 5.08914M6.49964 6.49529L5.18687 5.77381" stroke="black" stroke-width="10" stroke-linecap="round" stroke-linejoin="round"/>
<path d="M5 47.5H6.49937M6.49937 47.5H6.50078M6.49937 47.5V47.5031M6.49937 47.5V47.4984M6.49937 47.5L5.03233 47.1906M6.50078 47.5H6.50204M6.50078 47.5L6.49937 47.4984M6.50078 47.5L7.29712 48.7668M6.50078 47.5L6.49946 47.4965M6.50078 47.5L6.50173 47.4951M6.50078 47.5L6.27036 48.9768M6.50078 47.5L7.01833 48.9045M6.50078 47.5L6.50271 47.4959M6.50078 47.5L5.97034 48.8979M6.50204 47.5H8M6.50204 47.5L7.48479 48.632M6.50204 47.5L7.48633 46.3677M6.50204 47.5L6.49937 47.5031M6.50204 47.5L7.96767 47.8101M6.50204 47.5L7.2298 48.8113M6.50204 47.5L7.69889 46.5962M6.49937 49V47.5031M6.49937 47.5031L5.51815 48.6318M6.49937 47.5031L6.18962 48.9679M6.49937 47.5031L5.30558 48.4051M6.49937 47.4984V46M6.49937 47.4984L5.51661 46.3678M6.49937 47.4984L6.80914 46.0326M6.49937 47.4984L5.77161 46.1895M5.22967 48.2938L6.49946 47.4965M6.49946 47.4965L6.50066 47.4957M6.49946 47.4965L6.4986 47.4951M6.49946 47.4965L5.09312 48.0147M6.49946 47.4965L6.50153 47.4963M6.49946 47.4965L6.49964 47.4953M6.50066 47.4957L6.50173 47.4951M6.50066 47.4957L6.4986 47.4951M6.50173 47.4951L7.77033 46.6985M6.50173 47.4951L7.93595 47.9311M6.50173 47.4951L6.73319 46.0127M6.4986 47.4951L5.70181 46.2261M6.4986 47.4951L5.06513 47.0603M6.50153 47.4963L6.50271 47.4959M6.50153 47.4963L6.49964 47.4953M6.50271 47.4959L7.90847 46.9785M6.50271 47.4959L7.81597 48.2187M6.50271 47.4959L7.0353 46.0933M6.49964 47.4953L5.98208 46.0891M6.49964 47.4953L5.18687 46.7738" stroke="black" stroke-width="10" stroke-linecap="round" stroke-linejoin="round"/>
<path d="M5 88.5H6.49937M6.49937 88.5H6.50078M6.49937 88.5V88.5031M6.49937 88.5V88.4984M6.49937 88.5L5.03233 88.1906M6.50078 88.5H6.50204M6.50078 88.5L6.49937 88.4984M6.50078 88.5L7.29712 89.7668M6.50078 88.5L6.49946 88.4965M6.50078 88.5L6.50173 88.4951M6.50078 88.5L6.27036 89.9768M6.50078 88.5L7.01833 89.9045M6.50078 88.5L6.50271 88.4959M6.50078 88.5L5.97034 89.8979M6.50204 88.5H8M6.50204 88.5L7.48479 89.632M6.50204 88.5L7.48633 87.3677M6.50204 88.5L6.49937 88.5031M6.50204 88.5L7.96767 88.8101M6.50204 88.5L7.2298 89.8113M6.50204 88.5L7.69889 87.5962M6.49937 90V88.5031M6.49937 88.5031L5.51815 89.6318M6.49937 88.5031L6.18962 89.9679M6.49937 88.5031L5.30558 89.4051M6.49937 88.4984V87M6.49937 88.4984L5.51661 87.3678M6.49937 88.4984L6.80914 87.0326M6.49937 88.4984L5.77161 87.1895M5.22967 89.2938L6.49946 88.4965M6.49946 88.4965L6.50066 88.4957M6.49946 88.4965L6.4986 88.4951M6.49946 88.4965L5.09312 89.0147M6.49946 88.4965L6.50153 88.4963M6.49946 88.4965L6.49964 88.4953M6.50066 88.4957L6.50173 88.4951M6.50066 88.4957L6.4986 88.4951M6.50173 88.4951L7.77033 87.6985M6.50173 88.4951L7.93595 88.9311M6.50173 88.4951L6.73319 87.0127M6.4986 88.4951L5.70181 87.2261M6.4986 88.4951L5.06513 88.0603M6.50153 88.4963L6.50271 88.4959M6.50153 88.4963L6.49964 88.4953M6.50271 88.4959L7.90847 87.9785M6.50271 88.4959L7.81597 89.2187M6.50271 88.4959L7.0353 87.0933M6.49964 88.4953L5.98208 87.0891M6.49964 88.4953L5.18687 87.7738" stroke="black" stroke-width="10" stroke-linecap="round" stroke-linejoin="round"/>
<path d="M39 6.00305L126 6.00305" stroke="black" stroke-width="10" stroke-linecap="round" stroke-linejoin="round"/>
<path d="M39 47.0031H126" stroke="black" stroke-width="10" stroke-linecap="round" stroke-linejoin="round"/>
<path d="M39 88.0032L126 88.0032" stroke="black" stroke-width="10" stroke-linecap="round" stroke-linejoin="round"/>
</svg>
