<svg width="121" height="121" viewBox="0 0 121 121" fill="none" xmlns="http://www.w3.org/2000/svg">
<path d="M96 5H25C13.9543 5 5 13.9543 5 25V96C5 107.046 13.9543 116 25 116H96C107.046 116 116 107.046 116 96V25C116 13.9543 107.046 5 96 5Z" stroke="black" stroke-width="10" stroke-linecap="round" stroke-linejoin="round"/>
<path d="M58 44L95 44" stroke="black" stroke-width="10" stroke-linecap="round" stroke-linejoin="round"/>
<path d="M26 43.9677L29.0649 47.336C29.8708 48.2216 31.2691 48.2054 32.0543 47.3013L41 37" stroke="black" stroke-width="7" stroke-linecap="round" stroke-linejoin="round"/>
<path d="M58 79L95 79" stroke="black" stroke-width="10" stroke-linecap="round" stroke-linejoin="round"/>
<path d="M26 78.9677L29.0649 82.336C29.8708 83.2216 31.2691 83.2054 32.0543 82.3013L41 72" stroke="black" stroke-width="7" stroke-linecap="round" stroke-linejoin="round"/>
</svg>
