<svg width="24" height="26" viewBox="0 0 38 26" fill="none" xmlns="http://www.w3.org/2000/svg">
<path d="M3 13.058L2.15593 11.9411C1.8058 12.2057 1.6 12.6192 1.6 13.058C1.6 13.4969 1.8058 13.9104 2.15593 14.175L3 13.058ZM12.4815 5.8929L11.7248 4.71501L11.6799 4.74382L11.6374 4.77596L12.4815 5.8929ZM12.4815 20.2232L11.6374 21.3401L11.6799 21.3723L11.7248 21.4011L12.4815 20.2232ZM35 13.058L35.837 14.1803C36.1913 13.9161 36.4 13.5 36.4 13.058C36.4 12.6161 36.1913 12.2 35.837 11.9358L35 13.058ZM25.3928 5.8929L26.2298 4.77064L26.1906 4.74142L26.1495 4.71501L25.3928 5.8929ZM25.3928 20.2232L26.1495 21.4011L26.1906 21.3747L26.2298 21.3454L25.3928 20.2232ZM3.84407 14.175L13.3255 7.00983L11.6374 4.77596L2.15593 11.9411L3.84407 14.175ZM13.3255 19.1063L3.84407 11.9411L2.15593 14.175L11.6374 21.3401L13.3255 19.1063ZM35.837 11.9358L26.2298 4.77064L24.5558 7.01515L34.163 14.1803L35.837 11.9358ZM26.2298 21.3454L35.837 14.1803L34.163 11.9358L24.5558 19.1009L26.2298 21.3454ZM18.9371 5.45804C21.1021 5.45804 23.0754 6.06817 24.6361 7.07079L26.1495 4.71501C24.1258 3.41501 21.6249 2.65804 18.9371 2.65804V5.45804ZM24.6361 19.0453C23.0754 20.0479 21.1021 20.658 18.9371 20.658V23.458C21.6249 23.458 24.1258 22.7011 26.1495 21.4011L24.6361 19.0453ZM13.2382 7.07079C14.7989 6.06817 16.7722 5.45804 18.9371 5.45804V2.65804C16.2494 2.65804 13.7484 3.415 11.7248 4.71501L13.2382 7.07079ZM18.9371 20.658C16.7722 20.658 14.7989 20.0479 13.2382 19.0453L11.7248 21.4011C13.7484 22.7011 16.2494 23.458 18.9371 23.458V20.658ZM23.5259 13.058C23.5259 15.615 21.4832 17.658 19 17.658V20.458C23.0623 20.458 26.3259 17.1285 26.3259 13.058H23.5259ZM19 17.658C16.5167 17.658 14.474 15.615 14.474 13.058H11.674C11.674 17.1285 14.9376 20.458 19 20.458V17.658ZM14.474 13.058C14.474 10.5011 16.5167 8.45804 19 8.45804V5.65804C14.9376 5.65804 11.674 8.98758 11.674 13.058H14.474ZM19 8.45804C21.4832 8.45804 23.5259 10.5011 23.5259 13.058H26.3259C26.3259 8.98758 23.0623 5.65804 19 5.65804V8.45804ZM19.3778 13.118C19.3778 13.3885 19.1658 13.578 18.9408 13.578V16.378C20.7449 16.378 22.1778 14.902 22.1778 13.118H19.3778ZM18.9408 13.578C18.7158 13.578 18.5038 13.3885 18.5038 13.118H15.7038C15.7038 14.902 17.1367 16.378 18.9408 16.378V13.578ZM18.5038 13.118C18.5038 12.8475 18.7158 12.658 18.9408 12.658V9.85803C17.1367 9.85803 15.7038 11.334 15.7038 13.118H18.5038ZM18.9408 12.658C19.1658 12.658 19.3778 12.8475 19.3778 13.118H22.1778C22.1778 11.334 20.7449 9.85803 18.9408 9.85803V12.658Z" fill="#000000"/>
</svg>
