<svg width="223" height="153" viewBox="0 0 223 153" fill="none" xmlns="http://www.w3.org/2000/svg">
<path d="M153.077 117.967L153.464 117.689C155.643 116.128 157.377 114.022 158.496 111.58L199.247 27.5618C202.834 19.7305 199.466 10.45 191.694 6.75236C183.734 2.96524 174.239 6.48697 170.664 14.5526L130.435 99.41C129.382 101.785 128.955 104.392 129.195 106.981M153.077 117.967C143.575 124.776 130.276 118.659 129.195 106.981M153.077 117.967L132.985 130.19M129.195 106.981L131.657 130.509M163.98 29.6286L192.661 41.938" stroke="black" stroke-width="10" stroke-linecap="round" stroke-linejoin="round"/>
<path d="M4 149C18.2979 144.693 25.1276 141.39 36 134.5C46.3143 127.58 51.545 123.55 59.5 116C68.644 106.812 74 99.5 78 93C82 86.5 85.4612 81.7794 88 71C88.4968 67.0253 87.5126 62.557 82.5945 60.5383C82.5326 60.5129 82.4664 60.4937 82.4004 60.4825C76.934 59.5568 71.5093 64.2361 69 68C66 72.5 62.8188 77.4081 61 87C59.5108 97.0667 59.5 99.5001 59.5 107.5C59.777 114.723 60.5 118 62.5 124C64.3333 129.5 65.5 131.5 67 134C68.5 136 69.5 138.5 73 139.5C78 140.929 82.607 138.173 89 132.5C91.7743 130.038 93.7587 127.756 96.3782 127.032C96.4588 127.01 96.5437 127 96.6272 127.001C99.5284 127.057 100.507 129.029 101 131L101.659 134.622C101.803 135.416 102.779 135.721 103.35 135.15L107.423 131.077C107.474 131.026 107.532 130.98 107.593 130.941C109.824 129.539 111.019 129.648 113 131C116 133.047 117.88 134.974 120.5 136.5C123.12 138.026 127.513 136.005 131.5 133" stroke="black" stroke-width="7" stroke-linecap="round"/>
</svg>
