<svg width="121" height="116" viewBox="0 0 121 116" fill="none" xmlns="http://www.w3.org/2000/svg">
<path d="M88.5069 84.9692C96.0829 76.4804 100.69 65.2705 100.69 52.9815C100.69 26.4821 79.2688 5 52.8448 5C26.4209 5 5 26.4821 5 52.9815C5 79.481 26.4209 100.963 52.8448 100.963C67.0149 100.963 79.7462 94.7855 88.5069 84.9692ZM88.5069 84.9692L116 111" stroke="black" stroke-width="10" stroke-linecap="round"/>
<path d="M43.6716 30H32C30.8954 30 30 30.8954 30 32V43.6716C30 45.4534 32.1543 46.3457 33.4142 45.0858L45.0858 33.4142C46.3457 32.1543 45.4534 30 43.6716 30Z" fill="black" stroke="black"/>
<path d="M61.8284 30H73.5C74.6046 30 75.5 30.8954 75.5 32V43.6716C75.5 45.4534 73.3457 46.3457 72.0858 45.0858L60.4142 33.4142C59.1543 32.1543 60.0466 30 61.8284 30Z" fill="black" stroke="black"/>
<path d="M43.6716 76.5H32C30.8954 76.5 30 75.6046 30 74.5V62.8284C30 61.0466 32.1543 60.1543 33.4142 61.4142L45.0858 73.0858C46.3457 74.3457 45.4534 76.5 43.6716 76.5Z" fill="black" stroke="black"/>
<path d="M61 73H71C72.1046 73 73 72.1046 73 71V61" stroke="black" stroke-width="7" stroke-linecap="round"/>
</svg>
