<svg width="372" height="387" viewBox="0 0 372 387" fill="none" xmlns="http://www.w3.org/2000/svg">
<path d="M308.7 164.66C308.7 164.66 312.17 152.91 323.94 128.05C340.05 94.05 316.89 55.79 271 35.84C217.2 12.47 148 21.18 98.09 35.46C56.83 47.28 39.78 78.14 32.36 108.9C28.59 124.49 27.88 140.43 25.5 156.23C22.34 177.29 15.44 198.68 9.40004 219.31C2.11004 244.23 -5.12997 272.37 5.17003 299.31C36.9 382.17 211.26 385.75 279.87 347.4C318.66 325.73 332.95 293.86 319.87 256.67C310.16 229.12 300.74 191.52 308.7 164.66Z" fill="#EDE9F2"/>
<path opacity="0.3" d="M265.92 92.19C266.075 92.2127 266.233 92.1987 266.381 92.1492C266.529 92.0998 266.664 92.0162 266.774 91.9052C266.884 91.7942 266.967 91.6589 267.016 91.5102C267.064 91.3615 267.077 91.2035 267.053 91.0489C267.029 90.8943 266.97 90.7474 266.879 90.6201C266.788 90.4927 266.669 90.3884 266.53 90.3156C266.392 90.2428 266.238 90.2034 266.082 90.2007C265.926 90.198 265.771 90.232 265.63 90.3L261.84 90.89L261.73 90.17L265.52 89.58C265.713 89.487 265.87 89.3346 265.97 89.1452C266.07 88.9558 266.106 88.7394 266.074 88.5278C266.041 88.3163 265.942 88.1207 265.79 87.9699C265.638 87.8191 265.442 87.721 265.23 87.69L261.43 88.29L260.62 83.06L249.24 72.78L100.17 346.78L111.59 354.5L298.33 325.4L296.25 312L300.04 311.41C300.196 311.435 300.355 311.423 300.505 311.375C300.656 311.327 300.792 311.244 300.904 311.133C301.016 311.022 301.101 310.886 301.15 310.736C301.199 310.586 301.213 310.426 301.188 310.271C301.164 310.115 301.104 309.967 301.012 309.838C300.919 309.71 300.798 309.606 300.658 309.534C300.518 309.462 300.362 309.424 300.204 309.423C300.047 309.422 299.891 309.459 299.75 309.53L295.95 310.12L295.84 309.39L299.64 308.8C299.763 308.782 299.881 308.739 299.988 308.675C300.094 308.611 300.187 308.526 300.261 308.425C300.334 308.325 300.387 308.211 300.416 308.09C300.445 307.969 300.45 307.843 300.43 307.72C300.381 307.474 300.242 307.256 300.041 307.108C299.839 306.96 299.589 306.893 299.34 306.92L295.55 307.51L294.45 300.46L298.25 299.87C298.434 299.776 298.585 299.627 298.681 299.444C298.778 299.26 298.815 299.052 298.787 298.846C298.76 298.641 298.669 298.45 298.528 298.298C298.387 298.146 298.203 298.042 298 298L294.21 298.59L294.1 297.87L297.89 297.28C298.083 297.187 298.24 297.035 298.34 296.845C298.44 296.656 298.476 296.439 298.444 296.228C298.411 296.016 298.312 295.821 298.16 295.67C298.008 295.519 297.812 295.421 297.6 295.39L293.8 295.98L292.71 288.98L296.5 288.38C296.624 288.363 296.743 288.321 296.85 288.257C296.957 288.193 297.05 288.109 297.124 288.008C297.198 287.907 297.251 287.792 297.279 287.671C297.308 287.549 297.311 287.423 297.29 287.3C297.241 287.056 297.104 286.839 296.904 286.692C296.705 286.544 296.457 286.475 296.21 286.5L292.41 287.09L292.3 286.37L296.09 285.78C296.283 285.687 296.44 285.535 296.54 285.345C296.64 285.156 296.676 284.939 296.644 284.728C296.611 284.516 296.512 284.321 296.36 284.17C296.208 284.019 296.012 283.921 295.8 283.89L292.01 284.48L290.91 277.48L294.7 276.89C294.893 276.797 295.05 276.645 295.15 276.455C295.25 276.266 295.286 276.049 295.254 275.838C295.221 275.626 295.122 275.431 294.97 275.28C294.818 275.129 294.622 275.031 294.41 275L290.62 275.59L290.5 274.87L294.3 274.28C294.544 274.229 294.76 274.089 294.906 273.888C295.052 273.686 295.118 273.437 295.09 273.19C295.073 273.066 295.031 272.947 294.967 272.84C294.903 272.733 294.818 272.64 294.718 272.566C294.617 272.492 294.502 272.439 294.381 272.411C294.259 272.382 294.133 272.379 294.01 272.4L290.21 272.99L289.12 265.99L292.91 265.4C293.154 265.349 293.37 265.209 293.516 265.008C293.662 264.806 293.728 264.557 293.7 264.31C293.683 264.186 293.641 264.067 293.577 263.96C293.513 263.853 293.428 263.76 293.328 263.686C293.227 263.612 293.112 263.559 292.991 263.531C292.869 263.502 292.743 263.499 292.62 263.52L288.82 264.11L288.71 263.38L292.5 262.79C292.656 262.815 292.815 262.803 292.965 262.755C293.116 262.707 293.252 262.624 293.364 262.513C293.476 262.402 293.561 262.266 293.61 262.116C293.659 261.966 293.673 261.806 293.648 261.65C293.624 261.495 293.564 261.347 293.472 261.218C293.379 261.09 293.258 260.986 293.118 260.914C292.978 260.842 292.822 260.804 292.664 260.803C292.507 260.802 292.351 260.839 292.21 260.91L288.42 261.5L287.32 254.45L291.11 253.86C291.266 253.885 291.425 253.873 291.575 253.825C291.726 253.777 291.862 253.694 291.974 253.583C292.086 253.472 292.171 253.336 292.22 253.186C292.269 253.036 292.282 252.876 292.258 252.72C292.234 252.565 292.174 252.417 292.082 252.288C291.989 252.16 291.868 252.056 291.728 251.984C291.588 251.912 291.432 251.874 291.274 251.873C291.117 251.872 290.961 251.909 290.82 251.98L287.03 252.57L286.91 251.84L290.71 251.25C290.866 251.274 291.025 251.261 291.175 251.212C291.324 251.163 291.46 251.079 291.571 250.967C291.683 250.855 291.766 250.719 291.814 250.569C291.863 250.419 291.875 250.26 291.85 250.104C291.825 249.949 291.764 249.801 291.671 249.674C291.579 249.546 291.457 249.442 291.317 249.371C291.176 249.299 291.021 249.262 290.863 249.262C290.706 249.262 290.55 249.299 290.41 249.37L286.62 249.96L285.52 242.91L289.32 242.32C289.476 242.344 289.635 242.331 289.785 242.282C289.934 242.233 290.07 242.149 290.181 242.037C290.293 241.925 290.376 241.789 290.424 241.639C290.473 241.489 290.485 241.33 290.46 241.174C290.435 241.019 290.374 240.871 290.281 240.744C290.189 240.616 290.067 240.512 289.927 240.441C289.786 240.369 289.631 240.332 289.473 240.332C289.316 240.332 289.16 240.369 289.02 240.44L285.23 241.03L285.12 240.3L288.91 239.71C289.154 239.662 289.371 239.524 289.518 239.324C289.666 239.125 289.735 238.877 289.71 238.63C289.661 238.384 289.522 238.166 289.321 238.018C289.119 237.87 288.869 237.803 288.62 237.83L284.82 238.42L283.73 231.42L287.52 230.83C287.764 230.782 287.981 230.644 288.128 230.444C288.276 230.245 288.345 229.997 288.32 229.75C288.271 229.504 288.132 229.286 287.931 229.138C287.729 228.99 287.479 228.923 287.23 228.95L283.44 229.54L283.32 228.82L287.12 228.23C287.313 228.136 287.47 227.983 287.57 227.793C287.669 227.603 287.704 227.386 287.671 227.174C287.637 226.962 287.536 226.767 287.383 226.616C287.23 226.466 287.032 226.369 286.82 226.34L283.03 226.93L281.93 219.93L285.73 219.34C285.923 219.246 286.08 219.093 286.18 218.903C286.279 218.713 286.314 218.496 286.281 218.284C286.247 218.072 286.146 217.877 285.993 217.726C285.84 217.576 285.642 217.479 285.43 217.45L281.64 218.04L281.53 217.32L285.32 216.73C285.513 216.637 285.67 216.485 285.77 216.295C285.87 216.106 285.906 215.889 285.874 215.678C285.841 215.466 285.742 215.271 285.59 215.12C285.438 214.969 285.242 214.871 285.03 214.84L281.23 215.44L280.14 208.44L283.93 207.85C284.123 207.757 284.28 207.605 284.38 207.415C284.48 207.226 284.516 207.009 284.484 206.798C284.451 206.586 284.352 206.391 284.2 206.24C284.048 206.089 283.852 205.991 283.64 205.96L279.84 206.55L279.73 205.83L283.52 205.24C283.676 205.265 283.835 205.253 283.985 205.205C284.136 205.157 284.272 205.074 284.384 204.963C284.496 204.852 284.581 204.716 284.63 204.566C284.679 204.416 284.692 204.256 284.668 204.1C284.644 203.945 284.584 203.796 284.492 203.668C284.399 203.54 284.278 203.436 284.138 203.364C283.998 203.292 283.842 203.254 283.684 203.253C283.527 203.252 283.371 203.289 283.23 203.36L279.44 203.95L278.34 196.9L282.13 196.31C282.286 196.335 282.445 196.323 282.595 196.275C282.746 196.227 282.882 196.144 282.994 196.033C283.106 195.922 283.191 195.786 283.24 195.636C283.289 195.486 283.303 195.326 283.278 195.171C283.254 195.015 283.194 194.866 283.102 194.738C283.009 194.61 282.888 194.506 282.748 194.434C282.608 194.362 282.452 194.324 282.294 194.323C282.137 194.322 281.981 194.359 281.84 194.43L278.05 195.02L277.94 194.29L281.73 193.7C281.919 193.605 282.072 193.453 282.169 193.265C282.266 193.077 282.3 192.863 282.268 192.655C282.236 192.446 282.138 192.253 281.99 192.103C281.841 191.953 281.648 191.854 281.44 191.82L277.64 192.41L276.55 185.41L280.34 184.82C280.529 184.725 280.682 184.573 280.779 184.385C280.875 184.197 280.91 183.983 280.878 183.775C280.846 183.566 280.748 183.373 280.6 183.223C280.451 183.073 280.258 182.974 280.05 182.94L276.25 183.53L276.14 182.8L279.93 182.21C280.174 182.162 280.391 182.024 280.538 181.824C280.686 181.625 280.755 181.377 280.73 181.13C280.681 180.884 280.542 180.666 280.341 180.518C280.139 180.37 279.889 180.303 279.64 180.33L275.85 180.92L274.75 173.87L278.54 173.28C278.696 173.305 278.855 173.293 279.005 173.245C279.156 173.197 279.292 173.114 279.404 173.003C279.516 172.892 279.601 172.756 279.65 172.606C279.699 172.456 279.713 172.296 279.688 172.141C279.664 171.985 279.604 171.837 279.512 171.708C279.419 171.58 279.298 171.476 279.158 171.404C279.018 171.332 278.862 171.294 278.704 171.293C278.547 171.292 278.391 171.329 278.25 171.4L274.46 171.99L274.34 171.27L278.14 170.68C278.333 170.586 278.49 170.433 278.59 170.243C278.689 170.053 278.724 169.836 278.691 169.624C278.657 169.412 278.556 169.217 278.403 169.066C278.25 168.916 278.052 168.819 277.84 168.79L274.05 169.38L272.95 162.38L276.75 161.78C276.939 161.685 277.092 161.533 277.189 161.345C277.285 161.157 277.32 160.943 277.288 160.735C277.256 160.526 277.158 160.333 277.01 160.183C276.861 160.033 276.668 159.934 276.46 159.9L272.66 160.49L272.55 159.77L276.34 159.18C276.533 159.087 276.69 158.935 276.79 158.745C276.89 158.556 276.926 158.339 276.894 158.128C276.861 157.916 276.762 157.721 276.61 157.57C276.458 157.419 276.262 157.321 276.05 157.29L272.26 157.88L271.16 150.88L274.95 150.29C275.105 150.313 275.263 150.299 275.411 150.249C275.559 150.2 275.694 150.116 275.804 150.005C275.914 149.894 275.997 149.759 276.046 149.61C276.094 149.462 276.107 149.303 276.083 149.149C276.059 148.994 276 148.847 275.909 148.72C275.818 148.593 275.699 148.488 275.56 148.416C275.422 148.343 275.268 148.303 275.112 148.301C274.956 148.298 274.801 148.332 274.66 148.4L270.87 148.99L270.75 148.27L274.55 147.68C274.706 147.704 274.865 147.691 275.015 147.642C275.164 147.593 275.3 147.509 275.411 147.397C275.523 147.285 275.606 147.149 275.654 146.999C275.703 146.849 275.715 146.69 275.69 146.534C275.665 146.379 275.604 146.231 275.511 146.104C275.419 145.976 275.297 145.872 275.157 145.801C275.016 145.729 274.861 145.692 274.703 145.692C274.546 145.692 274.39 145.729 274.25 145.8L270.46 146.39L269.36 139.39L273.16 138.8C273.349 138.704 273.502 138.551 273.598 138.362C273.694 138.174 273.728 137.96 273.695 137.751C273.661 137.542 273.563 137.349 273.413 137.199C273.263 137.05 273.069 136.952 272.86 136.92L269.07 137.51L268.96 136.78L272.75 136.19C272.906 136.215 273.065 136.203 273.215 136.155C273.366 136.107 273.502 136.024 273.614 135.913C273.726 135.802 273.811 135.666 273.86 135.516C273.909 135.366 273.923 135.206 273.898 135.05C273.874 134.895 273.814 134.747 273.722 134.618C273.629 134.49 273.508 134.386 273.368 134.314C273.228 134.242 273.072 134.204 272.914 134.203C272.757 134.202 272.601 134.239 272.46 134.31L268.66 134.9L267.57 127.85L271.36 127.26C271.516 127.285 271.675 127.273 271.825 127.225C271.976 127.177 272.112 127.094 272.224 126.983C272.336 126.872 272.421 126.736 272.47 126.586C272.519 126.436 272.532 126.276 272.508 126.12C272.484 125.965 272.424 125.817 272.332 125.688C272.239 125.56 272.118 125.456 271.978 125.384C271.838 125.312 271.682 125.274 271.524 125.273C271.367 125.272 271.211 125.309 271.07 125.38L267.27 125.97L267.16 125.24L270.96 124.65C271.149 124.554 271.302 124.401 271.398 124.212C271.494 124.024 271.528 123.81 271.495 123.601C271.461 123.392 271.363 123.199 271.213 123.049C271.063 122.9 270.869 122.802 270.66 122.77L266.87 123.36L265.77 116.31L269.57 115.72C269.759 115.624 269.912 115.471 270.008 115.282C270.104 115.094 270.138 114.88 270.105 114.671C270.071 114.462 269.973 114.269 269.823 114.119C269.673 113.97 269.479 113.872 269.27 113.84L265.48 114.43L265.37 113.7L269.16 113.11C269.404 113.062 269.621 112.924 269.768 112.724C269.916 112.525 269.985 112.277 269.96 112.03C269.911 111.784 269.772 111.566 269.571 111.418C269.369 111.27 269.119 111.203 268.87 111.23L265.07 111.82L263.98 104.77L267.77 104.18C268.014 104.132 268.231 103.994 268.378 103.794C268.526 103.595 268.595 103.347 268.57 103.1C268.521 102.854 268.382 102.636 268.181 102.488C267.979 102.34 267.729 102.273 267.48 102.3L263.68 102.89L263.57 102.17L267.36 101.58C267.553 101.487 267.71 101.335 267.81 101.145C267.91 100.956 267.946 100.739 267.914 100.528C267.881 100.316 267.782 100.121 267.63 99.9699C267.478 99.8191 267.282 99.721 267.07 99.69L263.28 100.28L262.18 93.28L265.92 92.19Z" fill="black"/>
<path d="M106.2 349.39L279.35 322.45L240.71 74.1001L67.5499 101.1C66.4999 101.263 65.4924 101.632 64.5849 102.185C63.6773 102.738 62.8876 103.464 62.2608 104.322C61.634 105.18 61.1823 106.153 60.9317 107.186C60.681 108.218 60.6362 109.29 60.7999 110.34L96.9999 342.64C97.3277 344.754 98.4802 346.651 100.205 347.917C101.929 349.182 104.085 349.712 106.2 349.39Z" fill="#263238" stroke="#263238" stroke-miterlimit="10" stroke-linecap="round"/>
<path d="M109.415 340.709L99.5343 342.247C98.8399 342.356 98.1309 342.183 97.5634 341.769C96.9959 341.354 96.6163 340.731 96.5082 340.037L93.0312 317.706C92.9231 317.011 93.0953 316.302 93.5099 315.735C93.9245 315.167 94.5475 314.788 95.242 314.68L105.123 313.141L109.415 340.709Z" fill="white" stroke="#263238" stroke-miterlimit="10" stroke-linecap="round"/>
<path d="M104.912 311.73L95.0307 313.268C94.3362 313.377 93.6273 313.204 93.0597 312.79C92.4922 312.375 92.1127 311.752 92.0045 311.058L88.5276 288.727C88.4194 288.032 88.5916 287.323 89.0062 286.756C89.4208 286.188 90.0439 285.809 90.7383 285.701L100.619 284.162L104.912 311.73Z" fill="#CCA9D2" stroke="#263238" stroke-miterlimit="10" stroke-linecap="round"/>
<path d="M100.39 282.702L90.5094 284.24C89.815 284.348 89.106 284.176 88.5385 283.762C87.971 283.347 87.5914 282.724 87.4833 282.029L84.0063 259.698C83.8982 259.004 84.0704 258.295 84.485 257.728C84.8996 257.16 85.5226 256.78 86.2171 256.672L96.098 255.134L100.39 282.702Z" fill="white" stroke="#263238" stroke-miterlimit="10" stroke-linecap="round"/>
<path d="M95.8884 253.733L86.0075 255.271C85.313 255.379 84.6041 255.207 84.0365 254.792C83.469 254.378 83.0895 253.755 82.9813 253.06L79.5044 230.729C79.3962 230.035 79.5684 229.326 79.983 228.758C80.3976 228.191 81.0207 227.811 81.7151 227.703L91.5961 226.165L95.8884 253.733Z" fill="#CCA9D2" stroke="#263238" stroke-miterlimit="10" stroke-linecap="round"/>
<path d="M77.2398 198.72L83.1498 197.8L68.0798 101L249.24 72.8101L287.88 321.15L106.73 349.31L87.4398 225.37L81.5298 226.29C80.8392 226.393 80.1357 226.219 79.5734 225.805C79.0111 225.39 78.6359 224.77 78.5298 224.08L74.9998 201.75C74.946 201.404 74.9614 201.05 75.0451 200.71C75.1288 200.37 75.2791 200.049 75.4874 199.768C75.6958 199.486 75.9579 199.248 76.2587 199.068C76.5595 198.888 76.893 198.77 77.2398 198.72Z" fill="white" stroke="#263238" stroke-miterlimit="10" stroke-linecap="round"/>
<path d="M96.6099 153.88L97.2099 167.45L164.81 156.42L163.04 145.06L96.6099 153.88Z" fill="#CCA9D2"/>
<path d="M239.17 88C239.27 88.6952 239.574 89.345 240.045 89.8666C240.515 90.3883 241.13 90.7583 241.811 90.9295C242.492 91.1008 243.209 91.0656 243.87 90.8284C244.531 90.5913 245.106 90.1628 245.523 89.5976C245.94 89.0323 246.179 88.3559 246.211 87.6543C246.242 86.9527 246.064 86.2576 245.699 85.6575C245.334 85.0573 244.799 84.5793 244.162 84.2842C243.524 83.989 242.814 83.8901 242.12 84C241.201 84.1456 240.377 84.6468 239.825 85.3953C239.273 86.1438 239.038 87.0795 239.17 88Z" fill="#263238" stroke="#263238" stroke-miterlimit="10" stroke-linecap="round"/>
<path d="M243 86.9001L253.58 85.2501C253.824 85.1993 254.04 85.0595 254.186 84.8579C254.332 84.6563 254.398 84.4075 254.37 84.1601C254.319 83.9163 254.179 83.7003 253.978 83.5542C253.776 83.4081 253.527 83.3424 253.28 83.3701L242.74 85.0001C242.494 85.0487 242.276 85.1876 242.128 85.3894C241.98 85.5912 241.913 85.8412 241.94 86.0901C241.986 86.3319 242.12 86.5482 242.315 86.6977C242.511 86.8471 242.755 86.9192 243 86.9001Z" fill="white" stroke="#263238" stroke-miterlimit="10" stroke-linecap="round"/>
<path d="M243.44 89.5001L254 87.8601C254.246 87.8115 254.464 87.6726 254.612 87.4708C254.76 87.2689 254.827 87.0189 254.8 86.7701C254.751 86.5245 254.612 86.3061 254.411 86.1579C254.209 86.0098 253.959 85.9428 253.71 85.9701L243.13 87.6201C242.886 87.6708 242.67 87.8107 242.524 88.0122C242.378 88.2138 242.312 88.4627 242.34 88.7101C242.391 88.9557 242.532 89.1733 242.736 89.3196C242.94 89.466 243.191 89.5304 243.44 89.5001Z" fill="white" stroke="#263238" stroke-miterlimit="10" stroke-linecap="round"/>
<path d="M241 99.53C241.098 100.224 241.4 100.872 241.867 101.394C242.334 101.917 242.946 102.288 243.624 102.462C244.303 102.637 245.018 102.606 245.678 102.374C246.339 102.141 246.917 101.718 247.337 101.158C247.757 100.597 248.002 99.9248 248.04 99.2253C248.078 98.5258 247.907 97.8308 247.55 97.2282C247.193 96.6257 246.664 96.1427 246.033 95.8404C245.401 95.5381 244.693 95.43 244 95.53C243.072 95.6637 242.235 96.1599 241.673 96.9098C241.11 97.6596 240.868 98.6019 241 99.53Z" fill="#263238" stroke="#263238" stroke-miterlimit="10" stroke-linecap="round"/>
<path d="M244.83 98.43L255.4 96.79C255.645 96.7414 255.864 96.6025 256.012 96.4007C256.16 96.1989 256.227 95.9489 256.2 95.7C256.151 95.4544 256.012 95.236 255.811 95.0879C255.609 94.9398 255.359 94.8727 255.11 94.9L244.53 96.55C244.286 96.6008 244.07 96.7406 243.924 96.9422C243.778 97.1438 243.712 97.3926 243.74 97.64C243.791 97.8837 243.93 98.0998 244.132 98.2459C244.334 98.392 244.582 98.4576 244.83 98.43Z" fill="white" stroke="#263238" stroke-miterlimit="10" stroke-linecap="round"/>
<path d="M245.23 101L255.81 99.3601C256.054 99.3093 256.27 99.1695 256.416 98.9679C256.562 98.7663 256.628 98.5175 256.6 98.2701C256.551 98.0245 256.412 97.8061 256.211 97.6579C256.009 97.5098 255.759 97.4428 255.51 97.4701L244.94 99.1201C244.694 99.1686 244.476 99.3076 244.328 99.5094C244.18 99.7112 244.113 99.9612 244.14 100.21C244.191 100.454 244.331 100.67 244.532 100.816C244.734 100.962 244.983 101.028 245.23 101Z" fill="white" stroke="#263238" stroke-miterlimit="10" stroke-linecap="round"/>
<path d="M242.76 111.07C242.86 111.765 243.164 112.415 243.634 112.937C244.105 113.458 244.719 113.828 245.401 113.999C246.082 114.171 246.798 114.136 247.459 113.898C248.12 113.661 248.696 113.233 249.113 112.668C249.53 112.102 249.769 111.426 249.8 110.724C249.832 110.023 249.654 109.328 249.289 108.727C248.924 108.127 248.389 107.649 247.752 107.354C247.114 107.059 246.404 106.96 245.71 107.07C244.791 107.216 243.967 107.717 243.415 108.465C242.863 109.214 242.628 110.149 242.76 111.07Z" fill="#263238" stroke="#263238" stroke-miterlimit="10" stroke-linecap="round"/>
<path d="M246.62 110L257.2 108.36C257.444 108.309 257.66 108.169 257.806 107.968C257.952 107.766 258.018 107.517 257.99 107.27C257.941 107.024 257.802 106.806 257.601 106.658C257.399 106.51 257.149 106.443 256.9 106.47L246.33 108.12C246.084 108.169 245.866 108.308 245.718 108.509C245.57 108.711 245.503 108.961 245.53 109.21C245.581 109.454 245.72 109.67 245.922 109.816C246.124 109.962 246.372 110.028 246.62 110Z" fill="white" stroke="#263238" stroke-miterlimit="10" stroke-linecap="round"/>
<path d="M247 112.58L257.57 110.93C257.814 110.882 258.031 110.744 258.178 110.544C258.326 110.345 258.395 110.097 258.37 109.85C258.321 109.604 258.182 109.386 257.981 109.238C257.779 109.09 257.529 109.023 257.28 109.05L246.71 110.7C246.466 110.748 246.249 110.886 246.101 111.086C245.954 111.285 245.885 111.533 245.91 111.78C245.959 112.026 246.097 112.244 246.299 112.392C246.501 112.54 246.751 112.607 247 112.58Z" fill="white" stroke="#263238" stroke-miterlimit="10" stroke-linecap="round"/>
<path d="M244.55 122.61C244.648 123.304 244.95 123.953 245.417 124.475C245.884 124.997 246.496 125.368 247.174 125.543C247.853 125.717 248.568 125.686 249.229 125.454C249.889 125.221 250.467 124.798 250.887 124.238C251.307 123.677 251.552 123.005 251.59 122.305C251.628 121.606 251.457 120.911 251.1 120.308C250.743 119.706 250.215 119.223 249.583 118.92C248.951 118.618 248.243 118.51 247.55 118.61C246.622 118.744 245.785 119.24 245.223 119.99C244.661 120.74 244.418 121.682 244.55 122.61Z" fill="#263238" stroke="#263238" stroke-miterlimit="10" stroke-linecap="round"/>
<path d="M248.42 121.51L259 119.86C259.244 119.812 259.461 119.674 259.608 119.475C259.756 119.275 259.825 119.027 259.8 118.78C259.751 118.535 259.612 118.316 259.411 118.168C259.209 118.02 258.959 117.953 258.71 117.98L248.13 119.63C248.007 119.648 247.889 119.691 247.782 119.755C247.675 119.82 247.583 119.904 247.509 120.005C247.436 120.105 247.383 120.219 247.354 120.341C247.325 120.462 247.32 120.587 247.34 120.71C247.388 120.954 247.526 121.171 247.726 121.319C247.925 121.466 248.173 121.535 248.42 121.51Z" fill="white" stroke="#263238" stroke-miterlimit="10" stroke-linecap="round"/>
<path d="M248.82 124.12L259.4 122.47C259.524 122.452 259.643 122.409 259.751 122.344C259.858 122.279 259.951 122.193 260.025 122.092C260.098 121.99 260.151 121.875 260.179 121.753C260.208 121.63 260.211 121.504 260.19 121.38C260.172 121.257 260.129 121.139 260.065 121.032C260 120.926 259.915 120.833 259.815 120.759C259.715 120.686 259.6 120.633 259.479 120.604C259.358 120.575 259.233 120.57 259.11 120.59L248.53 122.23C248.286 122.281 248.07 122.421 247.924 122.622C247.778 122.824 247.712 123.073 247.74 123.32C247.788 123.564 247.926 123.781 248.125 123.929C248.325 124.076 248.573 124.145 248.82 124.12Z" fill="white" stroke="#263238" stroke-miterlimit="10" stroke-linecap="round"/>
<path d="M246.35 134.15C246.45 134.845 246.754 135.495 247.225 136.017C247.695 136.538 248.31 136.908 248.991 137.08C249.672 137.251 250.388 137.216 251.05 136.978C251.711 136.741 252.286 136.313 252.703 135.748C253.12 135.182 253.359 134.506 253.39 133.804C253.422 133.103 253.244 132.408 252.879 131.807C252.514 131.207 251.979 130.729 251.342 130.434C250.704 130.139 249.994 130.04 249.3 130.15C248.381 130.296 247.557 130.797 247.005 131.545C246.453 132.294 246.218 133.229 246.35 134.15Z" fill="#263238" stroke="#263238" stroke-miterlimit="10" stroke-linecap="round"/>
<path d="M250.21 133.05L260.79 131.4C261.034 131.349 261.25 131.209 261.396 131.008C261.542 130.806 261.608 130.557 261.58 130.31C261.562 130.187 261.519 130.069 261.455 129.962C261.39 129.855 261.306 129.763 261.205 129.689C261.105 129.616 260.991 129.563 260.869 129.534C260.748 129.505 260.623 129.5 260.5 129.52L249.92 131.16C249.676 131.211 249.46 131.351 249.314 131.552C249.168 131.754 249.102 132.003 249.13 132.25C249.178 132.494 249.316 132.711 249.516 132.858C249.715 133.006 249.963 133.075 250.21 133.05Z" fill="white" stroke="#263238" stroke-miterlimit="10" stroke-linecap="round"/>
<path d="M250.62 135.66L261.19 134C261.435 133.952 261.654 133.813 261.802 133.611C261.95 133.409 262.017 133.159 261.99 132.91C261.939 132.666 261.799 132.45 261.598 132.304C261.396 132.158 261.147 132.092 260.9 132.12L250.33 133.76C250.084 133.809 249.866 133.948 249.718 134.149C249.57 134.351 249.503 134.601 249.53 134.85C249.576 135.098 249.714 135.318 249.916 135.468C250.118 135.619 250.37 135.687 250.62 135.66Z" fill="white" stroke="#263238" stroke-miterlimit="10" stroke-linecap="round"/>
<path d="M248.14 145.69C248.247 146.38 248.556 147.022 249.028 147.537C249.5 148.052 250.113 148.415 250.791 148.582C251.469 148.749 252.181 148.712 252.838 148.475C253.495 148.239 254.067 147.813 254.482 147.252C254.898 146.691 255.138 146.02 255.173 145.322C255.208 144.625 255.036 143.933 254.679 143.333C254.322 142.734 253.795 142.253 253.166 141.952C252.536 141.65 251.831 141.542 251.14 141.64C250.676 141.706 250.229 141.863 249.826 142.103C249.423 142.343 249.072 142.661 248.793 143.038C248.514 143.415 248.312 143.843 248.2 144.298C248.088 144.754 248.068 145.227 248.14 145.69Z" fill="#263238" stroke="#263238" stroke-miterlimit="10" stroke-linecap="round"/>
<path d="M252 144.59L262.57 142.94C262.816 142.891 263.034 142.753 263.182 142.551C263.33 142.349 263.397 142.099 263.37 141.85C263.319 141.606 263.179 141.39 262.978 141.244C262.776 141.098 262.527 141.032 262.28 141.06L251.71 142.7C251.464 142.749 251.246 142.888 251.098 143.089C250.95 143.291 250.883 143.541 250.91 143.79C250.959 144.036 251.098 144.254 251.299 144.402C251.501 144.55 251.751 144.617 252 144.59Z" fill="white" stroke="#263238" stroke-miterlimit="10" stroke-linecap="round"/>
<path d="M252.42 147.19L263 145.55C263.246 145.501 263.464 145.363 263.612 145.161C263.76 144.959 263.827 144.709 263.8 144.46C263.751 144.214 263.612 143.996 263.411 143.848C263.209 143.7 262.959 143.633 262.71 143.66L252.13 145.31C251.886 145.361 251.67 145.501 251.524 145.702C251.378 145.904 251.312 146.153 251.34 146.4C251.391 146.642 251.529 146.856 251.728 147.002C251.928 147.148 252.174 147.215 252.42 147.19Z" fill="white" stroke="#263238" stroke-miterlimit="10" stroke-linecap="round"/>
<path d="M249.94 157.22C250.04 157.915 250.344 158.565 250.814 159.087C251.285 159.608 251.899 159.978 252.581 160.15C253.262 160.321 253.978 160.286 254.639 160.048C255.3 159.811 255.876 159.383 256.293 158.818C256.71 158.252 256.949 157.576 256.98 156.874C257.012 156.173 256.834 155.478 256.469 154.877C256.104 154.277 255.569 153.799 254.931 153.504C254.294 153.209 253.584 153.11 252.89 153.22C251.971 153.366 251.147 153.867 250.595 154.615C250.043 155.364 249.808 156.299 249.94 157.22Z" fill="#263238" stroke="#263238" stroke-miterlimit="10" stroke-linecap="round"/>
<path d="M253.8 156.12L264.38 154.48C264.625 154.431 264.844 154.293 264.992 154.091C265.14 153.889 265.207 153.639 265.18 153.39C265.129 153.146 264.989 152.93 264.788 152.784C264.586 152.638 264.337 152.572 264.09 152.6L253.51 154.24C253.266 154.291 253.05 154.431 252.904 154.632C252.758 154.834 252.692 155.083 252.72 155.33C252.737 155.454 252.778 155.573 252.842 155.68C252.906 155.787 252.991 155.881 253.092 155.954C253.193 156.028 253.308 156.081 253.429 156.109C253.551 156.138 253.677 156.141 253.8 156.12Z" fill="white" stroke="#263238" stroke-miterlimit="10" stroke-linecap="round"/>
<path d="M254.21 158.73L264.79 157.09C265.034 157.039 265.25 156.899 265.396 156.698C265.542 156.496 265.608 156.247 265.58 156C265.531 155.754 265.392 155.536 265.191 155.388C264.989 155.24 264.739 155.173 264.49 155.2L253.92 156.85C253.674 156.899 253.456 157.038 253.308 157.239C253.16 157.441 253.093 157.691 253.12 157.94C253.171 158.184 253.311 158.4 253.512 158.546C253.714 158.692 253.963 158.758 254.21 158.73Z" fill="white" stroke="#263238" stroke-miterlimit="10" stroke-linecap="round"/>
<path d="M251.74 168.76C251.84 169.455 252.144 170.105 252.614 170.627C253.085 171.148 253.699 171.518 254.381 171.69C255.062 171.861 255.778 171.826 256.439 171.588C257.1 171.351 257.676 170.923 258.093 170.358C258.51 169.792 258.749 169.116 258.78 168.414C258.812 167.713 258.634 167.018 258.269 166.417C257.904 165.817 257.369 165.339 256.732 165.044C256.094 164.749 255.384 164.65 254.69 164.76C253.771 164.906 252.947 165.407 252.395 166.155C251.843 166.904 251.608 167.839 251.74 168.76Z" fill="#263238" stroke="#263238" stroke-miterlimit="10" stroke-linecap="round"/>
<path d="M255.6 167.66L266.18 166C266.424 165.949 266.64 165.809 266.786 165.608C266.932 165.406 266.997 165.157 266.97 164.91C266.921 164.664 266.782 164.446 266.581 164.298C266.379 164.15 266.129 164.083 265.88 164.11L255.31 165.76C255.064 165.809 254.846 165.947 254.698 166.149C254.55 166.351 254.483 166.601 254.51 166.85C254.556 167.097 254.694 167.318 254.896 167.468C255.098 167.619 255.35 167.687 255.6 167.66Z" fill="white" stroke="#263238" stroke-miterlimit="10" stroke-linecap="round"/>
<path d="M256 170.27L266.57 168.62C266.814 168.572 267.031 168.434 267.178 168.235C267.326 168.035 267.395 167.787 267.37 167.54C267.321 167.295 267.182 167.076 266.981 166.928C266.779 166.78 266.529 166.713 266.28 166.74L255.7 168.39C255.456 168.441 255.24 168.581 255.094 168.782C254.948 168.984 254.882 169.233 254.91 169.48C254.961 169.724 255.101 169.94 255.302 170.086C255.504 170.232 255.753 170.298 256 170.27Z" fill="white" stroke="#263238" stroke-miterlimit="10" stroke-linecap="round"/>
<path d="M253.53 180.3C253.628 180.994 253.93 181.642 254.397 182.165C254.864 182.687 255.476 183.058 256.154 183.232C256.833 183.407 257.548 183.376 258.209 183.144C258.869 182.911 259.447 182.488 259.867 181.928C260.287 181.367 260.532 180.695 260.57 179.995C260.608 179.296 260.437 178.601 260.08 177.998C259.723 177.396 259.194 176.913 258.563 176.61C257.931 176.308 257.223 176.2 256.53 176.3C255.602 176.434 254.765 176.93 254.203 177.68C253.641 178.43 253.398 179.372 253.53 180.3Z" fill="#263238" stroke="#263238" stroke-miterlimit="10" stroke-linecap="round"/>
<path d="M257.4 179.2L268 177.56C268.246 177.511 268.464 177.373 268.612 177.171C268.76 176.969 268.827 176.719 268.8 176.47C268.751 176.224 268.612 176.006 268.411 175.858C268.209 175.71 267.959 175.643 267.71 175.67L257.13 177.32C256.886 177.371 256.67 177.511 256.524 177.712C256.378 177.914 256.312 178.163 256.34 178.41C256.39 178.648 256.526 178.86 256.721 179.005C256.916 179.151 257.157 179.22 257.4 179.2Z" fill="white" stroke="#263238" stroke-miterlimit="10" stroke-linecap="round"/>
<path d="M257.8 181.81L268.38 180.16C268.624 180.109 268.84 179.969 268.986 179.768C269.132 179.566 269.198 179.317 269.17 179.07C269.119 178.826 268.979 178.61 268.778 178.464C268.576 178.318 268.327 178.252 268.08 178.28L257.51 179.93C257.266 179.978 257.049 180.116 256.902 180.316C256.754 180.515 256.685 180.763 256.71 181.01C256.759 181.256 256.898 181.474 257.099 181.622C257.301 181.77 257.551 181.837 257.8 181.81Z" fill="white" stroke="#263238" stroke-miterlimit="10" stroke-linecap="round"/>
<path d="M255.33 191.84C255.43 192.535 255.734 193.185 256.205 193.707C256.675 194.228 257.29 194.598 257.971 194.77C258.652 194.941 259.368 194.906 260.03 194.668C260.691 194.431 261.266 194.003 261.683 193.438C262.1 192.872 262.339 192.196 262.37 191.494C262.402 190.793 262.224 190.098 261.859 189.497C261.494 188.897 260.959 188.419 260.322 188.124C259.684 187.829 258.974 187.73 258.28 187.84C257.361 187.986 256.537 188.487 255.985 189.235C255.433 189.984 255.198 190.919 255.33 191.84Z" fill="#263238" stroke="#263238" stroke-miterlimit="10" stroke-linecap="round"/>
<path d="M259.19 190.74L269.77 189.09C270.014 189.039 270.23 188.899 270.376 188.698C270.522 188.496 270.588 188.247 270.56 188C270.509 187.756 270.369 187.54 270.168 187.394C269.966 187.248 269.717 187.182 269.47 187.21L258.9 188.86C258.656 188.908 258.439 189.046 258.291 189.246C258.144 189.445 258.075 189.693 258.1 189.94C258.148 190.186 258.287 190.404 258.489 190.552C258.691 190.7 258.941 190.767 259.19 190.74Z" fill="white" stroke="#263238" stroke-miterlimit="10" stroke-linecap="round"/>
<path d="M259.6 193.35L270.17 191.7C270.415 191.651 270.634 191.513 270.782 191.311C270.93 191.109 270.997 190.859 270.97 190.61C270.919 190.366 270.779 190.15 270.578 190.004C270.376 189.858 270.127 189.792 269.88 189.82L259.3 191.46C259.056 191.511 258.84 191.651 258.694 191.852C258.548 192.054 258.482 192.303 258.51 192.55C258.558 192.796 258.697 193.014 258.899 193.162C259.101 193.31 259.351 193.377 259.6 193.35Z" fill="white" stroke="#263238" stroke-miterlimit="10" stroke-linecap="round"/>
<path d="M257.12 203.38C257.227 204.07 257.536 204.712 258.008 205.227C258.48 205.742 259.093 206.105 259.771 206.272C260.449 206.439 261.161 206.402 261.818 206.165C262.475 205.929 263.047 205.503 263.462 204.942C263.878 204.381 264.118 203.71 264.153 203.013C264.188 202.315 264.016 201.623 263.659 201.024C263.302 200.424 262.775 199.943 262.146 199.642C261.516 199.34 260.811 199.232 260.12 199.33C259.656 199.396 259.209 199.554 258.806 199.794C258.403 200.033 258.052 200.351 257.773 200.728C257.494 201.105 257.292 201.533 257.18 201.988C257.068 202.444 257.048 202.917 257.12 203.38Z" fill="#263238" stroke="#263238" stroke-miterlimit="10" stroke-linecap="round"/>
<path d="M261 202.28L271.57 200.63C271.816 200.582 272.034 200.443 272.182 200.241C272.33 200.039 272.397 199.789 272.37 199.54C272.319 199.296 272.179 199.08 271.978 198.934C271.776 198.788 271.527 198.722 271.28 198.75L260.7 200.39C260.456 200.441 260.24 200.581 260.094 200.782C259.948 200.984 259.882 201.233 259.91 201.48C259.959 201.726 260.097 201.944 260.299 202.092C260.501 202.24 260.751 202.307 261 202.28Z" fill="white" stroke="#263238" stroke-miterlimit="10" stroke-linecap="round"/>
<path d="M261.39 204.88L272 203.24C272.244 203.189 272.46 203.049 272.606 202.848C272.752 202.646 272.818 202.397 272.79 202.15C272.773 202.026 272.731 201.907 272.667 201.8C272.603 201.693 272.518 201.6 272.418 201.526C272.317 201.452 272.202 201.399 272.081 201.371C271.959 201.342 271.833 201.339 271.71 201.36L261.1 203C260.854 203.049 260.636 203.188 260.488 203.389C260.34 203.591 260.273 203.841 260.3 204.09C260.351 204.334 260.491 204.55 260.692 204.696C260.894 204.842 261.143 204.908 261.39 204.88Z" fill="white" stroke="#263238" stroke-miterlimit="10" stroke-linecap="round"/>
<path d="M258.92 214.91C259.02 215.605 259.324 216.255 259.795 216.777C260.265 217.298 260.88 217.668 261.561 217.84C262.242 218.011 262.959 217.976 263.62 217.738C264.281 217.501 264.856 217.073 265.273 216.508C265.69 215.942 265.929 215.266 265.961 214.564C265.992 213.863 265.814 213.168 265.449 212.567C265.084 211.967 264.549 211.489 263.912 211.194C263.274 210.899 262.564 210.8 261.87 210.91C260.951 211.056 260.127 211.557 259.575 212.305C259.023 213.054 258.788 213.989 258.92 214.91Z" fill="#263238" stroke="#263238" stroke-miterlimit="10" stroke-linecap="round"/>
<path d="M262.78 213.82L273.36 212.17C273.604 212.119 273.82 211.979 273.966 211.778C274.112 211.576 274.178 211.327 274.15 211.08C274.099 210.838 273.961 210.624 273.762 210.478C273.562 210.332 273.316 210.265 273.07 210.29L262.49 211.93C262.244 211.979 262.026 212.118 261.878 212.319C261.73 212.521 261.663 212.771 261.69 213.02C261.739 213.266 261.878 213.484 262.079 213.632C262.281 213.78 262.531 213.847 262.78 213.82Z" fill="white" stroke="#263238" stroke-miterlimit="10" stroke-linecap="round"/>
<path d="M263.19 216.42L273.76 214.78C274.006 214.731 274.224 214.592 274.372 214.391C274.52 214.189 274.587 213.939 274.56 213.69C274.511 213.444 274.372 213.226 274.171 213.078C273.969 212.93 273.719 212.863 273.47 212.89L262.9 214.54C262.654 214.589 262.436 214.727 262.288 214.929C262.14 215.131 262.073 215.381 262.1 215.63C262.151 215.874 262.291 216.09 262.492 216.236C262.694 216.382 262.943 216.448 263.19 216.42Z" fill="white" stroke="#263238" stroke-miterlimit="10" stroke-linecap="round"/>
<path d="M260.71 226.45C260.808 227.144 261.11 227.793 261.577 228.315C262.044 228.837 262.656 229.208 263.334 229.383C264.013 229.557 264.728 229.526 265.389 229.294C266.05 229.061 266.627 228.638 267.047 228.078C267.467 227.517 267.712 226.845 267.75 226.145C267.788 225.446 267.617 224.751 267.26 224.148C266.903 223.546 266.375 223.063 265.743 222.76C265.111 222.458 264.403 222.35 263.71 222.45C262.783 222.586 261.948 223.083 261.386 223.832C260.824 224.581 260.581 225.522 260.71 226.45Z" fill="#263238" stroke="#263238" stroke-miterlimit="10" stroke-linecap="round"/>
<path d="M264.58 225.35L275.15 223.71C275.395 223.661 275.614 223.523 275.762 223.321C275.91 223.119 275.977 222.869 275.95 222.62C275.901 222.374 275.762 222.156 275.561 222.008C275.359 221.86 275.109 221.793 274.86 221.82L264.29 223.47C264.044 223.519 263.826 223.658 263.678 223.859C263.53 224.061 263.463 224.311 263.49 224.56C263.541 224.804 263.68 225.02 263.882 225.166C264.084 225.312 264.332 225.378 264.58 225.35Z" fill="white" stroke="#263238" stroke-miterlimit="10" stroke-linecap="round"/>
<path d="M265 228L275.58 226.36C275.824 226.309 276.04 226.169 276.186 225.968C276.332 225.766 276.398 225.517 276.37 225.27C276.322 225.026 276.184 224.809 275.984 224.662C275.785 224.514 275.537 224.445 275.29 224.47L264.71 226.12C264.466 226.171 264.25 226.311 264.104 226.512C263.958 226.714 263.892 226.963 263.92 227.21C263.938 227.333 263.981 227.451 264.045 227.558C264.11 227.665 264.194 227.757 264.295 227.831C264.395 227.904 264.509 227.957 264.63 227.986C264.751 228.015 264.877 228.02 265 228Z" fill="white" stroke="#263238" stroke-miterlimit="10" stroke-linecap="round"/>
<path d="M262.51 238C262.61 238.695 262.914 239.345 263.384 239.867C263.855 240.388 264.469 240.758 265.151 240.93C265.832 241.101 266.548 241.066 267.209 240.828C267.87 240.591 268.446 240.163 268.863 239.598C269.28 239.032 269.519 238.356 269.55 237.654C269.582 236.953 269.404 236.258 269.039 235.657C268.674 235.057 268.139 234.579 267.502 234.284C266.864 233.989 266.154 233.89 265.46 234C264.541 234.146 263.717 234.647 263.165 235.395C262.613 236.144 262.378 237.079 262.51 238Z" fill="#263238" stroke="#263238" stroke-miterlimit="10" stroke-linecap="round"/>
<path d="M266.37 236.89L277 235.25C277.124 235.232 277.243 235.189 277.351 235.124C277.458 235.059 277.551 234.973 277.625 234.872C277.698 234.77 277.751 234.655 277.779 234.533C277.808 234.41 277.811 234.284 277.79 234.16C277.741 233.916 277.604 233.699 277.404 233.552C277.205 233.404 276.957 233.335 276.71 233.36L266.08 235C265.956 235.018 265.836 235.061 265.729 235.126C265.622 235.191 265.529 235.277 265.455 235.378C265.381 235.48 265.329 235.595 265.3 235.718C265.272 235.84 265.268 235.966 265.29 236.09C265.307 236.214 265.349 236.333 265.412 236.441C265.476 236.549 265.561 236.643 265.662 236.717C265.762 236.792 265.877 236.845 265.998 236.875C266.12 236.905 266.246 236.91 266.37 236.89Z" fill="white" stroke="#263238" stroke-miterlimit="10" stroke-linecap="round"/>
<path d="M266.78 239.5L277.35 237.85C277.474 237.833 277.593 237.791 277.701 237.727C277.809 237.664 277.903 237.579 277.977 237.478C278.052 237.378 278.105 237.263 278.135 237.142C278.165 237.02 278.17 236.894 278.15 236.77C278.101 236.524 277.962 236.306 277.761 236.158C277.559 236.01 277.309 235.943 277.06 235.97L266.49 237.62C266.246 237.669 266.029 237.806 265.881 238.006C265.734 238.205 265.665 238.453 265.69 238.7C265.739 238.946 265.877 239.164 266.079 239.312C266.281 239.46 266.531 239.527 266.78 239.5Z" fill="white" stroke="#263238" stroke-miterlimit="10" stroke-linecap="round"/>
<path d="M264.3 249.53C264.398 250.224 264.7 250.872 265.167 251.394C265.634 251.917 266.246 252.288 266.924 252.462C267.603 252.637 268.318 252.606 268.979 252.374C269.639 252.141 270.217 251.718 270.637 251.158C271.057 250.597 271.302 249.925 271.34 249.225C271.378 248.526 271.207 247.831 270.85 247.228C270.493 246.626 269.964 246.143 269.333 245.84C268.701 245.538 267.993 245.43 267.3 245.53C266.373 245.666 265.538 246.163 264.976 246.912C264.414 247.661 264.171 248.602 264.3 249.53Z" fill="#263238" stroke="#263238" stroke-miterlimit="10" stroke-linecap="round"/>
<path d="M268.17 248.43L278.74 246.78C278.984 246.732 279.2 246.594 279.348 246.394C279.496 246.195 279.565 245.947 279.54 245.7C279.491 245.454 279.352 245.236 279.151 245.088C278.949 244.94 278.699 244.873 278.45 244.9L267.88 246.55C267.636 246.598 267.419 246.736 267.271 246.936C267.124 247.135 267.055 247.383 267.08 247.63C267.128 247.876 267.267 248.094 267.469 248.242C267.671 248.39 267.921 248.457 268.17 248.43Z" fill="white" stroke="#263238" stroke-miterlimit="10" stroke-linecap="round"/>
<path d="M268.58 251L279.15 249.35C279.395 249.301 279.614 249.163 279.762 248.961C279.91 248.759 279.977 248.509 279.95 248.26C279.899 248.016 279.759 247.8 279.558 247.654C279.356 247.508 279.107 247.442 278.86 247.47L268.28 249.11C268.036 249.161 267.82 249.301 267.674 249.502C267.528 249.704 267.462 249.953 267.49 250.2C267.538 250.446 267.677 250.664 267.879 250.812C268.081 250.96 268.331 251.027 268.58 251Z" fill="white" stroke="#263238" stroke-miterlimit="10" stroke-linecap="round"/>
<path d="M266.1 261.07C266.2 261.765 266.504 262.415 266.975 262.937C267.445 263.458 268.06 263.828 268.741 263.999C269.422 264.171 270.138 264.136 270.8 263.898C271.461 263.661 272.036 263.233 272.453 262.667C272.87 262.102 273.109 261.426 273.14 260.724C273.172 260.023 272.994 259.328 272.629 258.727C272.264 258.127 271.729 257.649 271.092 257.354C270.454 257.059 269.744 256.96 269.05 257.07C268.131 257.216 267.307 257.717 266.755 258.465C266.203 259.214 265.968 260.149 266.1 261.07Z" fill="#263238" stroke="#263238" stroke-miterlimit="10" stroke-linecap="round"/>
<path d="M270 260L280.57 258.35C280.816 258.301 281.034 258.163 281.182 257.961C281.33 257.759 281.397 257.509 281.37 257.26C281.319 257.016 281.179 256.8 280.978 256.654C280.776 256.508 280.527 256.442 280.28 256.47L269.7 258.11C269.456 258.161 269.24 258.301 269.094 258.502C268.948 258.704 268.882 258.953 268.91 259.2C268.959 259.446 269.097 259.664 269.299 259.812C269.501 259.96 269.751 260.027 270 260Z" fill="white" stroke="#263238" stroke-miterlimit="10" stroke-linecap="round"/>
<path d="M270.37 262.58L281 260.93C281.244 260.879 281.46 260.739 281.606 260.538C281.752 260.336 281.818 260.087 281.79 259.84C281.739 259.596 281.599 259.38 281.398 259.234C281.196 259.088 280.947 259.022 280.7 259.05L270.13 260.69C269.884 260.739 269.666 260.878 269.518 261.079C269.37 261.281 269.303 261.531 269.33 261.78C269.378 262.016 269.509 262.227 269.7 262.374C269.891 262.521 270.129 262.594 270.37 262.58Z" fill="white" stroke="#263238" stroke-miterlimit="10" stroke-linecap="round"/>
<path d="M267.9 272.61C268.007 273.3 268.316 273.942 268.788 274.457C269.26 274.972 269.873 275.335 270.551 275.502C271.229 275.669 271.941 275.632 272.598 275.395C273.255 275.159 273.827 274.733 274.242 274.172C274.658 273.611 274.898 272.94 274.933 272.243C274.968 271.545 274.796 270.853 274.439 270.253C274.082 269.654 273.555 269.173 272.926 268.872C272.296 268.57 271.591 268.462 270.9 268.56C270.436 268.626 269.989 268.784 269.586 269.023C269.183 269.263 268.832 269.581 268.553 269.958C268.274 270.335 268.073 270.763 267.96 271.218C267.848 271.674 267.828 272.147 267.9 272.61Z" fill="#263238" stroke="#263238" stroke-miterlimit="10" stroke-linecap="round"/>
<path d="M271.76 271.51L282.34 269.86C282.584 269.809 282.8 269.669 282.946 269.468C283.092 269.266 283.158 269.017 283.13 268.77C283.075 268.522 282.927 268.305 282.717 268.162C282.507 268.019 282.251 267.961 282 268L271.43 269.64C271.184 269.689 270.966 269.827 270.818 270.029C270.67 270.231 270.603 270.481 270.63 270.73C270.683 270.98 270.83 271.2 271.04 271.345C271.25 271.49 271.508 271.549 271.76 271.51Z" fill="white" stroke="#263238" stroke-miterlimit="10" stroke-linecap="round"/>
<path d="M272.17 274.11L282.74 272.47C282.985 272.421 283.204 272.283 283.352 272.081C283.5 271.879 283.567 271.629 283.54 271.38C283.491 271.134 283.352 270.916 283.151 270.768C282.949 270.62 282.699 270.553 282.45 270.58L271.87 272.23C271.626 272.281 271.41 272.421 271.264 272.622C271.118 272.824 271.052 273.073 271.08 273.32C271.131 273.564 271.271 273.78 271.472 273.926C271.674 274.072 271.923 274.138 272.17 274.11Z" fill="white" stroke="#263238" stroke-miterlimit="10" stroke-linecap="round"/>
<path d="M269.69 284.14C269.79 284.835 270.094 285.485 270.564 286.007C271.035 286.528 271.649 286.898 272.331 287.07C273.012 287.241 273.728 287.206 274.389 286.968C275.05 286.731 275.626 286.303 276.043 285.738C276.46 285.172 276.699 284.496 276.73 283.794C276.762 283.093 276.584 282.398 276.219 281.797C275.854 281.197 275.319 280.719 274.681 280.424C274.044 280.129 273.334 280.03 272.64 280.14C271.721 280.286 270.897 280.787 270.345 281.535C269.793 282.284 269.558 283.219 269.69 284.14Z" fill="#263238" stroke="#263238" stroke-miterlimit="10" stroke-linecap="round"/>
<path d="M273.56 283L284.13 281.36C284.375 281.311 284.594 281.173 284.742 280.971C284.89 280.769 284.957 280.519 284.93 280.27C284.912 280.146 284.869 280.027 284.804 279.919C284.739 279.812 284.653 279.719 284.551 279.645C284.45 279.572 284.335 279.519 284.212 279.491C284.09 279.462 283.963 279.459 283.84 279.48L273.26 281.12C273.016 281.171 272.8 281.311 272.654 281.512C272.508 281.714 272.442 281.963 272.47 282.21C272.488 282.334 272.531 282.453 272.596 282.561C272.661 282.668 272.747 282.761 272.848 282.835C272.95 282.908 273.065 282.961 273.187 282.989C273.31 283.018 273.436 283.021 273.56 283Z" fill="white" stroke="#263238" stroke-miterlimit="10" stroke-linecap="round"/>
<path d="M274 285.65L284.54 284C284.784 283.949 285 283.809 285.146 283.608C285.292 283.406 285.358 283.157 285.33 282.91C285.281 282.664 285.142 282.446 284.941 282.298C284.739 282.15 284.489 282.083 284.24 282.11L273.67 283.76C273.424 283.809 273.206 283.947 273.058 284.149C272.91 284.351 272.843 284.601 272.87 284.85C272.919 285.103 273.064 285.328 273.274 285.477C273.485 285.626 273.745 285.688 274 285.65Z" fill="white" stroke="#263238" stroke-miterlimit="10" stroke-linecap="round"/>
<path d="M271.49 295.68C271.59 296.375 271.894 297.025 272.364 297.547C272.835 298.068 273.449 298.438 274.131 298.61C274.812 298.781 275.528 298.746 276.189 298.508C276.85 298.271 277.426 297.843 277.843 297.278C278.26 296.712 278.499 296.036 278.53 295.334C278.562 294.633 278.384 293.938 278.019 293.338C277.654 292.737 277.119 292.259 276.482 291.964C275.844 291.669 275.134 291.57 274.44 291.68C273.521 291.826 272.697 292.327 272.145 293.075C271.593 293.824 271.358 294.76 271.49 295.68Z" fill="#263238" stroke="#263238" stroke-miterlimit="10" stroke-linecap="round"/>
<path d="M275.35 294.58L285.93 292.94C286.174 292.889 286.39 292.749 286.536 292.548C286.682 292.346 286.747 292.097 286.72 291.85C286.671 291.604 286.532 291.386 286.331 291.238C286.129 291.09 285.879 291.023 285.63 291.05L275.06 292.7C274.814 292.749 274.596 292.888 274.448 293.089C274.3 293.291 274.233 293.541 274.26 293.79C274.311 294.034 274.45 294.25 274.652 294.396C274.854 294.542 275.102 294.608 275.35 294.58Z" fill="white" stroke="#263238" stroke-miterlimit="10" stroke-linecap="round"/>
<path d="M275.76 297.19L286.33 295.54C286.574 295.492 286.791 295.354 286.938 295.154C287.086 294.955 287.155 294.707 287.13 294.46C287.081 294.214 286.942 293.996 286.741 293.848C286.539 293.7 286.289 293.633 286.04 293.66L275.46 295.31C275.216 295.361 275 295.501 274.854 295.702C274.708 295.904 274.642 296.153 274.67 296.4C274.721 296.644 274.861 296.86 275.062 297.006C275.264 297.152 275.513 297.218 275.76 297.19Z" fill="white" stroke="#263238" stroke-miterlimit="10" stroke-linecap="round"/>
<path d="M273.28 307.22C273.378 307.914 273.68 308.563 274.147 309.085C274.614 309.607 275.226 309.978 275.904 310.153C276.583 310.327 277.298 310.296 277.959 310.064C278.619 309.831 279.197 309.408 279.617 308.848C280.037 308.287 280.282 307.615 280.32 306.915C280.358 306.216 280.187 305.521 279.83 304.918C279.473 304.316 278.944 303.833 278.313 303.53C277.681 303.228 276.973 303.12 276.28 303.22C275.352 303.354 274.515 303.85 273.953 304.6C273.391 305.35 273.148 306.292 273.28 307.22Z" fill="#263238" stroke="#263238" stroke-miterlimit="10" stroke-linecap="round"/>
<path d="M277.15 306.12L287.72 304.48C287.965 304.432 288.184 304.293 288.332 304.091C288.48 303.889 288.547 303.639 288.52 303.39C288.471 303.145 288.332 302.926 288.131 302.778C287.929 302.63 287.679 302.563 287.43 302.59L276.85 304.24C276.606 304.291 276.39 304.431 276.244 304.632C276.098 304.834 276.032 305.083 276.06 305.33C276.111 305.574 276.25 305.79 276.452 305.936C276.654 306.082 276.902 306.148 277.15 306.12Z" fill="white" stroke="#263238" stroke-miterlimit="10" stroke-linecap="round"/>
<path d="M277.55 308.73L288.13 307.08C288.374 307.029 288.59 306.889 288.736 306.688C288.882 306.486 288.948 306.237 288.92 305.99C288.902 305.867 288.859 305.749 288.795 305.642C288.73 305.536 288.646 305.443 288.545 305.369C288.445 305.296 288.331 305.243 288.209 305.214C288.088 305.185 287.963 305.18 287.84 305.2L277.26 306.85C277.136 306.867 277.017 306.909 276.91 306.973C276.803 307.037 276.709 307.122 276.636 307.222C276.562 307.323 276.509 307.438 276.481 307.559C276.452 307.681 276.449 307.807 276.47 307.93C276.518 308.174 276.656 308.391 276.855 308.539C277.055 308.686 277.303 308.755 277.55 308.73Z" fill="white" stroke="#263238" stroke-miterlimit="10" stroke-linecap="round"/>
<g opacity="0.3">
<path d="M122.08 111.51L124.71 111.11" stroke="black" stroke-miterlimit="10" stroke-linecap="round"/>
<path d="M127.34 110.7L129.97 110.29" stroke="black" stroke-miterlimit="10" stroke-linecap="round"/>
<path d="M96.3799 119.22L98.9999 118.81" stroke="black" stroke-miterlimit="10" stroke-linecap="round"/>
<path d="M101.63 118.4L104.26 117.99" stroke="black" stroke-miterlimit="10" stroke-linecap="round"/>
<path d="M106.89 117.59L109.51 117.18" stroke="black" stroke-miterlimit="10" stroke-linecap="round"/>
<path d="M112.14 116.77L114.77 116.36" stroke="black" stroke-miterlimit="10" stroke-linecap="round"/>
<path d="M117.39 115.95L120.02 115.54" stroke="black" stroke-miterlimit="10" stroke-linecap="round"/>
<path d="M122.65 115.13L125.27 114.72" stroke="black" stroke-miterlimit="10" stroke-linecap="round"/>
<path d="M127.9 114.31L130.53 113.91" stroke="black" stroke-miterlimit="10" stroke-linecap="round"/>
<path d="M96.9399 122.84L99.5699 122.43" stroke="black" stroke-miterlimit="10" stroke-linecap="round"/>
<path d="M102.19 122.02L104.82 121.61" stroke="black" stroke-miterlimit="10" stroke-linecap="round"/>
<path d="M107.45 121.2L110.08 120.8" stroke="black" stroke-miterlimit="10" stroke-linecap="round"/>
<path d="M112.7 120.39L115.33 119.98" stroke="black" stroke-miterlimit="10" stroke-linecap="round"/>
<path d="M117.96 119.57L120.58 119.16" stroke="black" stroke-miterlimit="10" stroke-linecap="round"/>
<path d="M123.21 118.75L125.84 118.34" stroke="black" stroke-miterlimit="10" stroke-linecap="round"/>
<path d="M128.46 117.93L131.09 117.52" stroke="black" stroke-miterlimit="10" stroke-linecap="round"/>
<path d="M97.5 126.46L100.13 126.05" stroke="black" stroke-miterlimit="10" stroke-linecap="round"/>
<path d="M102.76 125.64L105.38 125.23" stroke="black" stroke-miterlimit="10" stroke-linecap="round"/>
<path d="M108.01 124.82L110.64 124.41" stroke="black" stroke-miterlimit="10" stroke-linecap="round"/>
<path d="M113.27 124.01L115.89 123.6" stroke="black" stroke-miterlimit="10" stroke-linecap="round"/>
<path d="M118.52 123.19L121.15 122.78" stroke="black" stroke-miterlimit="10" stroke-linecap="round"/>
<path d="M123.77 122.37L126.4 121.96" stroke="black" stroke-miterlimit="10" stroke-linecap="round"/>
<path d="M129.03 121.55L131.65 121.14" stroke="black" stroke-miterlimit="10" stroke-linecap="round"/>
<path d="M98.0698 130.08L100.69 129.67" stroke="black" stroke-miterlimit="10" stroke-linecap="round"/>
<path d="M103.32 129.26L105.95 128.85" stroke="black" stroke-miterlimit="10" stroke-linecap="round"/>
<path d="M108.57 128.44L111.2 128.03" stroke="black" stroke-miterlimit="10" stroke-linecap="round"/>
<path d="M113.83 127.62L116.46 127.22" stroke="black" stroke-miterlimit="10" stroke-linecap="round"/>
<path d="M119.08 126.81L121.71 126.4" stroke="black" stroke-miterlimit="10" stroke-linecap="round"/>
<path d="M124.34 125.99L126.96 125.58" stroke="black" stroke-miterlimit="10" stroke-linecap="round"/>
<path d="M129.59 125.17L132.22 124.76" stroke="black" stroke-miterlimit="10" stroke-linecap="round"/>
<path d="M95.0698 110.85L97.6998 110.44" stroke="black" stroke-miterlimit="10" stroke-linecap="round"/>
<path d="M100.33 110.03L102.96 109.63" stroke="black" stroke-miterlimit="10" stroke-linecap="round"/>
<path d="M105.58 109.22L108.21 108.81" stroke="black" stroke-miterlimit="10" stroke-linecap="round"/>
<path d="M110.84 108.4L113.46 107.99" stroke="black" stroke-miterlimit="10" stroke-linecap="round"/>
<path d="M116.09 107.58L118.72 107.17" stroke="black" stroke-miterlimit="10" stroke-linecap="round"/>
<path d="M121.35 106.76L123.97 106.36" stroke="black" stroke-miterlimit="10" stroke-linecap="round"/>
<path d="M126.6 105.95L129.23 105.54" stroke="black" stroke-miterlimit="10" stroke-linecap="round"/>
<path d="M129.77 107.54L95.1699 112.92" stroke="black" stroke-miterlimit="10" stroke-linecap="round"/>
<path d="M104.77 104.71L118.12 102.63" stroke="black" stroke-miterlimit="10" stroke-linecap="round"/>
<path d="M88.1899 142.03L235.42 119.12" stroke="black" stroke-miterlimit="10" stroke-linecap="round"/>
<path d="M90.04 153.89L237.26 130.98" stroke="black" stroke-miterlimit="10" stroke-linecap="round"/>
<path d="M91.8799 165.74L239.11 142.83" stroke="black" stroke-miterlimit="10" stroke-linecap="round"/>
<path d="M93.73 177.6L240.95 154.69" stroke="black" stroke-miterlimit="10" stroke-linecap="round"/>
<path d="M95.5698 189.46L242.8 166.55" stroke="black" stroke-miterlimit="10" stroke-linecap="round"/>
<path d="M97.4199 201.32L244.64 178.4" stroke="black" stroke-miterlimit="10" stroke-linecap="round"/>
<path d="M99.26 213.17L246.49 190.26" stroke="black" stroke-miterlimit="10" stroke-linecap="round"/>
<path d="M101.11 225.03L248.33 202.12" stroke="black" stroke-miterlimit="10" stroke-linecap="round"/>
<path d="M102.95 236.89L250.18 213.98" stroke="black" stroke-miterlimit="10" stroke-linecap="round"/>
<path d="M104.8 248.75L252.02 225.83" stroke="black" stroke-miterlimit="10" stroke-linecap="round"/>
<path d="M106.64 260.6L253.87 237.69" stroke="black" stroke-miterlimit="10" stroke-linecap="round"/>
<path d="M108.49 272.46L255.72 249.55" stroke="black" stroke-miterlimit="10" stroke-linecap="round"/>
<path d="M110.33 284.32L257.56 261.41" stroke="black" stroke-miterlimit="10" stroke-linecap="round"/>
<path d="M114.72 312.48L261.94 289.57" stroke="black" stroke-miterlimit="10" stroke-linecap="round"/>
<path d="M116.18 321.87L263.4 298.95" stroke="black" stroke-miterlimit="10" stroke-linecap="round"/>
<path d="M117.64 331.25L264.86 308.34" stroke="black" stroke-miterlimit="10" stroke-linecap="round"/>
</g>
<path d="M109.19 153.44C109.19 153.44 96.63 167.03 103.89 164.89C111.15 162.75 121.08 148.55 118.97 154.45C116.86 160.35 116.97 164.37 120.38 160.3C123.79 156.23 125.7 155.42 125.01 157.55C124.32 159.68 127.14 158.23 127.14 158.23C127.14 158.23 134.14 154.11 133.41 156.23C132.68 158.35 132.24 158.44 134.22 158.13L140.64 157.13C140.64 157.13 140.22 157.71 146.15 156.78C152.08 155.85 154.39 154.49 157.36 154.03" stroke="#263238" stroke-miterlimit="10" stroke-linecap="round"/>
<path d="M103.49 172C103.49 172 113.17 165.94 114.39 167.27C115.61 168.6 113.94 170.88 118.31 169.7C122.68 168.52 126.66 164.86 126.97 166.83C127.28 168.8 130.09 167.36 130.09 167.36L132.56 166.97C132.56 166.97 137.08 166.78 138.49 166.05C139.9 165.32 141.36 158.52 140.28 167.8C139.2 177.08 135.41 169.06 144.42 165.13C153.43 161.2 155.1 165.49 155.1 165.49C156.097 165.265 157.067 164.929 157.99 164.49C159.88 163.68 161.55 161.4 163.34 163.15C165.13 164.9 168.34 159.34 168.34 159.34C169.589 159.573 170.822 159.887 172.03 160.28C173.188 160.685 174.418 160.838 175.64 160.73C177.15 160.788 178.661 160.721 180.16 160.53C182.16 160.22 183.81 157.94 185.44 158.7C187.07 159.46 189.54 152.49 188.3 160.78C187.06 169.07 179.04 172.85 182.3 167.78C185.177 163.352 188.874 159.513 193.19 156.47C196.84 153.88 197.9 154.22 198.7 156.12C199.5 158.02 200.49 157.86 202.39 157.06C204.29 156.26 202.66 155.5 204.29 156.26C204.833 156.569 205.431 156.767 206.05 156.844C206.67 156.922 207.298 156.876 207.9 156.71C209.39 156.48 202.44 160.6 209.39 156.48C216.34 152.36 218.82 135.78 215.18 144.95C211.54 154.12 212.92 156.44 217.79 155.17" stroke="#263238" stroke-miterlimit="10" stroke-linecap="round"/>
<path d="M104.54 188.57C104.54 188.57 116.42 177.11 115.69 175.7C114.96 174.29 111.17 175.9 108.4 180.88C105.63 185.86 107.58 188.6 115.03 184.41C122.48 180.22 111.64 185.41 119.29 185.77C126.94 186.13 129.2 181.19 129.43 182.67C129.66 184.15 127.11 184.04 133.12 183.67C139.13 183.3 136.19 180.67 142.35 181.22C148.51 181.77 151.25 179.83 151.25 179.83L155.2 179.22C155.2 179.22 147.2 179.95 157.59 178.34C167.98 176.73 172.54 163.87 167.54 170.72C162.54 177.57 164.89 179.72 170.02 176.91L175.15 174.09C175.15 174.09 181.63 167.01 178.57 176.59C175.51 186.17 171.89 179.15 183.28 174.34C194.67 169.53 194.38 174.13 198.18 172.53C201.98 170.93 201.36 166.97 203.88 170.12C206.4 173.27 206.24 172.29 210.19 171.67C214.14 171.05 213.08 170.67 216.54 170.18L224 169" stroke="#263238" stroke-miterlimit="10" stroke-linecap="round"/>
<path d="M106.54 224.19C106.54 224.19 114.82 218.85 116.14 211.05C117.46 203.25 110.93 213.38 111.64 224.4C112.35 235.42 108.47 220.34 120.02 216.52C131.57 212.7 119.02 219.72 120.3 221.52C121.58 223.32 131.05 215.8 130.94 218.34C130.83 220.88 132.94 221.57 138.76 216.62C144.58 211.67 135.11 212.62 134.66 216.25C134.21 219.88 137.02 218.41 144.2 215.77C151.38 213.13 144.35 216.77 148.8 216.07C153.25 215.37 163.04 206.77 161.11 210.61C159.18 214.45 161.04 216.7 163.2 214.34C165.36 211.98 169.96 205.69 170.34 208.16C170.569 209.619 170.252 211.11 169.45 212.35" stroke="#263238" stroke-miterlimit="10" stroke-linecap="round"/>
<path opacity="0.3" d="M60.1298 130.09C59.9368 129.886 59.7296 129.695 59.5098 129.52C58.8753 129.026 58.1796 128.616 57.4398 128.3L56.9998 128.14H56.8898C52.9498 126.92 39.4798 126.34 34.9598 126.14C33.8323 126.101 32.7247 126.444 31.817 127.114C30.9092 127.784 30.2547 128.741 29.9598 129.83V129.94C28.9998 133.61 15.2998 224.15 15.2998 224.15C15.2998 224.15 15.1998 226.15 15.0598 229.28C14.9998 230.65 14.9398 232.28 14.8598 233.93C14.8598 234.36 14.8598 234.79 14.8598 235.23C14.8598 236.11 14.7898 237.01 14.7498 237.92C14.6198 241.13 14.4998 244.51 14.4098 247.6C14.3398 249.8 14.2898 251.86 14.2598 253.6C14.2598 254.99 14.2598 256.17 14.2598 257.07C14.2483 259.165 14.3651 261.259 14.6098 263.34C14.9998 265.92 15.8998 267.11 18.1198 267.5C18.6698 267.6 19.4698 267.72 20.4398 267.84L21.0398 267.91L23.7898 268.21L24.5498 268.28L26.8998 268.47L28.5198 268.57L30.1498 268.65C31.2198 268.7 32.2798 268.72 33.2898 268.72C34.7606 268.742 36.231 268.658 37.6898 268.47H37.8198L38.1898 268.4L38.5998 268.3H38.6798L39.0898 268.17L39.7798 267.91L40.4098 267.65C41.2584 267.311 42.0667 266.878 42.8198 266.36C43.0632 266.186 43.2969 265.999 43.5198 265.8C43.7331 265.613 43.9331 265.413 44.1198 265.2L44.3798 264.89C44.7442 264.432 45.0782 263.951 45.3798 263.45C45.4296 263.372 45.4699 263.288 45.4998 263.2L45.5598 263.05L45.6598 262.79C45.682 262.712 45.7087 262.635 45.7398 262.56C45.7398 262.45 45.7998 262.36 45.8398 262.24L45.9298 261.96C45.9298 261.83 45.9998 261.71 46.0398 261.57C46.0798 261.43 46.1098 261.35 46.1398 261.24C46.1698 261.13 46.2198 260.94 46.2698 260.78C46.3198 260.62 46.3398 260.51 46.3798 260.38C46.4198 260.25 46.4598 260.06 46.5098 259.88C46.5598 259.7 46.5898 259.58 46.6298 259.43C46.6698 259.28 46.7198 259.07 46.7698 258.87L46.8898 258.4L47.0398 257.79C47.0398 257.62 47.1298 257.43 47.1798 257.25L47.3298 256.61C47.3798 256.43 47.4198 256.23 47.4698 256.04C47.5198 255.85 47.5798 255.59 47.6298 255.36L47.7798 254.75C47.7798 254.52 47.8898 254.29 47.9398 254.05C47.9898 253.81 48.0398 253.61 48.0998 253.39C48.1598 253.17 48.2098 252.91 48.2598 252.66C48.2644 252.59 48.2644 252.52 48.2598 252.45C48.2598 252.31 48.3298 252.17 48.3598 252.03C48.3898 251.89 48.4798 251.49 48.5498 251.21C48.6198 250.93 48.6398 250.79 48.6898 250.57C48.7398 250.35 48.8098 250.02 48.8798 249.74L49.0298 249.08L49.2098 248.25C49.2098 248.01 49.3198 247.76 49.3698 247.52L49.5498 246.73C49.5498 246.48 49.6598 246.22 49.7098 245.97L49.8898 245.18C49.8898 245.06 49.8898 244.94 49.9598 244.82C50.0298 244.7 50.0298 244.54 50.0598 244.4C50.0898 244.26 50.1698 243.88 50.2198 243.62C50.2698 243.36 50.3298 243.11 50.3898 242.85C50.4498 242.59 50.4998 242.31 50.5598 242.05C50.6198 241.79 50.6698 241.53 50.7298 241.27C50.7898 241.01 50.8298 240.77 50.8898 240.52C50.9498 240.27 50.9998 239.97 51.0598 239.69L51.2098 238.97C51.2698 238.71 51.3198 238.46 51.3698 238.21C51.4198 237.96 51.4798 237.68 51.5398 237.42L51.6898 236.67C51.6898 236.44 51.7898 236.21 51.8298 235.98C51.8698 235.75 51.8998 235.64 51.9398 235.47L51.9998 235.18C51.9998 234.96 52.0898 234.74 52.1298 234.52C52.1698 234.3 52.2398 234.02 52.2898 233.77C52.3398 233.52 52.3698 233.34 52.4198 233.13L52.5698 232.36C52.5698 232.19 52.6398 232.01 52.6698 231.84L52.7898 231.26C52.7898 231.19 52.7898 231.12 52.7898 231.04C52.7898 230.96 52.8598 230.71 52.8898 230.54L53.0398 229.81L53.1298 229.31C53.1798 229.08 53.2198 228.85 53.2598 228.64L53.3498 228.2L53.4698 227.53C53.4698 227.41 53.4698 227.3 53.5398 227.19L53.6598 226.54L53.7198 226.22C53.7198 226.02 53.7898 225.83 53.8198 225.65C53.8198 225.41 53.8998 225.17 53.9398 224.96C54.1098 223.96 54.3398 221.75 54.6198 218.66C54.7298 217.5 54.8398 216.22 54.9598 214.82C55.3898 209.72 55.8898 203.16 56.4198 195.96C56.4198 195.31 56.5098 194.65 56.5598 193.96C58.5598 166.74 60.7798 131.81 60.7798 131.81C60.7926 131.494 60.7417 131.179 60.63 130.884C60.5183 130.588 60.3482 130.318 60.1298 130.09Z" fill="black"/>
<path d="M10.6299 223.15C10.6299 223.15 9.39991 248.91 9.53991 256.05C9.67991 263.19 9.84991 265.86 13.3899 266.49C16.9299 267.12 30.5899 268.49 34.3899 267.11C38.1899 265.73 39.3899 264.51 40.6699 262.4C41.9499 260.29 47.9699 231.83 49.3299 223.84C50.6899 215.85 56.1799 130.72 56.1799 130.72C56.1799 130.72 56.3899 128.91 52.7399 127.3C49.7399 125.95 35.0199 125.3 30.2599 125.14C29.1254 125.089 28.0071 125.425 27.0893 126.094C26.1714 126.763 25.5086 127.724 25.2099 128.82C25.2099 128.82 25.2099 128.9 25.2099 128.93C24.2999 132.6 10.6299 223.15 10.6299 223.15Z" fill="#CCA9D2"/>
<mask id="mask0_506_263" style="mask-type:luminance" maskUnits="userSpaceOnUse" x="9" y="125" width="48" height="143">
<path d="M10.6299 223.15C10.6299 223.15 9.39991 248.91 9.53991 256.05C9.67991 263.19 9.84991 265.86 13.3899 266.49C16.9299 267.12 30.5899 268.49 34.3899 267.11C38.1899 265.73 39.3899 264.51 40.6699 262.4C41.9499 260.29 47.9699 231.83 49.3299 223.84C50.6899 215.85 56.1799 130.72 56.1799 130.72C56.1799 130.72 56.3899 128.91 52.7399 127.3C49.7399 125.95 35.0199 125.3 30.2599 125.14C29.1254 125.089 28.0071 125.425 27.0893 126.094C26.1714 126.763 25.5086 127.724 25.2099 128.82C25.2099 128.82 25.2099 128.9 25.2099 128.93C24.2999 132.6 10.6299 223.15 10.6299 223.15Z" fill="white"/>
</mask>
<g mask="url(#mask0_506_263)">
<path opacity="0.5" d="M32.3699 267.53C33.0503 267.466 33.7213 267.325 34.3699 267.11C38.2099 265.73 39.3699 264.51 40.6499 262.4C41.9299 260.29 47.9499 231.83 49.3099 223.84C50.6699 215.85 56.1599 130.72 56.1599 130.72C56.1599 130.72 56.3699 128.91 52.7199 127.3C52.3672 127.152 52.0025 127.035 51.6299 126.95C50.8399 146.7 48.1699 170.15 43.4799 198.01C39.0999 224.37 34.1299 256.23 32.3699 267.53Z" fill="black"/>
</g>
<path d="M10.6299 223.15C10.6299 223.15 9.39991 248.91 9.53991 256.05C9.67991 263.19 9.84991 265.86 13.3899 266.49C16.9299 267.12 30.5899 268.49 34.3899 267.11C38.1899 265.73 39.3899 264.51 40.6699 262.4C41.9499 260.29 47.9699 231.83 49.3299 223.84C50.6899 215.85 56.1799 130.72 56.1799 130.72C56.1799 130.72 56.3899 128.91 52.7399 127.3C49.7399 125.95 35.0199 125.3 30.2599 125.14C29.1254 125.089 28.0071 125.425 27.0893 126.094C26.1714 126.763 25.5086 127.724 25.2099 128.82C25.2099 128.82 25.2099 128.9 25.2099 128.93C24.2999 132.6 10.6299 223.15 10.6299 223.15Z" stroke="#263238" stroke-linecap="round" stroke-linejoin="round"/>
<path d="M38.5699 226.14C34.2999 226.14 15.9099 224.2 13.0599 223.59C12.2487 223.421 11.4475 223.208 10.6599 222.95V223.15C10.6599 223.15 9.42994 248.91 9.56994 256.05C9.70994 263.19 9.87994 265.86 13.4199 266.49C16.9599 267.12 30.6199 268.49 34.4199 267.11C38.2199 265.73 39.4199 264.51 40.6999 262.4C41.9799 260.29 47.6999 233.4 49.2399 224.54C45.6399 226.41 42.0799 226.11 38.5699 226.14Z" fill="#263238"/>
<mask id="mask1_506_263" style="mask-type:luminance" maskUnits="userSpaceOnUse" x="9" y="222" width="41" height="46">
<path d="M38.5699 226.14C34.2999 226.14 15.9099 224.2 13.0599 223.59C12.2487 223.421 11.4475 223.208 10.6599 222.95V223.15C10.6599 223.15 9.42994 248.91 9.56994 256.05C9.70994 263.19 9.87994 265.86 13.4199 266.49C16.9599 267.12 30.6199 268.49 34.4199 267.11C38.2199 265.73 39.4199 264.51 40.6999 262.4C41.9799 260.29 47.6999 233.4 49.2399 224.54C45.6399 226.41 42.0799 226.11 38.5699 226.14Z" fill="white"/>
</mask>
<g mask="url(#mask1_506_263)">
<path opacity="0.5" d="M32.3699 267.53C33.0503 267.466 33.7213 267.325 34.3699 267.11C38.2099 265.73 39.3699 264.51 40.6499 262.4C41.9299 260.29 47.9499 231.83 49.3099 223.84C50.6699 215.85 56.1599 130.72 56.1599 130.72C56.1599 130.72 56.3699 128.91 52.7199 127.3C52.3672 127.152 52.0025 127.035 51.6299 126.95C50.8399 146.7 48.1699 170.15 43.4799 198.01C39.0999 224.37 34.1299 256.23 32.3699 267.53Z" fill="black"/>
<path opacity="0.26" d="M38.6099 228.52C41.4185 228.4 44.2054 227.971 46.9199 227.24" stroke="white" stroke-linecap="round" stroke-linejoin="round"/>
<path d="M12.0898 225.57C12.0898 225.57 34.6598 228.66 38.6098 228.52" stroke="white" stroke-linecap="round" stroke-linejoin="round"/>
</g>
<path d="M38.5699 226.14C34.2999 226.14 15.9099 224.2 13.0599 223.59C12.2487 223.421 11.4475 223.208 10.6599 222.95V223.15C10.6599 223.15 9.42994 248.91 9.56994 256.05C9.70994 263.19 9.87994 265.86 13.4199 266.49C16.9599 267.12 30.6199 268.49 34.4199 267.11C38.2199 265.73 39.4199 264.51 40.6999 262.4C41.9799 260.29 47.6999 233.4 49.2399 224.54C45.6399 226.41 42.0799 226.11 38.5699 226.14Z" stroke="#263238" stroke-linecap="round" stroke-linejoin="round"/>
<path d="M332.678 120.514C353.697 109.568 361.863 83.655 350.916 62.636C339.97 41.6171 314.057 33.4517 293.038 44.3981C272.019 55.3446 263.854 81.2576 274.8 102.277C285.746 123.296 311.659 131.461 332.678 120.514Z" fill="#263238" stroke="#263238" stroke-linecap="round" stroke-linejoin="round"/>
<path d="M352.232 83.4933C355.157 59.9759 338.464 38.5401 314.946 35.6151C291.429 32.69 269.993 49.3833 267.068 72.9007C264.143 96.418 280.837 117.854 304.354 120.779C327.871 123.704 349.307 107.011 352.232 83.4933Z" fill="white" stroke="#263238" stroke-linecap="round" stroke-linejoin="round"/>
<path d="M347.796 84.4689C351.257 63.4055 336.987 43.5248 315.924 40.0643C294.86 36.6037 274.979 50.8736 271.519 71.937C268.058 93.0004 282.328 112.881 303.392 116.342C324.455 119.802 344.336 105.532 347.796 84.4689Z" fill="#263238" stroke="#263238" stroke-linecap="round" stroke-linejoin="round"/>
<path d="M305.13 49.1501C305.13 49.1501 300.87 38.4901 293.4 31.0001C285.93 23.5101 255.56 18.7401 255.56 18.7401C260.464 23.4743 264.923 28.6494 268.88 34.2001C275.81 43.7901 298.74 65.6501 298.74 65.6501C298.74 65.6501 287.54 56.0501 277.41 54.9901C267.28 53.9301 241.7 59.2501 240.1 59.2501C238.5 59.2501 249.69 63.5201 257.69 67.2501C265.69 70.9801 296.6 74.1801 296.6 74.1801C296.6 74.1801 283.28 77.9101 274.21 81.1101C265.14 84.3101 256.62 107.76 256.62 107.76C256.62 107.76 268.35 97.1001 278.48 94.4301C288.61 91.7601 303 87.0001 303 87.0001C303 87.0001 293.94 97.1301 291.81 104.06C289.68 110.99 291.27 126.98 291.27 126.98C291.27 126.98 296.07 112.05 301.93 106.19C307.79 100.33 314.19 90.1901 314.19 90.1901C317.143 95.0043 319.814 99.9861 322.19 105.11C326.45 114.18 329.12 127.5 329.12 127.5C329.12 127.5 336.05 112.58 335.52 105.11C334.99 97.6401 327 84.3301 327 84.3301C327 84.3301 332.33 80.6001 340.32 83.8001C348.31 87.0001 362.18 100.33 362.18 100.33C362.18 100.33 358.98 82.7401 353.65 75.8101C348.32 68.8801 325.4 66.7401 325.4 66.7401C325.4 66.7401 338.19 59.2801 346.19 57.6801C354.19 56.0801 364.85 59.8101 364.85 59.8101C364.85 59.8101 352.58 42.8101 342.99 41.6901C333.4 40.5701 318.99 55.5501 318.99 55.5501C318.99 55.5501 322.19 39.5501 323.26 34.2301C324.33 28.9101 322.19 15.5701 322.19 15.5701C322.19 15.5701 316.33 18.7701 309.4 28.9001C307.367 31.8166 305.941 35.1123 305.207 38.5912C304.474 42.07 304.448 45.6609 305.13 49.1501Z" fill="#CCA9D2"/>
<path opacity="0.5" d="M305.13 49.1501C305.13 49.1501 300.87 38.4901 293.4 31.0001C285.93 23.5101 255.56 18.7401 255.56 18.7401C260.464 23.4743 264.923 28.6494 268.88 34.2001C275.81 43.7901 298.74 65.6501 298.74 65.6501C298.74 65.6501 287.54 56.0501 277.41 54.9901C267.28 53.9301 241.7 59.2501 240.1 59.2501C238.5 59.2501 249.69 63.5201 257.69 67.2501C265.69 70.9801 296.6 74.1801 296.6 74.1801C296.6 74.1801 283.28 77.9101 274.21 81.1101C265.14 84.3101 256.62 107.76 256.62 107.76C256.62 107.76 268.35 97.1001 278.48 94.4301C288.61 91.7601 303 87.0001 303 87.0001C303 87.0001 293.94 97.1301 291.81 104.06C289.68 110.99 291.27 126.98 291.27 126.98C291.27 126.98 296.07 112.05 301.93 106.19C307.79 100.33 314.19 90.1901 314.19 90.1901C317.143 95.0043 319.814 99.9861 322.19 105.11C326.45 114.18 329.12 127.5 329.12 127.5C329.12 127.5 336.05 112.58 335.52 105.11C334.99 97.6401 327 84.3301 327 84.3301C327 84.3301 332.33 80.6001 340.32 83.8001C348.31 87.0001 362.18 100.33 362.18 100.33C362.18 100.33 358.98 82.7401 353.65 75.8101C348.32 68.8801 325.4 66.7401 325.4 66.7401C325.4 66.7401 338.19 59.2801 346.19 57.6801C354.19 56.0801 364.85 59.8101 364.85 59.8101C364.85 59.8101 352.58 42.8101 342.99 41.6901C333.4 40.5701 318.99 55.5501 318.99 55.5501C318.99 55.5501 322.19 39.5501 323.26 34.2301C324.33 28.9101 322.19 15.5701 322.19 15.5701C322.19 15.5701 316.33 18.7701 309.4 28.9001C307.367 31.8166 305.941 35.1123 305.207 38.5912C304.474 42.07 304.448 45.6609 305.13 49.1501Z" fill="black"/>
<path d="M315.63 32.9301C316 31.3901 316.41 29.8701 316.86 28.3601" stroke="#263238" stroke-width="0.5" stroke-linecap="round" stroke-linejoin="round"/>
<path d="M280 32.92C285 36.57 291.23 41.58 294.44 45.92C300.3 53.92 312.03 70.98 312.03 70.98C311.697 59.5256 312.605 48.0687 314.74 36.81" stroke="#263238" stroke-width="0.5" stroke-linecap="round" stroke-linejoin="round"/>
<path d="M272.62 27.8301C272.62 27.8301 274.17 28.8301 276.5 30.4201" stroke="#263238" stroke-width="0.5" stroke-linecap="round" stroke-linejoin="round"/>
<path d="M312.06 71.0001C312.06 71.0001 332.32 50.7401 340.85 49.1401C349.38 47.5401 356.85 53.9401 356.85 53.9401" stroke="#263238" stroke-width="0.5" stroke-linecap="round" stroke-linejoin="round"/>
<path d="M275.86 88C270.93 91.14 270.48 92.91 270.48 92.91" stroke="#263238" stroke-width="0.5" stroke-linecap="round" stroke-linejoin="round"/>
<path d="M356.31 89.67C356.31 89.67 353.11 81.67 341.91 77.94C330.71 74.21 313.13 73.67 313.13 73.67C313.13 73.67 288.46 81.7501 279.44 85.9601" stroke="#263238" stroke-width="0.5" stroke-linecap="round" stroke-linejoin="round"/>
<path d="M302.36 70.63C308.36 72.36 313.13 73.63 313.13 73.63" stroke="#263238" stroke-width="0.5" stroke-linecap="round" stroke-linejoin="round"/>
<path d="M264.81 61.16C270.6 61.51 278.06 62.3 282.21 64.08C285.59 65.53 292.26 67.63 298.54 69.5" stroke="#263238" stroke-width="0.5" stroke-linecap="round" stroke-linejoin="round"/>
<path d="M256.62 60.88C256.62 60.88 258.57 60.88 261.45 60.99" stroke="#263238" stroke-width="0.5" stroke-linecap="round" stroke-linejoin="round"/>
<path d="M312.06 76.87C312.06 76.87 297.14 99.26 296.06 104.59C295.419 107.752 295.06 110.965 294.99 114.19" stroke="#263238" stroke-width="0.5" stroke-linecap="round" stroke-linejoin="round"/>
<path d="M318.7 83.92C321.57 87.63 325.02 92.5701 326.45 96.6001C328.136 101.453 329.387 106.446 330.19 111.52" stroke="#263238" stroke-width="0.5" stroke-linecap="round" stroke-linejoin="round"/>
<path d="M314.19 78.4701C314.19 78.4701 315.38 79.7901 317.03 81.8201" stroke="#263238" stroke-width="0.5" stroke-linecap="round" stroke-linejoin="round"/>
<path d="M298.36 53.7501C298.36 53.7501 295.6 42.6001 297.31 32.1801C299.02 21.7601 320.91 0.180054 320.91 0.180054C319.683 6.88662 319.077 13.6921 319.1 20.5101C319.1 32.3501 313.19 63.5101 313.19 63.5101C313.19 63.5101 316.69 49.1801 324.3 42.4101C331.91 35.6401 355.79 25.0001 357.09 24.0001C358.39 23.0001 351.79 33.0601 347.47 40.7601C343.15 48.4601 319.9 69.0801 319.9 69.0801C319.9 69.0801 332.9 64.3401 342.13 61.6501C351.36 58.9601 372 73.0801 372 73.0801C372 73.0801 356.26 71.2601 346.48 75.0001C336.7 78.7401 322.21 83.2401 322.21 83.2401C322.21 83.2401 335.48 86.1901 341.21 90.5701C346.94 94.9501 355 108.88 355 108.88C355 108.88 342.4 99.5501 334.22 98.2101C326.04 96.8701 314.93 92.37 314.93 92.37C315.346 98.0043 316.084 103.61 317.14 109.16C318.96 119.01 324.57 131.39 324.57 131.39C324.57 131.39 310.24 123.31 306.32 116.93C302.4 110.55 301.12 95.0701 301.12 95.0701C301.12 95.0701 294.61 95.1501 289.98 102.41C285.35 109.67 281.87 128.58 281.87 128.58C281.87 128.58 274.2 112.43 274.49 103.69C274.78 94.9501 292.16 79.8501 292.16 79.8501C292.16 79.8501 277.41 81.2501 269.98 84.6101C262.55 87.9701 256.07 97.23 256.07 97.23C256.07 97.23 256.07 76.23 263.25 69.76C270.43 63.29 290.83 67.0001 290.83 67.0001L274.93 52.1601C270.93 48.4601 264.93 36.3901 264.93 36.3901C264.93 36.3901 271.55 35.5601 283.09 39.7501C286.445 40.938 289.527 42.79 292.15 45.1954C294.774 47.6008 296.886 50.5103 298.36 53.7501Z" fill="#CCA9D2"/>
<path d="M280.37 46.6901C279.17 45.6567 277.95 44.6567 276.71 43.6901" stroke="#263238" stroke-width="0.5" stroke-linecap="round" stroke-linejoin="round"/>
<path d="M309.28 25.92C307.35 31.79 305.21 39.5 305.15 44.92C305.05 54.83 305.48 75.53 305.48 75.53C299.073 66.0281 291.653 57.25 283.35 49.35" stroke="#263238" stroke-width="0.5" stroke-linecap="round" stroke-linejoin="round"/>
<path d="M312.34 17.4601C312.34 17.4601 311.64 19.1701 310.69 21.8301" stroke="#263238" stroke-width="0.5" stroke-linecap="round" stroke-linejoin="round"/>
<path d="M305.48 75.54C305.48 75.54 277.21 70.9 269.35 74.54C261.49 78.18 259.16 87.76 259.16 87.76" stroke="#263238" stroke-width="0.5" stroke-linecap="round" stroke-linejoin="round"/>
<path d="M344.77 68.18C350.61 67.86 352 69.04 352 69.04" stroke="#263238" stroke-width="0.5" stroke-linecap="round" stroke-linejoin="round"/>
<path d="M280.42 116.5C280.42 116.5 278.36 108.14 285.27 98.58C292.18 89.02 306.17 78.33 306.17 78.33C306.17 78.33 330.91 70.5 340.7 68.66" stroke="#263238" stroke-width="0.5" stroke-linecap="round" stroke-linejoin="round"/>
<path d="M313.14 69.5801C309.31 74.4601 306.14 78.3301 306.14 78.3301" stroke="#263238" stroke-width="0.5" stroke-linecap="round" stroke-linejoin="round"/>
<path d="M338.12 40C333.61 43.66 328.02 48.65 325.68 52.52C323.78 55.67 319.6 61.27 315.59 66.45" stroke="#263238" stroke-width="0.5" stroke-linecap="round" stroke-linejoin="round"/>
<path d="M344.6 35C344.6 35 343.02 36.13 340.75 37.9" stroke="#263238" stroke-width="0.5" stroke-linecap="round" stroke-linejoin="round"/>
<path d="M308.9 80.3C308.9 80.3 334.08 89.7801 338.06 93.4901C340.42 95.6859 342.581 98.0852 344.52 100.66" stroke="#263238" stroke-width="0.5" stroke-linecap="round" stroke-linejoin="round"/>
<path d="M307.62 89.89C307.45 94.59 307.53 100.62 308.71 104.72C310.176 109.646 312.077 114.431 314.39 119.02" stroke="#263238" stroke-width="0.5" stroke-linecap="round" stroke-linejoin="round"/>
<path d="M308.1 82.8501C308.1 82.8501 307.9 84.6001 307.75 87.2201" stroke="#263238" stroke-width="0.5" stroke-linecap="round" stroke-linejoin="round"/>
<path opacity="0.3" d="M318.21 299.33C316.29 293.92 315.95 265.54 316.38 245.33L327.61 247.76C329.56 248.182 331.597 247.88 333.34 246.91C333.764 246.674 334.166 246.399 334.54 246.09C334.906 245.791 335.241 245.456 335.54 245.09C336.604 243.913 337.3 242.449 337.54 240.88C337.581 240.602 337.608 240.321 337.62 240.04C337.697 238.418 337.289 236.81 336.45 235.42C336.178 234.968 335.863 234.543 335.51 234.15C334.229 232.729 332.493 231.799 330.6 231.52L317.04 229.52C317.16 227.76 317.3 226.39 317.44 225.52C317.683 224.201 317.783 222.86 317.74 221.52L318.67 218.52C320.04 214.13 319 207.67 315.27 204C311.54 200.33 298.27 193.87 294.39 190.48C290.51 187.09 261.46 166.4 256.25 167.62C251.04 168.84 244.88 176.27 239.63 180.38C234.38 184.49 215.47 200 215.47 200C215.53 199.35 205.75 203.3 203.37 207.13C203.191 207.302 203.052 207.511 202.964 207.743C202.876 207.974 202.84 208.223 202.86 208.47C203.139 209.56 203.681 210.565 204.437 211.398C205.194 212.231 206.142 212.867 207.2 213.25L198.72 212C198.24 211.93 197.75 211.997 197.307 212.196C196.864 212.394 196.487 212.715 196.22 213.12C193.22 212.67 187.1 212 182.68 213.21C182.68 213.21 189.89 216.74 195.28 217.92C195.422 218.337 195.67 218.71 196 219.003C196.329 219.296 196.729 219.498 197.16 219.59L208.41 222C208.203 222.653 208.05 223.322 207.95 224C207.87 224.618 207.957 225.246 208.2 225.82C208.25 226.2 208.32 226.59 208.41 227C210.01 233.8 218.65 242.06 224.95 247.52C231.25 252.98 237.28 262.33 241.02 273.17C244.76 284.01 247.1 294 255.42 305C256.835 306.859 258.376 308.62 260.03 310.27L337.6 359.27C337.6 359.27 321 307.28 318.21 299.33ZM217 214.05C216.87 214.25 216.74 214.45 216.63 214.66L214.49 214.34C215.332 214.303 216.171 214.206 217 214.05Z" fill="black"/>
<path d="M292.16 385.91L242.64 300.31C242.64 300.31 237.1 261.42 225.29 245.77C213.48 230.12 196.92 218.7 206.53 210.7C216.14 202.7 240.53 187.4 245.53 188.38C250.53 189.36 284.19 206.38 293.7 209.13C303.21 211.88 306.54 215.92 305.12 224.13C303.7 232.34 303.12 289.91 305.93 297.86C308.74 305.81 340 362.47 340 362.47" fill="white"/>
<mask id="mask2_506_263" style="mask-type:luminance" maskUnits="userSpaceOnUse" x="203" y="188" width="137" height="198">
<path d="M292.16 385.91L242.64 300.31C242.64 300.31 237.1 261.42 225.29 245.77C213.48 230.12 196.92 218.7 206.53 210.7C216.14 202.7 240.53 187.4 245.53 188.38C250.53 189.36 284.19 206.38 293.7 209.13C303.21 211.88 306.54 215.92 305.12 224.13C303.7 232.34 303.12 289.91 305.93 297.86C308.74 305.81 340 362.47 340 362.47" fill="white"/>
</mask>
<g mask="url(#mask2_506_263)">
<path d="M306 297.88C303.17 289.93 303.77 232.38 305.19 224.15C306.06 219.15 305.14 215.66 302.11 213.15C302.218 217.711 301.476 222.252 299.92 226.54C297.25 234.11 295.92 239.45 295.92 239.45C295.92 239.45 295.48 266.6 297.26 280.45C299.04 294.3 307.94 318.73 316.4 332.09C322.66 341.97 331.59 350.87 335.82 354.84C327.12 339 308.12 304 306 297.88Z" fill="#CCA9D2"/>
<path opacity="0.5" d="M306 297.88C303.17 289.93 303.77 232.38 305.19 224.15C306.06 219.15 305.14 215.66 302.11 213.15C302.218 217.711 301.476 222.252 299.92 226.54C297.25 234.11 295.92 239.45 295.92 239.45C295.92 239.45 295.48 266.6 297.26 280.45C299.04 294.3 307.94 318.73 316.4 332.09C322.66 341.97 331.59 350.87 335.82 354.84C327.12 339 308.12 304 306 297.88Z" fill="white"/>
</g>
<path d="M292.16 385.91L242.64 300.31C242.64 300.31 237.1 261.42 225.29 245.77C213.48 230.12 196.92 218.7 206.53 210.7C216.14 202.7 240.53 187.4 245.53 188.38C250.53 189.36 284.19 206.38 293.7 209.13C303.21 211.88 306.54 215.92 305.12 224.13C303.7 232.34 303.12 289.91 305.93 297.86C308.74 305.81 340 362.47 340 362.47" stroke="#263238" stroke-miterlimit="10" stroke-linecap="round"/>
<path d="M193.48 212.24C201.247 211.811 208.766 209.356 215.29 205.12C226.42 198 222.86 196.66 222.86 196.66C222.86 196.66 228.64 194.88 232.2 193.55C235.184 192.218 238.02 190.576 240.66 188.65C240.66 188.65 254.91 198 261.58 200.65C264.774 202.007 268.063 203.13 271.42 204.01L280.73 216.23C275.496 218.699 271.032 222.546 267.82 227.36C262.48 235.36 255.82 246.05 252.68 247.36C249.54 248.67 250.9 250.03 237.1 244.69C223.3 239.35 192.59 220.26 193.48 212.24Z" fill="#CCA9D2"/>
<path opacity="0.5" d="M193.48 212.24C201.247 211.811 208.766 209.356 215.29 205.12C226.42 198 222.86 196.66 222.86 196.66C222.86 196.66 228.64 194.88 232.2 193.55C235.184 192.218 238.02 190.576 240.66 188.65C240.66 188.65 254.91 198 261.58 200.65C264.774 202.007 268.063 203.13 271.42 204.01L280.73 216.23C275.496 218.699 271.032 222.546 267.82 227.36C262.48 235.36 255.82 246.05 252.68 247.36C249.54 248.67 250.9 250.03 237.1 244.69C223.3 239.35 192.59 220.26 193.48 212.24Z" fill="white"/>
<path d="M218.14 216.35C218.14 216.35 228.84 215.03 236.38 201.3C236.38 201.3 245.26 205.06 254.5 202.65" stroke="#263238" stroke-miterlimit="10" stroke-linecap="round"/>
<path d="M247.15 206.42C247.15 206.42 241.99 220.08 252.87 238.15" stroke="#263238" stroke-miterlimit="10" stroke-linecap="round"/>
<path d="M235.72 207.67C235.72 207.67 241.11 214.3 241.99 220.08" stroke="#263238" stroke-miterlimit="10" stroke-linecap="round"/>
<path d="M245.81 244.54C245.81 244.54 254.81 238.85 259.6 232.93C264.39 227.01 266.55 220.77 274.1 218.28" stroke="#263238" stroke-miterlimit="10" stroke-linecap="round"/>
<path d="M236.38 201.3L234.19 198.71" stroke="#263238" stroke-miterlimit="10" stroke-linecap="round"/>
<path d="M185.78 212C185.78 212 176.48 210.12 170.42 211.78C170.42 211.78 179.34 216.15 184.75 216.78L185.78 212Z" fill="#263238" stroke="#263238" stroke-miterlimit="10" stroke-linecap="round"/>
<path d="M318.3 230.14L186.46 210.55C185.831 210.456 185.19 210.6 184.661 210.953C184.133 211.306 183.754 211.843 183.6 212.46L183 215C182.914 215.333 182.897 215.68 182.949 216.02C183.001 216.36 183.121 216.687 183.302 216.979C183.483 217.271 183.722 217.524 184.003 217.722C184.285 217.92 184.603 218.059 184.94 218.13L315.39 246.33C316.492 246.568 317.63 246.577 318.736 246.358C319.841 246.138 320.89 245.694 321.817 245.053C322.744 244.412 323.53 243.587 324.125 242.63C324.721 241.674 325.114 240.605 325.28 239.49C325.437 238.418 325.381 237.325 325.115 236.274C324.849 235.223 324.378 234.235 323.73 233.367C323.081 232.498 322.268 231.766 321.336 231.212C320.405 230.659 319.373 230.294 318.3 230.14Z" fill="#CCA9D2" stroke="#263238" stroke-miterlimit="10" stroke-linecap="round"/>
<path d="M318.3 230.14L298.37 227.14C296.55 228.243 295.13 229.897 294.315 231.863C293.5 233.829 293.334 236.003 293.84 238.07C294.176 239.529 294.832 240.895 295.76 242.07L315.35 246.3C316.452 246.538 317.59 246.547 318.696 246.328C319.801 246.108 320.85 245.664 321.777 245.023C322.704 244.382 323.489 243.557 324.085 242.6C324.681 241.644 325.074 240.575 325.24 239.46C325.549 237.305 324.993 235.115 323.692 233.368C322.392 231.622 320.453 230.461 318.3 230.14Z" fill="#263238" stroke="#263238" stroke-miterlimit="10" stroke-linecap="round"/>
<path d="M264.94 242.44C264.94 242.44 253.6 245.1 248.53 243.9C243.46 242.7 233.11 228.14 226 223.35C218.89 218.56 214.56 217.42 207.12 216.3C199.68 215.18 194.54 218.77 196.12 225.58C197.7 232.39 206.35 240.64 212.66 246.1C218.97 251.56 224.99 260.9 228.73 271.75C232.47 282.6 234.81 292.57 243.13 303.53C251.45 314.49 261.83 319 265.32 319.61" fill="white"/>
<mask id="mask3_506_263" style="mask-type:luminance" maskUnits="userSpaceOnUse" x="195" y="216" width="71" height="104">
<path d="M264.94 242.44C264.94 242.44 253.6 245.1 248.53 243.9C243.46 242.7 233.11 228.14 226 223.35C218.89 218.56 214.56 217.42 207.12 216.3C199.68 215.18 194.54 218.77 196.12 225.58C197.7 232.39 206.35 240.64 212.66 246.1C218.97 251.56 224.99 260.9 228.73 271.75C232.47 282.6 234.81 292.57 243.13 303.53C251.45 314.49 261.83 319 265.32 319.61" fill="white"/>
</mask>
<g mask="url(#mask3_506_263)">
<path d="M259.31 244.05L258.51 243.64C255.07 244.14 251.04 244.49 248.51 243.9C243.45 242.7 233.09 228.14 225.99 223.35C218.89 218.56 214.55 217.42 207.11 216.3C205.923 216.115 204.719 216.062 203.52 216.14C209.255 217.58 214.678 220.057 219.52 223.45C227.44 229.17 233.16 243.68 241.95 246.32C250.74 248.96 259.31 244.05 259.31 244.05Z" fill="#CCA9D2"/>
<path opacity="0.5" d="M259.31 244.05L258.51 243.64C255.07 244.14 251.04 244.49 248.51 243.9C243.45 242.7 233.09 228.14 225.99 223.35C218.89 218.56 214.55 217.42 207.11 216.3C205.923 216.115 204.719 216.062 203.52 216.14C209.255 217.58 214.678 220.057 219.52 223.45C227.44 229.17 233.16 243.68 241.95 246.32C250.74 248.96 259.31 244.05 259.31 244.05Z" fill="white"/>
</g>
<path d="M264.94 242.44C264.94 242.44 253.6 245.1 248.53 243.9C243.46 242.7 233.11 228.14 226 223.35C218.89 218.56 214.56 217.42 207.12 216.3C199.68 215.18 194.54 218.77 196.12 225.58C197.7 232.39 206.35 240.64 212.66 246.1C218.97 251.56 224.99 260.9 228.73 271.75C232.47 282.6 234.81 292.57 243.13 303.53C251.45 314.49 261.83 319 265.32 319.61" stroke="#263238" stroke-miterlimit="10" stroke-linecap="round"/>
<path d="M201.84 230.46C201.84 230.46 202.38 224.59 210.42 219.12C210.42 219.12 205.05 215.59 201.37 216.22C197.69 216.85 196.24 218.86 195.68 222.58C195.12 226.3 201.84 230.46 201.84 230.46Z" fill="white" stroke="#263238" stroke-miterlimit="10" stroke-linecap="round"/>
<path d="M207.12 236.69C207.738 237.312 208.429 237.857 209.18 238.31" stroke="#263238" stroke-miterlimit="10" stroke-linecap="round"/>
<path d="M213 222.82C213 222.82 204.46 227.22 205.83 234.08" stroke="#263238" stroke-miterlimit="10" stroke-linecap="round"/>
<path d="M305 221.55L306.36 217.16C307.72 212.78 306.69 206.32 302.96 202.65C299.23 198.98 285.96 192.52 282.08 189.13C278.2 185.74 249.16 165 244 166.27C238.84 167.54 232.63 174.92 227.37 179.02C222.11 183.12 203.25 198.56 203.25 198.56C203.25 198.56 190 204.3 190.6 207C191.2 209.7 193.95 213.15 202.26 212.88C210.57 212.61 224.42 204.33 226.52 203.11C228.62 201.89 241.69 193.33 241.69 193.33C245.075 196.679 248.962 199.479 253.21 201.63C259.38 204.49 260.21 204.78 260.21 204.78C260.21 204.78 261.82 210.63 266.35 213.63" fill="white"/>
<mask id="mask4_506_263" style="mask-type:luminance" maskUnits="userSpaceOnUse" x="190" y="166" width="117" height="56">
<path d="M305 221.55L306.36 217.16C307.72 212.78 306.69 206.32 302.96 202.65C299.23 198.98 285.96 192.52 282.08 189.13C278.2 185.74 249.16 165 244 166.27C238.84 167.54 232.63 174.92 227.37 179.02C222.11 183.12 203.25 198.56 203.25 198.56C203.25 198.56 190 204.3 190.6 207C191.2 209.7 193.95 213.15 202.26 212.88C210.57 212.61 224.42 204.33 226.52 203.11C228.62 201.89 241.69 193.33 241.69 193.33C245.075 196.679 248.962 199.479 253.21 201.63C259.38 204.49 260.21 204.78 260.21 204.78C260.21 204.78 261.82 210.63 266.35 213.63" fill="white"/>
</mask>
<g mask="url(#mask4_506_263)">
<path d="M297.64 202.89C302.44 206.66 302.75 214.13 301.42 220.82L305.01 221.55L306.37 217.16C307.73 212.78 306.7 206.32 302.97 202.65C299.24 198.98 285.97 192.52 282.09 189.13C281.09 188.25 278.33 186.18 274.76 183.64L274.05 183.75C274.05 183.75 291.41 198 297.64 202.89Z" fill="#CCA9D2"/>
<path opacity="0.5" d="M297.64 202.89C302.44 206.66 302.75 214.13 301.42 220.82L305.01 221.55L306.37 217.16C307.73 212.78 306.7 206.32 302.97 202.65C299.24 198.98 285.97 192.52 282.09 189.13C281.09 188.25 278.33 186.18 274.76 183.64L274.05 183.75C274.05 183.75 291.41 198 297.64 202.89Z" fill="white"/>
<path d="M193.48 212.24C201.247 211.811 208.766 209.356 215.29 205.12C226.42 198 222.86 196.66 222.86 196.66C222.86 196.66 228.64 194.88 232.2 193.55C235.184 192.218 238.02 190.576 240.66 188.65C240.66 188.65 254.91 198 261.58 200.65C264.774 202.007 268.063 203.13 271.42 204.01L280.73 216.23C275.496 218.699 271.032 222.546 267.82 227.36C262.48 235.36 255.82 246.05 252.68 247.36C249.54 248.67 250.9 250.03 237.1 244.69C223.3 239.35 192.59 220.26 193.48 212.24Z" fill="#CCA9D2"/>
<path opacity="0.5" d="M193.48 212.24C201.247 211.811 208.766 209.356 215.29 205.12C226.42 198 222.86 196.66 222.86 196.66C222.86 196.66 228.64 194.88 232.2 193.55C235.184 192.218 238.02 190.576 240.66 188.65C240.66 188.65 254.91 198 261.58 200.65C264.774 202.007 268.063 203.13 271.42 204.01L280.73 216.23C275.496 218.699 271.032 222.546 267.82 227.36C262.48 235.36 255.82 246.05 252.68 247.36C249.54 248.67 250.9 250.03 237.1 244.69C223.3 239.35 192.59 220.26 193.48 212.24Z" fill="white"/>
</g>
<path d="M305 221.55L306.36 217.16C307.72 212.78 306.69 206.32 302.96 202.65C299.23 198.98 285.96 192.52 282.08 189.13C278.2 185.74 249.16 165 244 166.27C238.84 167.54 232.63 174.92 227.37 179.02C222.11 183.12 203.25 198.56 203.25 198.56C203.25 198.56 190 204.3 190.6 207C191.2 209.7 193.95 213.15 202.26 212.88C210.57 212.61 224.42 204.33 226.52 203.11C228.62 201.89 241.69 193.33 241.69 193.33C245.075 196.679 248.962 199.479 253.21 201.63C259.38 204.49 260.21 204.78 260.21 204.78C260.21 204.78 261.82 210.63 266.35 213.63" stroke="#263238" stroke-miterlimit="10" stroke-linecap="round"/>
<path d="M190.6 207C190.6 207 191.94 207.64 194.78 206.5C197.62 205.36 203.14 199.28 203.2 198.5C203.26 197.72 191.05 202.85 190.6 207Z" fill="white" stroke="#263238" stroke-miterlimit="10" stroke-linecap="round"/>
<path d="M241.16 183.65C241.286 183.052 241.443 182.462 241.63 181.88" stroke="#263238" stroke-miterlimit="10" stroke-linecap="round"/>
<path d="M241.69 193.35C240.928 190.948 240.639 188.422 240.84 185.91" stroke="#263238" stroke-miterlimit="10" stroke-linecap="round"/>
</svg>
