<svg width="430" height="458" viewBox="0 0 430 458" fill="none" xmlns="http://www.w3.org/2000/svg">
<path d="M72.3156 423.507C153.966 468.507 286.316 468.507 367.976 423.507C449.636 378.507 449.616 305.647 367.976 260.687C286.336 215.727 153.976 215.687 72.3156 260.687C-9.34438 305.687 -9.32437 378.547 72.3156 423.507Z" fill="#EDE9F2"/>
<path d="M55.6558 391.797L61.7758 395.327C62.7141 395.806 63.7524 396.055 64.8058 396.055C65.8591 396.055 66.8974 395.806 67.8358 395.327L248.626 290.947C250.306 289.947 250.306 288.417 248.626 287.447L242.506 283.907C241.566 283.434 240.528 283.188 239.476 283.188C238.423 283.188 237.386 283.434 236.446 283.907L55.6558 388.297C53.9758 389.257 53.9758 390.827 55.6558 391.797Z" fill="#DCD6E4"/>
<path d="M321.186 362.127C338.876 371.367 367.556 371.377 385.246 362.127C402.936 352.877 402.926 337.907 385.246 328.667C367.566 319.427 338.876 319.427 321.186 328.667C303.496 337.907 303.496 352.887 321.186 362.127Z" fill="#DCD6E4"/>
<path d="M299.466 343.477C304.786 346.257 313.416 346.257 318.736 343.477C324.056 340.697 324.056 336.197 318.736 333.417C313.416 330.637 304.786 330.637 299.466 333.417C294.146 336.197 294.116 340.697 299.466 343.477Z" fill="#DCD6E4"/>
<path d="M63.1157 344.767C63.3557 335.887 60.8857 320.997 52.1157 306.137C42.7557 290.227 30.3957 279.577 20.0157 282.817C10.3357 285.817 12.4657 298.957 27.0157 313.257C37.2257 323.257 47.5557 336.017 52.2757 350.557L60.4557 369.297L63.1157 344.767Z" fill="#CCA9D2"/>
<path d="M63.1157 344.767C63.3557 335.887 60.8857 320.997 52.1157 306.137C42.7557 290.227 30.3957 279.577 20.0157 282.817C10.3357 285.817 12.4657 298.957 27.0157 313.257C37.2257 323.257 47.5557 336.017 52.2757 350.557L60.4557 369.297L63.1157 344.767Z" fill="#322C49"/>
<path d="M61.5256 351.387C61.3977 351.371 61.2777 351.316 61.1814 351.231C61.085 351.145 61.0168 351.032 60.9856 350.907C54.7556 325.547 38.9856 298.907 24.2556 288.837C24.1183 288.744 24.0235 288.6 23.9917 288.437C23.9598 288.274 23.9936 288.105 24.0856 287.967C24.1808 287.829 24.3263 287.734 24.4909 287.702C24.6554 287.671 24.8258 287.705 24.9656 287.797C39.9056 297.977 55.9156 324.977 62.2056 350.637C62.2449 350.799 62.2185 350.97 62.1323 351.112C62.0461 351.254 61.9071 351.357 61.7456 351.397C61.6721 351.404 61.5981 351.4 61.5256 351.387Z" fill="white"/>
<path d="M63.2357 373.527C58.3313 377.872 52.373 380.855 45.9557 382.177C34.8957 384.607 29.6457 379.557 29.6457 379.557C29.6457 379.557 33.4157 368.817 39.5857 365.507C39.5857 365.507 28.9657 368.337 20.6757 374.607C20.6757 374.607 13.8557 375.117 10.5257 364.877C10.5257 364.877 14.1857 358.367 27.5257 354.177C27.5257 354.177 19.1557 352.587 7.44568 356.327C6.57568 356.737 1.97568 343.507 0.445681 337.327C-1.08432 331.147 1.44568 331.097 6.18568 329.517C10.9257 327.937 27.3857 326.137 30.5757 328.617C33.7657 331.097 35.8457 340.117 35.8457 340.117C35.8457 340.117 38.4457 334.787 37.4757 330.237C40.795 329.069 44.3912 328.94 47.7857 329.867C53.3357 331.437 53.1557 334.107 53.3857 338.067C53.6452 342.051 53.3354 346.051 52.4657 349.947C52.4657 349.947 56.0257 346.477 55.4657 334.487C55.4657 334.487 63.1857 340.337 66.4657 345.567C69.7457 350.797 69.8457 365.027 63.2357 373.527Z" fill="#68617F"/>
<path d="M63.2757 374.147C63.1568 374.157 63.0376 374.132 62.9327 374.076C62.8278 374.019 62.7419 373.932 62.6857 373.827C52.5557 355.637 17.7457 335.877 5.59565 334.257C5.51354 334.246 5.43441 334.219 5.36281 334.177C5.2912 334.135 5.22852 334.08 5.17836 334.014C5.1282 333.948 5.09154 333.873 5.07048 333.793C5.04943 333.713 5.04439 333.629 5.05565 333.547C5.08046 333.382 5.16851 333.234 5.30108 333.133C5.43365 333.032 5.60031 332.987 5.76566 333.007C18.1157 334.637 53.4957 354.737 63.7857 373.217C63.8259 373.289 63.8514 373.368 63.8606 373.45C63.8699 373.532 63.8626 373.616 63.8393 373.695C63.816 373.774 63.7772 373.848 63.725 373.911C63.6729 373.975 63.6085 374.028 63.5357 374.067C63.458 374.117 63.3681 374.145 63.2757 374.147Z" fill="white"/>
<path d="M371.116 317.447C371.116 317.447 372.506 305.257 378.566 295.807C384.626 286.357 392.956 280.447 400.726 279.807C408.496 279.167 414.726 286.337 406.456 291.247C398.186 296.157 383.366 301.167 376.576 319.527L371.116 317.447Z" fill="#CCA9D2"/>
<path opacity="0.1" d="M371.116 317.447C371.116 317.447 372.506 305.257 378.566 295.807C384.626 286.357 392.956 280.447 400.726 279.807C408.496 279.167 414.726 286.337 406.456 291.247C398.186 296.157 383.366 301.167 376.576 319.527L371.116 317.447Z" fill="#1F1B2D"/>
<path d="M373.406 314.277H373.326C373.224 314.235 373.144 314.155 373.101 314.054C373.058 313.953 373.056 313.839 373.096 313.737C381.296 293.547 396.906 285.107 404.016 283.477C404.069 283.464 404.124 283.461 404.178 283.47C404.233 283.478 404.285 283.497 404.331 283.526C404.378 283.555 404.418 283.593 404.45 283.638C404.482 283.683 404.504 283.734 404.516 283.787C404.54 283.896 404.519 284.01 404.459 284.103C404.399 284.197 404.304 284.263 404.196 284.287C397.196 285.887 381.936 294.167 373.866 314.047C373.827 314.132 373.76 314.201 373.676 314.243C373.593 314.285 373.497 314.297 373.406 314.277Z" fill="white"/>
<path d="M414.916 314.517C414.206 316.107 412.476 316.927 410.866 317.577C409.256 318.227 407.506 318.927 406.636 320.427C404.886 323.427 407.766 327.717 405.876 330.657C405.437 331.248 404.883 331.743 404.247 332.113C403.611 332.482 402.906 332.719 402.176 332.807C400.969 332.982 399.754 333.093 398.536 333.137C397.957 333.126 397.379 333.08 396.806 332.997C395.125 332.623 393.368 332.813 391.806 333.537C389.396 334.887 388.656 337.927 387.196 340.267C386.292 341.651 385.099 342.823 383.699 343.701C382.299 344.58 380.725 345.145 379.086 345.357C378.006 345.497 375.986 345.697 374.886 345.077L374.656 344.937C374.507 344.774 374.367 344.604 374.236 344.427C374.231 344.404 374.231 344.38 374.236 344.357C373.806 342.787 374.506 341.157 374.536 339.527C374.541 339.431 374.541 339.334 374.536 339.237C374.476 337.347 374.416 335.477 374.376 333.597C374.286 330.137 374.246 326.667 374.276 323.197C374.276 320.947 374.026 318.487 374.976 316.367C376.036 314.037 378.656 313.987 379.646 311.697C380.036 310.787 380.256 309.807 380.646 308.887C381.236 307.533 382.189 306.369 383.4 305.524C384.61 304.678 386.032 304.185 387.506 304.097C392.086 303.857 396.196 307.567 400.766 307.227C401.944 307.068 403.112 306.845 404.266 306.557C407.976 305.867 412.266 306.927 414.346 310.057C414.795 310.699 415.082 311.44 415.181 312.217C415.281 312.994 415.189 313.783 414.916 314.517Z" fill="#CCA9D2"/>
<path d="M373.786 337.127C373.686 337.099 373.602 337.033 373.552 336.943C373.501 336.853 373.488 336.747 373.516 336.647C379.836 312.917 404.836 309.487 410.686 309.907C410.787 309.92 410.881 309.969 410.947 310.047C411.014 310.125 411.049 310.225 411.046 310.327C411.042 310.378 411.028 310.428 411.005 310.474C410.982 310.52 410.95 310.561 410.911 310.594C410.872 310.628 410.826 310.653 410.777 310.669C410.729 310.685 410.677 310.691 410.626 310.687C404.906 310.277 380.456 313.637 374.266 336.847C374.254 336.898 374.232 336.946 374.202 336.988C374.171 337.03 374.132 337.065 374.087 337.091C374.042 337.118 373.992 337.134 373.94 337.141C373.888 337.147 373.836 337.142 373.786 337.127Z" fill="white"/>
<path d="M401.566 325.107C401.485 325.095 401.411 325.056 401.356 324.997C399.048 322.999 396.328 321.534 393.39 320.706C390.452 319.878 387.367 319.708 384.356 320.207C384.254 320.221 384.15 320.195 384.068 320.133C383.985 320.071 383.93 319.979 383.916 319.877C383.901 319.775 383.928 319.672 383.99 319.589C384.052 319.507 384.144 319.452 384.246 319.437C387.379 318.917 390.589 319.095 393.645 319.96C396.701 320.824 399.529 322.353 401.926 324.437C401.963 324.473 401.992 324.515 402.013 324.563C402.033 324.61 402.043 324.661 402.043 324.712C402.043 324.764 402.033 324.814 402.013 324.862C401.992 324.909 401.963 324.952 401.926 324.987C401.882 325.038 401.826 325.076 401.762 325.097C401.699 325.118 401.631 325.122 401.566 325.107Z" fill="white"/>
<path d="M65.9058 392.007L62.1158 389.817C61.4843 389.407 60.9586 388.854 60.5815 388.202C60.2044 387.551 59.9866 386.819 59.9458 386.067V104.957C59.9866 104.205 60.2044 103.474 60.5815 102.822C60.9586 102.171 61.4843 101.617 62.1158 101.207L236.506 0.517193C237.177 0.177181 237.919 0 238.671 0C239.423 0 240.165 0.177181 240.836 0.517193L244.636 2.70719C245.264 3.11948 245.787 3.67361 246.162 4.32496C246.538 4.9763 246.755 5.70666 246.796 6.45719V287.567C246.755 288.318 246.538 289.048 246.162 289.699C245.787 290.351 245.264 290.905 244.636 291.317L70.2358 392.007C69.5648 392.347 68.8231 392.524 68.0708 392.524C67.3185 392.524 66.5768 392.347 65.9058 392.007Z" fill="#CCA9D2"/>
<path opacity="0.4" d="M246.776 6.10719C246.626 4.98719 245.716 4.57719 244.636 5.20719L70.2357 105.897C69.5964 106.294 69.0696 106.849 68.7057 107.507L60.5757 102.817C60.9453 102.159 61.475 101.606 62.1157 101.207L236.506 0.517193C237.177 0.177181 237.918 0 238.671 0C239.423 0 240.165 0.177181 240.836 0.517193L244.636 2.70719C245.215 3.08813 245.705 3.58871 246.074 4.1752C246.443 4.76169 246.683 5.42048 246.776 6.10719Z" fill="white"/>
<path opacity="0.15" d="M69.8558 392.187C69.8163 392.212 69.7721 392.229 69.7258 392.237L69.5058 392.317H69.4158L69.0158 392.417H68.9658C68.1026 392.581 67.2112 392.508 66.3858 392.207C66.2205 392.146 66.0601 392.072 65.9058 391.987L62.1158 389.827C61.4879 389.414 60.9654 388.86 60.5903 388.209C60.2152 387.558 59.9979 386.828 59.9558 386.077V104.957C59.9816 104.202 60.1983 103.466 60.5858 102.817L68.7158 107.507C68.3364 108.154 68.1298 108.887 68.1158 109.637V390.767C68.0938 391.174 68.2101 391.575 68.4458 391.907C68.5837 392.073 68.7662 392.196 68.9717 392.262C69.1773 392.327 69.3973 392.333 69.6058 392.277L69.8558 392.187Z" fill="#1F1B2D"/>
<path d="M192.326 52.2772L192.006 52.0872L188.406 50.0172C187.098 49.2915 185.679 48.788 184.206 48.5272C183.586 48.3872 183.026 48.2272 182.536 48.0672C181.992 47.8859 181.461 47.6687 180.946 47.4172L181.216 47.0872L177.116 44.7272C176.781 44.5346 176.421 44.3898 176.046 44.2972C174.516 43.9272 172.226 44.8172 169.936 44.5572C169.106 44.4718 168.305 44.2065 167.589 43.7799C166.872 43.3534 166.257 42.7757 165.786 42.0872C164.396 40.2172 163.556 36.9372 162.326 34.2272L163.426 32.6372L163.086 32.4472L159.356 30.2872C158.726 29.9167 158.007 29.7232 157.276 29.7272C155.884 29.8027 154.536 30.2405 153.366 30.9972C144.436 36.1572 144.136 48.4072 140.916 56.4572C137.696 64.5072 133.146 67.0372 130.666 70.4572C128.186 73.8772 128.016 76.4572 122.526 84.0572C117.036 91.6572 116.816 93.4772 116.816 94.9072V106.187L120.876 108.527L193.966 66.3172L192.326 52.2772ZM125.326 95.7472C124.376 96.2872 123.596 95.5572 123.596 94.0872C123.585 93.3855 123.736 92.6907 124.036 92.0562C124.336 91.4217 124.777 90.8644 125.326 90.4272C126.276 89.8772 127.046 90.6272 127.046 92.0972C127.056 92.7985 126.904 93.4926 126.603 94.1256C126.301 94.7587 125.857 95.3136 125.306 95.7472H125.326ZM157.416 64.0972C155.016 65.4872 152.916 64.6972 151.786 62.3772C148.956 62.9272 146.846 60.1872 146.846 55.4872C146.846 49.9472 149.766 43.7772 153.366 41.6972C153.826 41.3604 154.359 41.1356 154.922 41.0407C155.484 40.9457 156.061 40.9832 156.607 41.1501C157.152 41.3171 157.651 41.6089 158.064 42.0025C158.477 42.396 158.793 42.8804 158.986 43.4172C161.826 42.8572 163.926 45.5872 163.926 50.3072C163.926 55.8472 161.016 62.0172 157.416 64.0972ZM181.686 63.1872C180.736 63.7372 179.966 62.9972 179.966 61.5372C179.953 60.8375 180.101 60.1442 180.399 59.5112C180.698 58.8781 181.138 58.3224 181.686 57.8872C182.686 57.3372 183.416 58.0772 183.416 59.5472C183.429 60.2464 183.279 60.9391 182.979 61.5707C182.679 62.2023 182.236 62.7557 181.686 63.1872Z" fill="#68617F"/>
<path opacity="0.5" d="M124.936 97.7572L117.116 93.2272C116.935 93.7927 116.847 94.3836 116.856 94.9772V106.257L120.916 108.597L124.976 106.247L124.936 97.7572Z" fill="#322C49"/>
<path opacity="0.5" d="M133.056 83.6872L137.116 74.3072L130.666 70.5172C128.766 73.1372 128.216 75.2472 125.666 79.4172L133.056 83.6872Z" fill="#322C49"/>
<path opacity="0.5" d="M149.306 64.9272L149.836 62.1972C148.036 61.4372 146.836 59.0172 146.836 55.4872C146.836 50.7772 148.946 45.6272 151.836 42.9072L146.166 39.6372C143.766 45.1072 142.876 51.5572 140.916 56.4572C140.528 57.429 140.091 58.3803 139.606 59.3072L149.306 64.9272Z" fill="#322C49"/>
<path d="M192.326 52.2772L192.006 52.0872C190.811 51.5275 189.551 51.1177 188.256 50.8672C186.127 50.4792 184.148 49.5102 182.536 48.0672C182.13 47.6909 181.688 47.3559 181.216 47.0672C180.874 46.8679 180.502 46.7228 180.116 46.6372C177.656 46.0472 173.176 48.7272 169.956 44.5572L169.856 44.4272C167.606 41.4272 166.786 34.6372 163.416 32.6472L163.076 32.4572C161.686 31.8072 159.876 31.9272 157.406 33.3472C148.476 38.5072 148.176 50.7572 144.956 58.8072C141.736 66.8572 137.186 69.3872 134.706 72.8072C132.226 76.2272 132.066 78.8072 126.566 86.4072C121.066 94.0072 120.866 95.8272 120.866 97.2572V108.637L193.956 66.4272V55.1172C194.009 54.5337 193.881 53.9479 193.589 53.4397C193.298 52.9315 192.856 52.5256 192.326 52.2772ZM129.326 98.0872C128.326 98.6372 127.606 97.8972 127.606 96.4272C127.593 95.7262 127.742 95.0316 128.04 94.3971C128.338 93.7625 128.778 93.2049 129.326 92.7672C130.326 92.2172 131.046 92.9672 131.046 94.4372C131.064 95.1347 130.921 95.8269 130.628 96.4601C130.335 97.0932 129.899 97.65 129.356 98.0872H129.326ZM157.386 64.0872C154.986 65.4772 152.886 64.6872 151.756 62.3672C151.12 60.9368 150.816 59.3815 150.866 57.8172C150.866 52.2772 153.786 46.1072 157.386 44.0272C157.872 43.7377 158.403 43.5283 158.956 43.4072C161.796 42.8472 163.896 45.5772 163.896 50.2972C163.926 55.8472 161.016 62.0172 157.416 64.0972L157.386 64.0872ZM185.716 65.5172C184.716 66.0672 183.986 65.3272 183.986 63.8672C183.971 63.1663 184.12 62.4717 184.42 61.8382C184.721 61.2047 185.164 60.6498 185.716 60.2172C186.716 59.6672 187.436 60.4072 187.436 61.8772C187.453 62.5745 187.31 63.2666 187.017 63.8996C186.724 64.5326 186.289 65.0895 185.746 65.5272L185.716 65.5172Z" fill="#322C49"/>
<path d="M163.926 50.3072C163.926 55.8472 161.016 62.0172 157.416 64.0972C155.016 65.4872 152.916 64.6972 151.786 62.3772C152.344 62.2608 152.878 62.0512 153.366 61.7572C156.966 59.6772 159.876 53.5072 159.876 47.9672C159.925 46.4029 159.621 44.8476 158.986 43.4172C161.826 42.8572 163.926 45.6372 163.926 50.3072Z" fill="#555068"/>
<path d="M129.356 98.0772C128.356 98.6272 127.626 97.8872 127.626 96.4272C127.614 95.7253 127.763 95.03 128.063 94.3952C128.363 93.7605 128.806 93.2034 129.356 92.7672C130.306 92.2172 131.076 92.9672 131.076 94.4372C131.088 95.1354 130.94 95.827 130.641 96.4583C130.343 97.0896 129.903 97.6436 129.356 98.0772Z" fill="#555068"/>
<path d="M185.736 65.5272C184.736 66.0772 184.016 65.3372 184.016 63.8772C184.002 63.176 184.151 62.4812 184.449 61.8466C184.747 61.2119 185.187 60.6544 185.736 60.2172C186.736 59.6672 187.466 60.4172 187.466 61.8872C187.479 62.5864 187.329 63.279 187.029 63.9107C186.729 64.5423 186.286 65.0956 185.736 65.5272Z" fill="#555068"/>
<path d="M81.5459 132.187L233.306 44.5672C233.709 44.3649 234.154 44.2595 234.606 44.2595C235.057 44.2595 235.502 44.3649 235.906 44.5672L237.376 45.4172C237.754 45.6641 238.068 45.9964 238.294 46.3873C238.52 46.7781 238.651 47.2165 238.676 47.6672V279.187C238.651 279.638 238.52 280.076 238.294 280.467C238.068 280.858 237.754 281.19 237.376 281.437L85.6159 369.057C85.2124 369.26 84.7672 369.365 84.3158 369.365C83.8645 369.365 83.4193 369.26 83.0159 369.057L81.5459 368.207C81.168 367.96 80.8535 367.628 80.6277 367.237C80.4018 366.846 80.2711 366.408 80.2458 365.957V134.437C80.2726 133.987 80.4041 133.549 80.6297 133.158C80.8554 132.768 81.1691 132.435 81.5459 132.187Z" fill="#F5F5F5"/>
<path d="M238.626 47.2771C238.466 46.7471 237.966 46.5771 237.376 46.9171L85.6157 134.537C85.2262 134.783 84.9087 135.128 84.6957 135.537L80.6357 133.197C80.8459 132.786 81.164 132.441 81.5557 132.197L233.316 44.5771C233.716 44.3702 234.16 44.2622 234.611 44.2622C235.061 44.2622 235.505 44.3702 235.906 44.5771L237.376 45.4171C237.698 45.6279 237.974 45.9011 238.189 46.2206C238.404 46.54 238.552 46.8993 238.626 47.2771Z" fill="#FAFAFA"/>
<path d="M85.3059 369.197C85.1508 369.257 84.9899 369.301 84.8259 369.327H84.5759C84.3134 369.357 84.0483 369.357 83.7859 369.327C83.6218 369.301 83.461 369.257 83.3059 369.197L83.0159 369.057L81.5559 368.217C81.1775 367.971 80.8625 367.639 80.6366 367.248C80.4107 366.857 80.2803 366.418 80.2559 365.967V134.447C80.2671 133.994 80.3982 133.553 80.6359 133.167L84.6959 135.507C84.4652 135.896 84.3346 136.336 84.3159 136.787V368.307C84.3159 369.017 84.7359 369.367 85.3059 369.197Z" fill="#E0E0E0"/>
<path d="M204.486 77.3672L200.486 75.0272C199.85 74.7187 199.148 74.5685 198.441 74.5894C197.734 74.6103 197.043 74.8016 196.426 75.1472C191.706 77.2272 189.666 78.1472 187.226 79.1472L185.466 79.8572C184.516 80.2372 182.606 79.9172 183.196 76.5872L189.466 59.6972H189.376L185.376 57.3972C185.173 57.2774 184.949 57.1992 184.716 57.1672C184.569 57.1559 184.422 57.1559 184.276 57.1672C181.706 57.1072 180.976 40.5472 180.956 40.0372L180.776 39.9372L176.836 37.6372C176.154 37.2505 175.38 37.0537 174.596 37.0672C173.294 37.1012 172.019 37.4439 170.876 38.0672C164.706 41.3072 158.476 50.9072 156.956 59.5272C155.956 64.9672 150.526 73.3372 147.366 76.4172C144.206 79.4972 143.986 82.0772 143.986 82.0772L141.526 96.0172L140.736 100.477C140.156 103.807 136.736 107.027 136.736 107.027L124.016 116.637C116.016 123.257 113.796 129.937 112.266 138.207V138.267C112.266 138.557 112.266 138.757 112.406 138.837C112.427 138.849 112.451 138.856 112.476 138.856C112.5 138.856 112.525 138.849 112.546 138.837L114.176 137.907L201.756 87.3972C202.173 87.1116 202.46 86.6733 202.556 86.1772C203.056 83.1772 204.556 77.5072 204.556 77.5072L204.486 77.3672ZM179.166 51.7772C178.226 57.0772 174.406 62.9872 170.606 64.9772C167.986 66.3472 166.076 65.4972 165.436 63.0872C164.965 63.2725 164.455 63.3358 163.953 63.2711C163.452 63.2064 162.974 63.0159 162.566 62.7172C161.346 61.7172 172.506 42.6072 173.416 43.0272C173.855 43.2539 174.237 43.5781 174.531 43.9751C174.826 44.372 175.026 44.8311 175.116 45.3172C178.226 44.3672 180.006 47.0172 179.166 51.7772Z" fill="#68617F"/>
<path opacity="0.5" d="M124.936 125.907L118.556 122.217C114.846 127.087 113.366 132.217 112.266 138.167V138.227C112.266 138.517 112.266 138.717 112.406 138.797C112.427 138.809 112.451 138.816 112.476 138.816C112.5 138.816 112.525 138.809 112.546 138.797L117.546 134.797L124.936 125.907Z" fill="#322C49"/>
<path opacity="0.5" d="M140.316 101.947L149.316 107.137L153.376 83.6872L145.266 79.0072C144.621 79.9351 144.187 80.9934 143.996 82.1072L141.536 96.0472L140.746 100.507C140.646 100.999 140.502 101.481 140.316 101.947Z" fill="#322C49"/>
<path opacity="0.5" d="M161.216 48.3572C159.159 51.8163 157.718 55.6057 156.956 59.5572C156.316 62.3723 155.243 65.0711 153.776 67.5572L161.496 72.0172L165.326 63.1572C164.869 63.3204 164.379 63.3701 163.898 63.3022C163.417 63.2343 162.96 63.0507 162.566 62.7672C161.936 62.2672 164.566 56.9672 167.426 51.9872L161.216 48.3572Z" fill="#322C49"/>
<path d="M204.546 77.3972H204.486C203.856 77.1019 203.165 76.9598 202.47 76.9824C201.775 77.0049 201.095 77.1917 200.486 77.5272C194.696 80.0772 192.946 80.9172 189.486 82.2772C188.566 82.6472 186.716 82.3472 187.196 79.2172C187.191 79.1473 187.191 79.0771 187.196 79.0072L187.986 74.5472L190.176 62.3972C190.176 62.3972 190.676 60.4872 189.406 59.7672H189.316C189.002 59.6216 188.661 59.5465 188.316 59.5472C187.577 59.4594 186.868 59.2061 186.242 58.8062C185.615 58.4062 185.086 57.8699 184.696 57.2372C184.011 56.2214 183.538 55.0781 183.304 53.8755C183.07 52.6729 183.081 51.4356 183.336 50.2372C184.256 45.0272 183.246 41.3772 180.936 40.0172L180.756 39.9072C179.266 39.1172 177.266 39.2472 174.926 40.4772C168.756 43.7172 162.526 53.3172 161.006 61.9372C160.006 67.3772 154.576 75.7472 151.416 78.8272C148.256 81.9072 148.036 84.4872 148.036 84.4872L145.576 98.4272L144.786 102.887C144.206 106.217 140.786 109.437 140.786 109.437L128.116 118.947C123.037 122.99 119.371 128.539 117.646 134.797C117.646 134.797 112.876 138.497 112.576 138.797L114.206 137.867L202.036 87.3772C202.036 87.3772 203.036 86.8272 203.266 86.6872C203.496 86.5472 207.026 83.2072 207.026 83.2072C206.856 80.3272 206.016 78.2772 204.546 77.3972ZM179.166 51.7772C178.226 57.0772 174.406 62.9872 170.606 64.9772C167.986 66.3472 166.076 65.4972 165.436 63.0872C165.151 61.732 165.151 60.3324 165.436 58.9772C166.376 53.6772 170.206 47.7672 174.006 45.7872C174.358 45.5982 174.726 45.4409 175.106 45.3172C178.226 44.3672 180.006 47.0172 179.166 51.7772Z" fill="#322C49"/>
<path d="M179.166 51.7772C178.226 57.0772 174.406 62.9872 170.606 64.9772C167.986 66.3472 166.076 65.4972 165.436 63.0872C165.818 62.9655 166.189 62.8117 166.546 62.6272C170.346 60.6272 174.176 54.7272 175.106 49.4272C175.394 48.0724 175.394 46.672 175.106 45.3172C178.226 44.3672 180.006 47.0172 179.166 51.7772Z" fill="#555068"/>
<path d="M175.496 45.5372C175.853 45.5146 176.21 45.5847 176.533 45.7406C176.855 45.8965 177.132 46.133 177.336 46.4272C178.906 48.6672 177.396 54.3672 176.746 56.1872C175.836 58.7272 169.946 64.6772 168.326 64.6772C167.79 64.5891 167.278 64.393 166.821 64.1007C166.364 63.8084 165.971 63.4262 165.666 62.9772C165.399 61.6572 165.399 60.2972 165.666 58.9772C166.596 53.7472 170.386 47.9072 174.106 45.9772C174.425 45.797 174.759 45.6463 175.106 45.5272H175.456M175.456 45.2772H175.056C174.676 45.4008 174.308 45.5581 173.956 45.7472C170.156 47.7472 166.326 53.6372 165.386 58.9372C165.101 60.2924 165.101 61.692 165.386 63.0472C165.712 63.5365 166.137 63.9527 166.633 64.2694C167.128 64.5862 167.685 64.7965 168.266 64.8872C170.026 64.8872 175.946 58.8872 176.896 56.2372C177.846 53.5872 179.896 45.2372 175.416 45.2372L175.456 45.2772Z" fill="#555068"/>
<path d="M112.546 138.807L202.006 87.3771L203.246 86.6871C203.466 86.5571 207.006 83.1971 207.006 83.1971L117.606 134.797C117.606 134.797 112.186 138.987 112.546 138.807Z" fill="#555068"/>
<path d="M96.6758 162.197L120.876 148.017V176.167L96.6758 190.337V162.197Z" fill="#FAFAFA"/>
<path d="M97.6758 162.767V188.637L119.876 175.637V149.767L97.6758 162.767ZM96.6758 191.337C96.501 191.336 96.3292 191.291 96.1758 191.207C96.0232 191.119 95.8966 190.992 95.8088 190.839C95.721 190.687 95.6751 190.513 95.6758 190.337V162.197C95.6741 162.022 95.7185 161.849 95.8045 161.697C95.8905 161.544 96.0151 161.417 96.1658 161.327L120.366 147.157C120.518 147.069 120.69 147.023 120.866 147.023C121.041 147.023 121.214 147.069 121.366 147.157C121.517 147.244 121.643 147.37 121.73 147.521C121.818 147.671 121.865 147.843 121.866 148.017V176.167C121.865 176.342 121.818 176.513 121.73 176.664C121.643 176.815 121.517 176.94 121.366 177.027L97.1658 191.197C97.0173 191.285 96.8485 191.334 96.6758 191.337Z" fill="#68617F"/>
<path d="M133.056 141.977V143.977C133.056 145.087 133.836 145.537 134.786 144.977L220.686 95.3972C221.19 95.0681 221.611 94.6252 221.913 94.1042C222.215 93.5831 222.391 92.9985 222.426 92.3972V90.3472C222.426 89.2472 221.646 88.7972 220.686 89.3472L134.786 138.947C134.278 139.279 133.857 139.727 133.556 140.254C133.255 140.781 133.084 141.371 133.056 141.977Z" fill="#E0E0E0"/>
<path d="M133.056 154.267V156.267C133.056 157.367 133.836 157.817 134.786 157.267L220.686 107.677C221.192 107.349 221.613 106.907 221.915 106.385C222.217 105.864 222.392 105.279 222.426 104.677V102.677C222.426 101.567 221.646 101.117 220.686 101.677L134.786 151.267C134.282 151.596 133.863 152.039 133.562 152.561C133.262 153.082 133.088 153.666 133.056 154.267Z" fill="#E0E0E0"/>
<path d="M133.056 166.487V168.487C133.056 169.587 133.836 170.037 134.786 169.487L220.686 119.897C221.192 119.57 221.614 119.127 221.916 118.606C222.218 118.085 222.393 117.499 222.426 116.897V114.897C222.426 113.797 221.646 113.347 220.686 113.897L134.786 163.487C134.284 163.818 133.866 164.261 133.566 164.782C133.265 165.303 133.091 165.887 133.056 166.487Z" fill="#E0E0E0"/>
<path d="M109.176 176.577L103.546 171.167L105.976 166.027L109.176 169.117L122.506 140.897L124.936 143.227L109.176 176.577Z" fill="#CCA9D2"/>
<path d="M96.6758 213.787L120.876 199.617V227.757L96.6758 241.927V213.787Z" fill="#FAFAFA"/>
<path d="M97.6758 214.357V240.187L119.876 227.187V201.357L97.6758 214.357ZM96.6758 242.927C96.5006 242.928 96.3282 242.884 96.1758 242.797C96.0232 242.709 95.8966 242.582 95.8088 242.43C95.721 242.277 95.6751 242.103 95.6758 241.927V213.787C95.6758 213.614 95.721 213.443 95.8069 213.292C95.8928 213.142 96.0165 213.016 96.1658 212.927L120.366 198.757C120.518 198.667 120.691 198.619 120.867 198.617C121.044 198.616 121.217 198.661 121.371 198.748C121.524 198.836 121.652 198.962 121.74 199.115C121.829 199.267 121.876 199.441 121.876 199.617V227.757C121.876 227.933 121.831 228.107 121.743 228.26C121.655 228.412 121.528 228.539 121.376 228.627L97.1758 242.797C97.0234 242.884 96.851 242.928 96.6758 242.927Z" fill="#68617F"/>
<path d="M133.056 193.567V195.567C133.056 196.667 133.836 197.117 134.786 196.567L220.686 146.977C221.192 146.65 221.614 146.208 221.916 145.686C222.218 145.165 222.393 144.579 222.426 143.977V141.977C222.426 140.867 221.646 140.427 220.686 140.977L134.786 190.567C134.284 190.898 133.866 191.342 133.566 191.862C133.265 192.383 133.091 192.967 133.056 193.567Z" fill="#E0E0E0"/>
<path d="M133.056 205.867V207.867C133.056 208.977 133.836 209.417 134.786 208.867L220.686 159.277C221.192 158.95 221.614 158.507 221.916 157.986C222.218 157.465 222.393 156.879 222.426 156.277V154.277C222.426 153.177 221.646 152.727 220.686 153.277L134.786 202.877C134.283 203.205 133.865 203.647 133.565 204.166C133.264 204.685 133.09 205.268 133.056 205.867Z" fill="#E0E0E0"/>
<path d="M133.056 218.087V220.087C133.056 221.187 133.836 221.637 134.786 221.087L220.686 171.497C221.192 171.169 221.613 170.727 221.915 170.205C222.217 169.684 222.392 169.099 222.426 168.497V166.497C222.426 165.387 221.646 164.937 220.686 165.497L134.786 215.087C134.283 215.417 133.865 215.861 133.565 216.382C133.264 216.903 133.09 217.487 133.056 218.087Z" fill="#E0E0E0"/>
<path d="M109.176 228.177L103.546 222.757L105.976 217.627L109.176 220.707L122.506 192.487L124.936 194.827L109.176 228.177Z" fill="#CCA9D2"/>
<path d="M96.6758 265.387L120.876 251.207V279.357L96.6758 293.527V265.387Z" fill="#FAFAFA"/>
<path d="M97.6758 265.957V291.787L119.876 278.787V252.957L97.6758 265.957ZM96.6758 294.527C96.5007 294.528 96.3282 294.484 96.1758 294.397C96.0232 294.309 95.8966 294.182 95.8088 294.029C95.721 293.877 95.6751 293.703 95.6758 293.527V265.387C95.6741 265.212 95.7185 265.039 95.8045 264.887C95.8905 264.734 96.0151 264.607 96.1658 264.517L120.366 250.347C120.518 250.257 120.692 250.208 120.87 250.207C121.047 250.206 121.221 250.252 121.375 250.341C121.529 250.429 121.656 250.557 121.744 250.711C121.832 250.865 121.878 251.04 121.876 251.217V279.357C121.875 279.532 121.828 279.703 121.74 279.854C121.653 280.005 121.527 280.13 121.376 280.217L97.1758 294.387C97.0244 294.477 96.8519 294.525 96.6758 294.527Z" fill="#68617F"/>
<path d="M133.056 245.167V247.167C133.056 248.267 133.836 248.717 134.786 248.167L220.686 198.637C221.192 198.309 221.613 197.867 221.915 197.345C222.217 196.824 222.392 196.239 222.426 195.637V193.637C222.426 192.527 221.646 192.077 220.686 192.637L134.786 242.227C134.291 242.551 133.878 242.985 133.578 243.495C133.277 244.005 133.099 244.577 133.056 245.167Z" fill="#E0E0E0"/>
<path d="M133.056 257.457V259.457C133.056 260.557 133.836 261.007 134.786 260.457L220.686 210.867C221.192 210.54 221.614 210.097 221.916 209.576C222.218 209.055 222.393 208.469 222.426 207.867V205.867C222.426 204.757 221.646 204.317 220.686 204.867L134.786 254.457C134.283 254.787 133.865 255.231 133.565 255.752C133.264 256.273 133.09 256.857 133.056 257.457Z" fill="#E0E0E0"/>
<path d="M133.056 269.687V271.687C133.056 272.797 133.836 273.237 134.786 272.687L220.686 223.097C221.193 222.771 221.615 222.328 221.917 221.807C222.22 221.285 222.394 220.699 222.426 220.097V218.047C222.426 216.947 221.646 216.497 220.686 217.047L134.786 266.647C134.277 266.98 133.854 267.43 133.554 267.958C133.253 268.487 133.082 269.08 133.056 269.687Z" fill="#E0E0E0"/>
<path d="M96.6758 316.977L120.876 302.807V330.957L96.6758 345.127V316.977Z" fill="#FAFAFA"/>
<path d="M97.6758 317.557V343.377L119.876 330.377V304.557L97.6758 317.557ZM96.6758 346.127C96.4106 346.127 96.1562 346.022 95.9687 345.834C95.7811 345.647 95.6758 345.392 95.6758 345.127V316.977C95.6758 316.804 95.721 316.633 95.8069 316.482C95.8928 316.332 96.0165 316.206 96.1658 316.117L120.366 301.947C120.518 301.859 120.69 301.813 120.866 301.813C121.041 301.813 121.214 301.859 121.366 301.947C121.518 302.035 121.645 302.162 121.733 302.315C121.821 302.468 121.866 302.641 121.866 302.817V330.967C121.865 331.142 121.818 331.313 121.73 331.464C121.643 331.615 121.517 331.74 121.366 331.827L97.1658 345.997C97.0163 346.082 96.8476 346.127 96.6758 346.127Z" fill="#68617F"/>
<path d="M133.056 296.767V298.767C133.056 299.877 133.836 300.317 134.786 299.767L220.686 250.177C221.192 249.85 221.614 249.407 221.916 248.886C222.218 248.365 222.393 247.779 222.426 247.177V245.177C222.426 244.077 221.646 243.627 220.686 244.177L134.786 293.777C134.283 294.105 133.865 294.547 133.565 295.066C133.264 295.585 133.09 296.168 133.056 296.767Z" fill="#E0E0E0"/>
<path d="M133.056 309.057V311.057C133.056 312.167 133.836 312.617 134.786 312.057L220.686 262.477C221.19 262.148 221.611 261.705 221.913 261.184C222.215 260.663 222.391 260.079 222.426 259.477V257.427C222.426 256.327 221.646 255.877 220.686 256.427L134.786 306.027C134.278 306.359 133.857 306.807 133.556 307.334C133.255 307.861 133.084 308.451 133.056 309.057Z" fill="#E0E0E0"/>
<path d="M133.056 321.277V323.277C133.056 324.377 133.836 324.827 134.786 324.277L220.686 274.687C221.192 274.36 221.614 273.917 221.916 273.396C222.218 272.875 222.393 272.289 222.426 271.687V269.687C222.426 268.577 221.646 268.137 220.686 268.687L134.786 318.277C134.284 318.608 133.866 319.051 133.566 319.572C133.265 320.093 133.091 320.677 133.056 321.277Z" fill="#E0E0E0"/>
<path d="M359.92 150.073C360.88 144.158 356.863 138.585 350.948 137.625C345.033 136.665 339.46 140.682 338.5 146.596C337.54 152.511 341.556 158.085 347.471 159.045C353.386 160.005 358.959 155.988 359.92 150.073Z" fill="#555068"/>
<path d="M320.597 200.646L320.935 200.792L321.175 200.513L335.963 183.317L338.343 197.099C338.276 197.176 338.189 197.277 338.083 197.398C337.817 197.704 337.434 198.143 336.966 198.677C336.03 199.744 334.755 201.187 333.397 202.692C332.039 204.198 330.6 205.764 329.336 207.076C328.062 208.399 326.993 209.436 326.365 209.908L326.365 209.908L326.361 209.911C324.326 211.473 322.092 211.014 319.464 210.474C319.422 210.465 319.379 210.456 319.336 210.447C319.051 210.389 318.532 210.219 317.813 209.949C317.105 209.683 316.231 209.331 315.252 208.922C313.294 208.103 310.927 207.06 308.639 206.034C306.352 205.007 304.146 203.997 302.512 203.244C301.696 202.867 301.022 202.555 300.552 202.336C300.378 202.256 300.232 202.188 300.117 202.134L300.479 191.937L320.597 200.646Z" fill="white" stroke="black"/>
<path d="M328.1 192.369C328.091 192.347 328.083 192.327 328.076 192.308C328.092 192.284 328.11 192.259 328.129 192.232C328.26 192.044 328.452 191.771 328.694 191.429C329.178 190.747 329.861 189.793 330.656 188.708C332.249 186.536 334.288 183.848 336.084 181.764C339.602 177.682 344.113 173.354 349.743 173.434L347.404 188.061L336.406 201.121C333.437 200.025 331.353 197.837 329.992 195.863C329.29 194.844 328.787 193.892 328.46 193.195C328.297 192.847 328.178 192.564 328.1 192.369Z" fill="#E0E0E0" stroke="black"/>
<path d="M368.026 332.347H374.666V344.427H368.026V332.347Z" fill="white" stroke="black"/>
<path d="M347.8 322.454L348.162 335.294L341.522 335.52L341.169 322.68L347.8 322.454Z" fill="white" stroke="black"/>
<path d="M374.656 228.167C374.656 235.467 375.606 279.677 375.606 279.677C375.776 281.777 377.746 285.677 377.326 293.677C376.746 304.677 375.796 333.107 375.796 333.107C375.796 333.107 372.216 336.657 367.156 333.107C367.156 333.107 360.236 293.717 358.876 282.867C357.676 273.387 355.646 247.657 355.646 247.657L351.416 283.377C351.416 283.377 352.656 290.497 352.936 295.517C353.216 300.537 348.796 326.057 348.796 326.057C347.557 326.831 346.137 327.267 344.677 327.322C343.217 327.376 341.769 327.047 340.476 326.367C340.476 326.367 337.186 287.477 336.396 282.937C335.606 278.397 338.926 228.137 338.926 228.137L374.656 228.167Z" fill="#322C49"/>
<path d="M367.227 175.889L367.23 175.89C368.761 176.157 370.178 176.872 371.303 177.945C372.427 179.017 373.208 180.399 373.548 181.915C373.954 183.785 374.158 185.693 374.156 187.607V187.607V227.969C372.884 229.286 370.852 230.462 368.3 231.357C365.666 232.281 362.514 232.892 359.158 233.06C352.519 233.392 345.146 231.986 339.428 227.912L339.429 227.767C339.43 227.503 339.433 227.116 339.437 226.621C339.445 225.63 339.458 224.208 339.475 222.483C339.511 219.034 339.567 214.374 339.651 209.53C339.734 204.685 339.846 199.659 339.991 195.477C340.136 191.281 340.315 187.969 340.53 186.531L340.53 186.531C341.281 181.482 342.855 178.124 344.789 176.081C346.707 174.054 349.005 173.291 351.312 173.464L363.036 175.131L367.227 175.889Z" fill="#F0F0F0" stroke="black"/>
<path d="M367.936 156.037C367.936 156.037 366.176 164.287 365.476 165.647C365.006 166.483 364.233 167.106 363.316 167.387L363.436 161.587L367.936 156.037Z" fill="#555068"/>
<path d="M365.726 144.207C366.34 144.133 366.964 144.201 367.548 144.406C368.132 144.61 368.662 144.946 369.096 145.387C370.546 146.867 369.736 151.497 367.936 156.037L364.626 156.417L365.726 144.207Z" fill="#555068"/>
<path d="M363.147 156.314L363.147 156.314L363.147 156.313L363.148 156.308L363.152 156.287C363.156 156.268 363.162 156.239 363.169 156.2C363.184 156.122 363.205 156.006 363.23 155.857C363.28 155.558 363.345 155.124 363.403 154.59C363.521 153.521 363.613 152.059 363.513 150.48C363.312 147.292 362.343 143.782 359.419 141.94C356.385 140.029 352.041 139.097 348.333 139.851C346.487 140.226 344.819 141.015 343.543 142.286C342.272 143.553 341.362 145.327 341.072 147.727C339.978 156.796 340.478 160.468 341.757 165.032L341.757 165.033C342.527 167.803 344.092 169.692 346.478 170.069C348.069 170.158 349.664 170.075 351.237 169.824L351.816 169.731V170.317V174.317V174.496L351.703 174.634C351.209 175.237 350.759 176.005 350.458 176.8C350.155 177.6 350.019 178.389 350.109 179.047C350.196 179.685 350.491 180.194 351.08 180.52C351.693 180.859 352.691 181.034 354.243 180.823C356.064 180.536 357.786 179.802 359.255 178.687C360.698 177.592 361.852 176.162 362.618 174.522L362.936 161.575L363.919 161.474C363.923 161.473 363.923 161.473 363.923 161.473L363.922 161.472L363.922 161.471L363.922 161.469C363.921 161.468 363.921 161.468 363.921 161.468L363.923 161.474C363.925 161.482 363.93 161.496 363.937 161.517C363.952 161.558 363.977 161.62 364.017 161.695C364.098 161.845 364.234 162.037 364.458 162.203C364.881 162.518 365.744 162.828 367.456 162.29L363.147 156.314ZM363.147 156.314L363.147 156.314M363.147 156.314L363.147 156.314M363.147 156.314L363.073 156.661L363.377 156.845C363.715 157.05 364.071 157.015 364.362 156.9C364.639 156.791 364.897 156.595 365.123 156.394C365.416 156.133 365.736 155.783 366.026 155.465C366.169 155.309 366.304 155.16 366.426 155.034C366.756 154.691 367.512 154.255 368.309 154.215C368.695 154.196 369.077 154.271 369.43 154.482C369.782 154.693 370.137 155.061 370.435 155.683C371.006 156.877 370.773 158.362 370.088 159.682C369.398 161.012 368.332 162.015 367.456 162.29L363.147 156.314Z" fill="white" stroke="black"/>
<path d="M363.636 157.537C363.966 157.537 365.236 155.437 366.066 154.687C367.206 153.637 365.726 144.207 365.726 144.207C366.029 143.392 366.086 142.505 365.891 141.657C365.695 140.81 365.255 140.038 364.626 139.437C363.056 137.707 360.436 137.517 355.956 136.817C353.616 136.447 350.056 135.817 347.706 135.347C344.906 134.827 342.586 134.277 340.616 135.997C339.844 136.671 339.297 137.566 339.051 138.56C338.804 139.554 338.868 140.601 339.236 141.557C339.441 141.992 339.711 142.393 340.036 142.747C340.567 143.38 341.258 143.859 342.036 144.137C342.036 144.137 343.256 145.217 347.506 145.737C351.428 146.03 355.368 145.953 359.276 145.507C360.506 145.347 360.766 146.507 361.436 149.797C362.026 152.637 362.516 157.517 363.636 157.537Z" fill="#555068"/>
<path d="M365.726 144.937L369.726 142.787C369.596 142.523 369.415 142.287 369.194 142.094C368.972 141.9 368.714 141.753 368.435 141.659C368.156 141.566 367.861 141.53 367.567 141.552C367.274 141.574 366.988 141.654 366.726 141.787C366.187 142.084 365.783 142.576 365.597 143.163C365.411 143.749 365.457 144.384 365.726 144.937Z" fill="#555068"/>
<path d="M352.143 168.994C352.143 168.994 357.597 167.746 359.476 166.591C360.596 165.927 361.515 164.899 362.116 163.637C361.826 164.902 361.315 166.087 360.613 167.122C359.219 169.15 352.116 170.637 352.116 170.637L352.143 168.994Z" fill="#CCA9D2"/>
<path d="M352.806 154.927C352.816 155.16 352.894 155.385 353.03 155.574C353.167 155.763 353.356 155.908 353.574 155.99C353.792 156.073 354.03 156.089 354.257 156.038C354.485 155.987 354.692 155.869 354.853 155.701C355.015 155.533 355.123 155.321 355.165 155.092C355.207 154.862 355.181 154.626 355.09 154.411C354.998 154.197 354.846 154.014 354.651 153.885C354.457 153.756 354.229 153.687 353.996 153.687C353.836 153.69 353.678 153.724 353.532 153.788C353.385 153.852 353.253 153.944 353.142 154.059C353.032 154.175 352.945 154.311 352.887 154.46C352.83 154.609 352.802 154.768 352.806 154.927Z" fill="#555068"/>
<path d="M354.116 150.427L356.666 151.837C356.841 151.491 356.877 151.092 356.768 150.72C356.658 150.348 356.411 150.033 356.076 149.837C355.909 149.745 355.725 149.687 355.535 149.667C355.346 149.646 355.154 149.664 354.971 149.719C354.789 149.774 354.619 149.865 354.472 149.987C354.325 150.108 354.204 150.258 354.116 150.427Z" fill="#555068"/>
<path d="M351.916 163.167L349.186 164.167C349.245 164.35 349.341 164.519 349.467 164.664C349.593 164.809 349.747 164.927 349.919 165.012C350.091 165.097 350.279 165.146 350.471 165.158C350.663 165.169 350.855 165.141 351.036 165.077C351.396 164.928 351.686 164.648 351.849 164.294C352.012 163.94 352.036 163.538 351.916 163.167Z" fill="#CCA9D2"/>
<path d="M342.166 151.417L344.496 149.627C344.387 149.473 344.248 149.343 344.087 149.243C343.927 149.144 343.748 149.078 343.561 149.049C343.375 149.02 343.184 149.029 343.001 149.075C342.818 149.121 342.646 149.203 342.496 149.317C342.183 149.559 341.975 149.911 341.914 150.302C341.853 150.692 341.943 151.091 342.166 151.417Z" fill="#555068"/>
<path d="M342.886 154.637C342.895 154.87 342.973 155.095 343.11 155.284C343.247 155.473 343.436 155.618 343.654 155.7C343.872 155.783 344.109 155.799 344.337 155.748C344.564 155.697 344.772 155.579 344.933 155.411C345.095 155.243 345.203 155.031 345.245 154.802C345.287 154.572 345.261 154.336 345.169 154.121C345.078 153.906 344.926 153.723 344.731 153.595C344.537 153.466 344.309 153.397 344.076 153.397C343.916 153.4 343.758 153.434 343.612 153.498C343.465 153.562 343.333 153.654 343.222 153.769C343.112 153.885 343.025 154.021 342.967 154.17C342.909 154.319 342.882 154.477 342.886 154.637Z" fill="#555068"/>
<path d="M348.956 153.457L348.566 160.637L344.826 159.357L348.956 153.457Z" fill="#CCA9D2"/>
<path d="M367.526 341.157V340.057C366.786 340.377 365.096 346.857 362.056 349.627C359.646 351.817 356.366 354.357 355.526 356.807C354.686 359.257 360.106 360.807 362.356 360.367C364.976 359.907 369.506 358.067 370.646 356.367C371.786 354.667 372.316 352.137 373.236 350.887C374.156 349.637 376.296 348.237 376.796 346.787C377.076 345.997 376.746 344.247 376.356 342.787C375.966 341.327 375.626 339.957 375.166 340.077C375.166 340.247 375.166 340.917 375.166 340.917C374.075 341.767 372.728 342.222 371.346 342.207C370.226 342.227 367.516 342.007 367.526 341.157Z" fill="#555068"/>
<path d="M340.956 333.637C340.556 333.637 340.236 334.217 339.366 335.157C338.056 336.48 336.535 337.575 334.866 338.397C332.006 339.827 326.446 342.027 323.926 343.167C322.356 343.867 322.426 345.767 324.056 346.847C325.686 347.927 329.606 348.707 334.316 347.657C336.886 347.087 340.226 344.717 342.316 344.837C344.406 344.957 348.396 344.937 349.956 343.837C351.516 342.737 350.896 340.457 350.446 338.487C349.966 336.327 349.276 333.027 348.566 333.177V333.857C347.646 335.247 342.976 335.857 340.956 334.787V333.637Z" fill="#555068"/>
<path d="M355.646 247.687C351.697 246.455 348.065 244.372 345.006 241.587C345.006 241.587 347.066 245.427 353.166 249.007L351.416 283.407L355.646 247.687Z" fill="#555068"/>
<path d="M323.206 300.637L310.346 338.167C310.264 338.406 310.11 338.613 309.905 338.76C309.699 338.907 309.453 338.986 309.201 338.986C308.948 338.986 308.702 338.907 308.497 338.76C308.292 338.613 308.137 338.406 308.056 338.167L295.366 300.337L323.206 300.637Z" fill="#FFDDDD"/>
<path d="M308.056 338.167C308.137 338.406 308.292 338.613 308.497 338.76C308.702 338.907 308.948 338.986 309.201 338.986C309.453 338.986 309.699 338.907 309.905 338.76C310.11 338.613 310.264 338.406 310.346 338.167L312.856 330.837C311.774 331.418 310.552 331.69 309.326 331.621C308.099 331.552 306.916 331.146 305.906 330.447L305.346 330.067L308.056 338.167Z" fill="#555068"/>
<path d="M295.856 132.997V136.637V141.067L295.406 300.307C298.346 303.667 302.706 305.377 307.126 305.827C313.856 306.527 320.766 304.317 323.226 300.617L323.676 141.467V132.997C323.346 138.517 295.606 138.497 295.856 132.997Z" fill="#CCA9D2"/>
<path d="M295.766 146.967V155.167C295.686 157.547 300.766 159.087 306.596 159.617C314.356 160.357 323.496 158.257 323.596 155.107V149.057V146.897C323.486 150.047 314.346 152.157 306.596 151.417C300.996 150.897 296.096 149.417 295.816 147.227C295.781 147.145 295.764 147.056 295.766 146.967Z" fill="#EBEBEB"/>
<path d="M295.786 149.017C295.586 154.537 323.406 154.467 323.606 148.947V140.737C323.406 146.257 295.606 146.327 295.786 140.807V149.017Z" fill="#CCA9D2"/>
<path d="M295.856 132.997V141.097C295.616 146.517 322.466 146.677 323.676 141.497C323.709 141.397 323.725 141.293 323.726 141.187V133.027C323.346 138.517 295.606 138.497 295.856 132.997Z" fill="#EBEBEB"/>
<path opacity="0.1" d="M323.636 141.497V133.027C323.486 135.507 317.806 137.357 311.506 137.577L311.116 305.987L310.366 338.177L323.206 300.637L323.636 141.497Z" fill="#1F1B2D"/>
<path d="M295.986 98.6372L295.856 133.027C295.746 135.377 300.746 136.927 306.546 137.487C314.306 138.247 323.486 136.197 323.666 133.057L323.786 98.5572C323.786 91.6972 309.866 89.9672 301.556 92.8272C298.446 93.8172 296.236 95.7272 295.986 98.6372Z" fill="#FFDDDD"/>
<path d="M385.788 239.526L385.788 239.534L385.787 239.542C385.545 242.985 385.091 246.409 384.428 249.796C383.291 254.172 382.01 256.95 380.575 258.661C379.161 260.347 377.581 261.017 375.753 261.138C374.217 261.239 373.11 261.167 372.351 260.964C371.596 260.763 371.261 260.455 371.125 260.133C370.979 259.791 370.994 259.285 371.269 258.555C371.54 257.835 372.035 256.975 372.726 255.983C373.984 254.187 374.946 252.201 375.575 250.101L376.051 248.511L374.776 249.573C373.89 250.311 372.917 250.937 371.879 251.437L371.871 251.441L371.863 251.445C371.497 251.637 371.072 251.684 370.672 251.576C370.336 251.485 370.04 251.29 369.823 251.022C369.887 250.957 369.984 250.87 370.127 250.746C370.158 250.72 370.19 250.692 370.224 250.663C370.613 250.33 371.17 249.852 371.752 249.145L371.753 249.144C372.177 248.625 372.537 248.147 372.877 247.695C373.802 246.468 374.576 245.44 376.061 244.35L376.091 244.329L376.118 244.303C376.888 243.539 377.381 242.541 377.519 241.465C377.546 241.342 377.566 241.166 377.582 240.973C377.602 240.748 377.621 240.46 377.638 240.119C377.673 239.437 377.703 238.53 377.727 237.469C377.775 235.346 377.798 232.592 377.774 229.748C377.751 226.905 377.683 223.968 377.549 221.48C377.416 219.011 377.217 216.931 376.918 215.836L376.918 215.834L371.598 196.584L371.549 196.409L371.399 196.305C370.412 195.626 369.35 194.227 368.419 192.394C367.496 190.576 366.729 188.389 366.3 186.196C365.87 183.999 365.785 181.831 366.193 180.038C366.588 178.304 367.431 176.963 368.835 176.232C371.638 176.605 374.176 178.649 376.864 183.777C379.597 188.991 382.418 197.268 385.812 209.845C386.085 210.908 386.271 212.857 386.378 215.333C386.485 217.796 386.514 220.738 386.485 223.757C386.426 229.8 386.136 236.128 385.788 239.526Z" fill="white" stroke="black"/>
<path d="M383.334 198.812L383.335 198.816C382.204 201.514 379.303 203.2 376.53 204.217C375.133 204.729 373.804 205.058 372.823 205.259C372.334 205.36 371.932 205.428 371.654 205.471C371.643 205.472 371.631 205.474 371.62 205.476C371.553 205.287 371.463 205.034 371.355 204.73C371.107 204.028 370.763 203.053 370.382 201.961C369.618 199.775 368.705 197.123 368.102 195.244C368.079 195.172 368.055 195.098 368.031 195.024C367.435 193.169 366.683 190.824 366.09 188.434C365.471 185.941 365.038 183.44 365.125 181.419L365.126 181.407L365.126 181.396C365.124 180.333 365.347 179.282 365.782 178.313C366.194 177.394 366.786 176.568 367.523 175.884C368.719 175.816 369.916 176.011 371.029 176.457C372.194 176.925 373.236 177.655 374.073 178.591L374.073 178.591L374.077 178.595C375.185 179.806 376.327 181.675 377.421 183.83C378.511 185.977 379.538 188.376 380.423 190.624C381.308 192.872 382.05 194.963 382.57 196.493C382.83 197.257 383.035 197.881 383.175 198.314C383.244 198.53 383.298 198.698 383.334 198.812Z" fill="#E0E0E0" stroke="black"/>
<path d="M301.252 178.971L300.538 180.745L302.027 179.548L302.027 179.548L302.028 179.548L302.028 179.548L302.028 179.547L302.029 179.547L302.044 179.536C302.058 179.525 302.082 179.508 302.115 179.485C302.182 179.439 302.285 179.372 302.426 179.292C302.708 179.131 303.138 178.92 303.711 178.731C304.855 178.353 306.584 178.06 308.874 178.441L308.874 178.441C308.992 178.46 309.119 178.533 309.243 178.724C309.372 178.922 309.48 179.225 309.537 179.632C309.649 180.446 309.538 181.565 309.127 182.771C308.309 185.175 306.335 187.819 302.801 188.972L302.8 188.972C301.702 189.333 300.808 189.567 300.051 189.765C299.99 189.781 299.93 189.797 299.871 189.812C299.087 190.018 298.419 190.199 297.851 190.466C296.733 190.991 296.055 191.822 295.336 193.527C295.128 193.421 294.868 193.25 294.623 192.981C294.106 192.414 293.579 191.326 293.909 189.248C294.665 184.785 296.654 180.622 299.65 177.228L299.651 177.228L299.657 177.221C300.573 176.141 301.139 175.124 301.545 174.396C301.625 174.251 301.699 174.118 301.769 173.999C301.995 173.607 302.127 173.435 302.216 173.373C302.216 173.373 302.217 173.372 302.217 173.372C302.233 173.378 302.261 173.391 302.304 173.42C302.442 173.514 302.547 173.669 302.616 173.899C302.686 174.132 302.709 174.41 302.701 174.695C302.693 174.976 302.656 175.242 302.62 175.439C302.602 175.537 302.585 175.616 302.572 175.67C302.567 175.691 302.563 175.708 302.56 175.721L301.252 178.971Z" fill="white" stroke="black"/>
</svg>
